<?xml version="1.0" encoding="UTF-8" standalone="no"?>
<!-- Created with Inkscape (http://www.inkscape.org/) -->

<svg
   width="200mm"
   height="50mm"
   viewBox="0 0 200 50"
   version="1.1"
   id="svg5"
   inkscape:version="1.2 (dc2aedaf03, 2022-05-15)"
   sodipodi:docname="VoltsPanelGraphicsHorizontal.svg"
   inkscape:export-filename="TuringPanelGraphics.png"
   inkscape:export-xdpi="100"
   inkscape:export-ydpi="100"
   xmlns:inkscape="http://www.inkscape.org/namespaces/inkscape"
   xmlns:sodipodi="http://sodipodi.sourceforge.net/DTD/sodipodi-0.dtd"
   xmlns="http://www.w3.org/2000/svg"
   xmlns:svg="http://www.w3.org/2000/svg">
  <sodipodi:namedview
     id="namedview7"
     pagecolor="#ffffff"
     bordercolor="#666666"
     borderopacity="1.0"
     inkscape:pageshadow="2"
     inkscape:pageopacity="0.0"
     inkscape:pagecheckerboard="0"
     inkscape:document-units="mm"
     showgrid="true"
     showguides="true"
     inkscape:zoom="1"
     inkscape:cx="265"
     inkscape:cy="255"
     inkscape:window-width="1920"
     inkscape:window-height="1017"
     inkscape:window-x="-8"
     inkscape:window-y="-8"
     inkscape:window-maximized="1"
     inkscape:current-layer="svg5"
     inkscape:showpageshadow="2"
     inkscape:deskcolor="#d1d1d1">
    <sodipodi:guide
       position="0,50.000001"
       orientation="0,377.95276"
       id="guide824"
       inkscape:locked="false" />
    <sodipodi:guide
       position="50,-50"
       orientation="755.90551,0"
       id="guide826"
       inkscape:locked="false" />
    <sodipodi:guide
       position="99.999999,-150"
       orientation="0,-377.95276"
       id="guide828"
       inkscape:locked="false" />
    <sodipodi:guide
       position="0,-150"
       orientation="-755.90551,0"
       id="guide830"
       inkscape:locked="false" />
    <inkscape:grid
       type="xygrid"
       id="grid832"
       dotted="true"
       units="mm"
       spacingx="2.5"
       spacingy="2.5"
       empspacing="10"
       originx="0"
       originy="0" />
    <sodipodi:guide
       position="-45,40.000001"
       orientation="0,-1"
       id="guide454"
       inkscape:locked="false" />
    <sodipodi:guide
       position="25,85.000001"
       orientation="1,0"
       id="guide456"
       inkscape:locked="false" />
    <sodipodi:guide
       position="15,40.000001"
       orientation="1,0"
       id="guide458"
       inkscape:locked="false" />
    <sodipodi:guide
       position="50,-125"
       orientation="0,-1"
       id="guide460"
       inkscape:locked="false" />
    <sodipodi:guide
       position="-25,-87.499999"
       orientation="0,-1"
       id="guide462"
       inkscape:locked="false" />
    <sodipodi:guide
       position="35,35.000001"
       orientation="1,0"
       id="guide464"
       inkscape:locked="false" />
    <sodipodi:guide
       position="62.5,-75"
       orientation="1,0"
       id="guide466"
       inkscape:locked="false" />
    <sodipodi:guide
       position="-112.5,12.500001"
       orientation="0,-1"
       id="guide5561"
       inkscape:locked="false" />
    <sodipodi:guide
       position="-20,-137.5"
       orientation="0,-1"
       id="guide540"
       inkscape:locked="false" />
    <sodipodi:guide
       position="-9.9999999,-110"
       orientation="0,-1"
       id="guide1017"
       inkscape:locked="false" />
    <sodipodi:guide
       position="-112.5,-12.499999"
       orientation="0,-1"
       id="guide691"
       inkscape:locked="false" />
    <sodipodi:guide
       position="57.5,-37.499999"
       orientation="0,-1"
       id="guide693"
       inkscape:locked="false" />
    <sodipodi:guide
       position="-12.5,-62.5"
       orientation="0,-1"
       id="guide695"
       inkscape:locked="false" />
  </sodipodi:namedview>
  <defs
     id="defs2">
    <rect
       x="94.48819"
       y="774.80316"
       width="56.692913"
       height="37.795277"
       id="rect3879" />
    <rect
       x="248"
       y="85"
       width="110"
       height="59"
       id="rect3873" />
    <rect
       x="-236.22047"
       y="141.73228"
       width="330.70865"
       height="47.244099"
       id="rect3872" />
    <rect
       x="141.73228"
       y="0"
       width="141.73228"
       height="47.244095"
       id="rect3812" />
    <rect
       x="-236.22047"
       y="141.73228"
       width="61.550629"
       height="26.75382"
       id="rect3872-8" />
    <rect
       x="-236.22047"
       y="141.73228"
       width="61.550629"
       height="26.75382"
       id="rect3872-8-7" />
    <rect
       x="-236.22047"
       y="141.73228"
       width="61.550629"
       height="26.75382"
       id="rect3872-8-8" />
    <rect
       x="-236.22047"
       y="141.73228"
       width="61.550629"
       height="26.75382"
       id="rect3872-8-4" />
    <rect
       x="-236.22047"
       y="141.73228"
       width="61.550629"
       height="26.75382"
       id="rect3872-8-44" />
    <rect
       x="-236.22047"
       y="141.73228"
       width="61.550629"
       height="26.75382"
       id="rect3872-8-448" />
    <rect
       x="-236.22047"
       y="141.73228"
       width="61.550629"
       height="26.75382"
       id="rect3872-8-5" />
    <rect
       x="-236.22047"
       y="141.73228"
       width="61.550629"
       height="26.75382"
       id="rect3872-8-0" />
    <rect
       x="-236.22047"
       y="141.73228"
       width="61.550629"
       height="26.75382"
       id="rect3872-8-53" />
    <rect
       x="-236.22047"
       y="141.73228"
       width="61.550629"
       height="26.75382"
       id="rect3872-8-53-0" />
    <rect
       x="-236.22047"
       y="141.73228"
       width="61.550629"
       height="26.75382"
       id="rect3872-8-53-2" />
    <rect
       x="-236.22047"
       y="141.73228"
       width="61.550629"
       height="26.75382"
       id="rect3872-8-53-1" />
    <rect
       x="-236.22047"
       y="141.73228"
       width="61.550629"
       height="26.75382"
       id="rect3872-8-53-5" />
    <rect
       x="-236.22047"
       y="141.73228"
       width="61.550629"
       height="26.75382"
       id="rect3872-8-53-9" />
    <rect
       x="-236.22047"
       y="141.73228"
       width="61.550629"
       height="26.75382"
       id="rect3872-8-53-3" />
    <rect
       x="-236.22047"
       y="141.73228"
       width="61.550629"
       height="26.75382"
       id="rect3872-8-53-27" />
    <rect
       x="-236.22047"
       y="141.73228"
       width="61.550629"
       height="26.75382"
       id="rect3872-8-53-57" />
  </defs>
  <g
     inkscape:label="Layer 1"
     inkscape:groupmode="layer"
     id="layer1">
    <text
       xml:space="preserve"
       transform="scale(0.26458333)"
       id="text3810"
       style="font-style:normal;font-weight:normal;font-size:40px;line-height:1.25;font-family:sans-serif;letter-spacing:0px;word-spacing:0px;white-space:pre;shape-inside:url(#rect3812);display:inline;fill:#000000;fill-opacity:1;stroke:none"><tspan
         x="141.73242"
         y="83.737353"
         id="tspan15330"><tspan
           dx="0 15.761719 29.277344 27.8125 16.835938 29.921875 31.015625 14.0625 38.90625 27.34375 27.929688 30.058594 16.835938 29.921875"
           id="tspan15328">tURING mACHINE</tspan></tspan></text>
    <g
       id="g14444"
       transform="rotate(-90,25,25)">
      <circle
         style="font-size:7.05556px;font-family:Myfont;-inkscape-font-specification:'Myfont, Normal';letter-spacing:0px;word-spacing:0px;fill:#000000;stroke:#000000;stroke-width:1"
         id="path3335"
         cx="-35"
         cy="37.5"
         r="3.4000001"
         transform="scale(-1,1)" />
      <circle
         style="font-size:7.05556px;font-family:Myfont;-inkscape-font-specification:'Myfont, Normal';letter-spacing:0px;word-spacing:0px;fill:#000000;stroke:#000000;stroke-width:1"
         id="path3335-5"
         cx="-15"
         cy="62.5"
         r="3.4000001"
         transform="scale(-1,1)" />
      <circle
         style="font-size:7.05556px;font-family:Myfont;-inkscape-font-specification:'Myfont, Normal';letter-spacing:0px;word-spacing:0px;fill:#000000;fill-opacity:1;stroke:#000000;stroke-width:1"
         id="path3335-9"
         cx="-35"
         cy="87.5"
         r="3.4000001"
         transform="scale(-1,1)" />
      <circle
         style="font-size:7.05556px;font-family:Myfont;-inkscape-font-specification:'Myfont, Normal';letter-spacing:0px;word-spacing:0px;fill:#000000;stroke:#000000;stroke-width:1"
         id="path3335-4"
         cx="-15"
         cy="112.5"
         r="3.4000001"
         transform="scale(-1,1)" />
      <circle
         style="font-size:7.05556px;font-family:Myfont;-inkscape-font-specification:'Myfont, Normal';letter-spacing:0px;word-spacing:0px;fill:#000000;fill-opacity:1;stroke:#000000;stroke-width:1"
         id="path3335-2"
         cx="-35"
         cy="137.5"
         r="3.4000001"
         transform="scale(-1,1)" />
      <circle
         style="display:inline;fill:#000000;fill-opacity:1;stroke:#000000;stroke-width:1.8375;stroke-dasharray:none"
         id="circle482"
         cx="-25"
         cy="175"
         r="7.5"
         transform="scale(-1,1)" />
      <path
         style="display:inline;fill:none;stroke:#000000;stroke-width:0.264583px;stroke-linecap:butt;stroke-linejoin:miter;stroke-opacity:1"
         d="m 35.17881,37.588744 -4.316206,2.429703 1.995844,6.323479 -6.216192,-2.103131 0.800796,3.806763 -6.821746,-2.246615 3.822821,7.1685 -6.253377,-2.121477 2.202391,6.444849 -4.401505,-0.03669 2.534568,3.677858 -3.347392,1.533836"
         id="path873"
         sodipodi:nodetypes="cccccccccccc" />
      <path
         style="display:inline;fill:none;stroke:#000000;stroke-width:0.264583px;stroke-linecap:butt;stroke-linejoin:miter;stroke-opacity:1"
         d="m 13.624475,61.946829 3.509716,1.453221 -1.9775,4.552524 3.85148,-1.250576 -1.446311,5.825213 5.452578,-2.45316 -0.79205,6.149145 5.462671,-3.570847 -3.246421,6.00588 7.953732,-2.759458 -3.895706,5.843558 3.408743,-0.324644 -1.947853,4.220348 3.666922,1.308796 v 0"
         id="path875"
         sodipodi:nodetypes="ccccccccccccccc" />
      <path
         style="display:inline;fill:none;stroke:#000000;stroke-width:0.264583px;stroke-linecap:butt;stroke-linejoin:miter;stroke-opacity:1"
         d="m 13.429574,62.756593 5.37385,-0.639477 -1.136247,3.571063 3.571062,-1.460889 -0.324641,5.194273 4.316563,-2.876814 -0.305806,6.592593 3.658789,-1.557614 -0.862872,4.744001 6.341331,-1.707892 -2.563723,5.703349 4.530413,1.357861 -3.98088,4.010035 3.246296,-0.02319 -1.864135,2.215622"
         id="path875-4"
         sodipodi:nodetypes="ccccccccccccccc" />
      <path
         style="display:inline;fill:none;stroke:#000000;stroke-width:0.264583px;stroke-linecap:butt;stroke-linejoin:miter;stroke-opacity:1"
         d="m 33.624475,87.1097 -4.507322,0.58148 -0.525783,4.1011 -4.617107,-1.22188 1.654792,4.69808 -5.790216,-0.68254 2.507923,4.121558 -4.913546,-0.0578 1.426809,5.090732 -4.216315,0.082 1.000651,3.92123 -2.949818,0.57512 0.929934,3.79092"
         id="path1062"
         sodipodi:nodetypes="ccccccccccccc" />
      <path
         style="display:inline;fill:none;stroke:#000000;stroke-width:0.264583px;stroke-linecap:butt;stroke-linejoin:miter;stroke-opacity:1"
         d="m 33.786368,136.77469 v 0 l 1.270759,-3.13694 -3.492497,-1.20216 2.024915,-4.86388 -4.159873,-1.18623 0.779953,-3.93042 -3.863444,1.81116 1.791553,-3.83567 -4.728367,0.17246 2.269819,-4.66957 -4.201961,-0.0466 0.071,-2.97589 -3.940165,1.82049 0.973829,-2.13298 -4.795525,-0.82372 3.443923,-1.03407 0.752953,-3.95283 5.545297,0.31483 -2.443919,-4.34652 5.950182,-1.26275 -1.655887,-3.421672 5.097276,-1.330785 -2.756542,-2.25108 5.229555,-1.12147 -2.049611,-2.279638 3.995006,-1.2211 -1.108229,-3.09297 -2.918367,1.84079 -1.24038,4.163258 -3.922226,-0.370618 2.24916,3.889908 -5.261287,0.15917 2.149961,3.502805 -4.914146,-0.15298 0.462132,5.336502 -3.553378,0.26649 0.251713,2.70785 -2.553828,1.14985 -0.749354,2.50698 -1.428104,3.17277 2.452549,0.10284 -1.98573,4.79703 3.183571,-1.30261 -1.440271,4.72925 4.217985,-1.49928 -0.833074,5.47632 3.953306,-1.40981 -0.633732,4.46481 3.545381,-1.81702 -0.350662,4.44445 4.253612,0.0773 -0.483424,2.74503 z"
         id="path1621"
         sodipodi:nodetypes="cccccccccccccccccccccccccccccccccccccccccccccccccccccc" />
      <path
         style="display:inline;fill:none;stroke:#000000;stroke-width:0.264583px;stroke-linecap:butt;stroke-linejoin:miter;stroke-opacity:1"
         d="m 34.112108,136.93755 -0.278149,-3.20581 -3.465864,-0.73236 0.857806,-5.2859 -3.408027,2.86421 1.259233,-5.56569 -4.768463,0.6541 1.34576,-2.74709 -3.995949,-0.58342 1.754559,-5.03145 -3.827625,0.35695 1.292719,-3.48384 -3.191923,1.93089 -0.693868,-2.78015 -2.880207,-1.39044 0.02728,2.47246 2.556132,0.65403 -1.369984,2.76543 2.754735,-0.82065 -0.136705,4.45626 2.551201,-1.34689 -0.71231,5.46827 3.278086,-1.9664 0.155921,3.65534 2.846701,-0.80861 0.59529,5.51828 2.727228,0.10932 0.510776,2.84376 z"
         id="path1623"
         sodipodi:nodetypes="ccccccccccccccccccccccccccccc" />
      <path
         style="display:inline;fill:none;fill-opacity:1;stroke:#000000;stroke-width:0.264583px;stroke-linecap:butt;stroke-linejoin:miter;stroke-opacity:1"
         d="m 35,137.5 -0.601558,5.11736 0.675136,3.22479 -1.842443,1.37017 2.354223,4.13441 -2.793335,0.77108 0.511767,2.87098 -2.964035,1.67187 1.971813,2.10543 -3.839616,2.40941 2.282353,1.78458 -1.848346,1.28525 0.870677,2.37582 -2.765472,1.55558 0.526424,2.09117 L 25,175 v 0"
         id="path1625"
         sodipodi:nodetypes="ccccccccccccccccc" />
      <path
         style="display:inline;fill:none;fill-opacity:1;stroke:#000000;stroke-width:0.264583px;stroke-linecap:butt;stroke-linejoin:miter;stroke-opacity:1"
         d="m 35,137.5 2.926631,3.98189 -1.65128,2.53916 2.02651,2.71644 -2.470404,1.37207 4.287985,3.98335 -5.38908,2.6483 2.951319,2.11494 -4.394465,0.70493 2.448043,4.20419 -3.020126,0.25447 1.470461,3.81112 -3.305226,-0.72067 1.364758,4.62256 -2.899783,-0.65957 0.917827,3.48108 L 25,175 l 3.34174,-3.33785 0.236163,-3.40203 2.196832,0.0744 -0.576051,-3.8809 2.06821,0.0789 -1.26465,-3.16368 2.652548,-1.2683 -1.659418,-2.82346 2.19476,-0.80694 -0.481348,-3.21592 3.473979,-1.37391 -3.068479,-3.92353 2.044975,-1.37809 -0.880674,-2.94414 1.10517,-1.33055 L 35,137.5"
         id="path1627"
         sodipodi:nodetypes="ccccccccccccccccccccccccccccccccc" />
      <path
         style="display:inline;fill:none;fill-opacity:1;stroke:#000000;stroke-width:0.264583px;stroke-linecap:butt;stroke-linejoin:miter;stroke-opacity:1"
         d="m 25,175 1.166546,-3.69832 -0.435326,-3.27538 2.419652,-1.79739 -1.448579,-2.81184 2.56646,-0.31696 -2.348356,-2.80208 2.876556,-1.05319 -0.174891,-3.99292 2.568802,-0.57976 -0.836138,-2.69614 1.910354,-1.49508 -1.320757,-3.36602 1.878667,-2.25441 -1.324011,-2.23687 L 35,137.5"
         id="path1629"
         sodipodi:nodetypes="cccccccccccccccc" />
      <path
         style="display:inline;fill:none;fill-opacity:1;stroke:#000000;stroke-width:0.264583px;stroke-linecap:butt;stroke-linejoin:miter;stroke-opacity:1"
         d="m 35,137.5 -3.954996,3.84102 1.754485,4.16759 -2.722387,0.96465 2.028487,3.80676 -2.325209,0.34499 1.633539,3.08621 -3.64991,-0.45806 0.681793,5.50564 -3.147776,0.0988 1.833205,3.36135 -2.583688,0.79789 2.295498,2.93821 -2.489697,1.59211 0.532654,3.2741 -1.249723,2.13463 L 25,175"
         id="path1631"
         sodipodi:nodetypes="ccccccccccccccccc" />
      <g
         aria-label="Volts"
         transform="matrix(0.26458333,0,0,0.26458333,-52.746582,-18.517854)"
         id="text3870"
         style="font-size:42.6667px;line-height:1.25;font-family:Myfont;-inkscape-font-specification:Myfont;letter-spacing:0px;word-spacing:0px;white-space:pre;shape-inside:url(#rect3873);fill:#000000;stroke:#000000">
        <path
           d="m 252.65067,101.34135 q 0,-0.512 -0.256,-1.15201 -0.256,-0.682663 -0.256,-1.023996 0,-0.384 -0.256,-0.554667 -0.256,-0.170667 -0.34133,-0.896001 -0.0853,-0.682667 -0.64,-1.322668 -0.512,-0.64 -0.512,-1.024 0,-0.341334 0.29866,-0.682667 0.42667,-0.512001 1.45067,-0.512001 0.512,0 0.64,0.213334 0.17067,0.256 0.46933,1.365334 1.70667,6.186672 1.83467,7.424002 0.21334,1.36534 0.512,1.36534 0.0427,0 0.0853,-0.0427 0.17066,-0.17067 0.17066,0.0853 0,0.17067 -0.17066,0.256 -0.128,0.0853 -0.128,0.51201 0,0.896 0.29866,1.28 0.128,0.128 0.512,3.24267 0.72534,6.272 1.28,6.82667 0.0427,0.0427 0.128,0.0427 0.34134,0 0.85334,-1.32266 0.55466,-1.32267 0.55466,-1.62134 0,-0.17067 0.34134,-0.68267 0.256,-0.384 0.768,-1.536 0.512,-1.152 0.512,-1.36533 0,-0.128 0.55467,-1.23734 0.55466,-1.06666 0.85333,-2.176 1.45067,-4.608 2.304,-6.31467 0.34134,-0.597332 1.10934,-4.650669 0.128,-0.682667 0.256,-0.938667 0.17066,-0.256 0.55466,-0.512 0.59734,-0.384001 0.81067,-0.384001 0.17067,0 0.384,0.213334 0.21333,0.213333 0.21333,0.682667 0,0.554667 -0.34133,1.237334 -0.256,0.426667 -0.72533,1.877335 -1.49334,5.120007 -2.432,7.466677 -0.512,1.28 -0.512,1.408 0,0.17066 -0.29867,0.81066 -0.256,0.64 -0.256,0.768 0,0.21334 -0.34134,0.81067 -0.34133,0.59734 -0.46933,1.06667 -0.29867,1.23733 -1.408,3.24267 -0.0853,0.17066 -0.768,2.00533 -0.64,1.792 -0.768,2.00534 -0.21333,0.29866 -0.34134,1.152 -0.29866,1.70667 -0.59733,2.09067 -0.256,0.34133 -1.32267,0.34133 -1.36533,0 -1.36533,-0.42667 0,-0.17066 0.21333,-0.384 0.29867,-0.34133 0.17067,-0.64 -0.0427,-0.21333 -0.21333,-1.32267 -0.128,-1.10933 -0.21334,-1.36533 -0.21333,-0.59733 -0.81066,-3.37067 -0.55467,-2.816 -0.81067,-4.65067 -0.0853,-0.64 -0.21334,-1.23733 -0.0853,-0.64 -0.21333,-1.36534 -0.128,-0.768 -0.21333,-1.19466 -0.0853,-0.55467 -0.29867,-1.02401 -0.17067,-0.512 -0.21333,-0.98133 -0.0427,-0.34133 -0.256,-0.81067 -0.17067,-0.46933 -0.17067,-1.06666 z"
           id="path13926"
           style="fill:#000000;stroke:#000000" />
        <path
           d="m 284.69333,109.87469 q 0.256,-0.81067 0.256,-1.92001 0,-1.57866 -0.55466,-2.77333 -0.55467,-1.19467 -1.536,-1.19467 -0.64,0 -1.32267,0.512 -0.0427,0.0427 -0.55467,0.42667 -0.512,0.384 -0.768,0.59733 -0.85333,0.72534 -1.024,0.72534 -0.21333,0 -0.21333,-0.64 0,-0.51201 -0.0853,-0.55467 -0.0427,-0.0853 -0.29866,0.0427 -0.68267,0.29867 -1.83467,2.13334 -1.152,1.83467 -1.536,3.2 -0.34134,0.98134 -0.55467,1.83467 -0.256,0.768 -0.256,1.62133 0,0.72534 0.0427,1.28001 0.0853,2.00533 0.21333,2.56 0.17067,0.512 0.68267,0.768 0.512,0.256 0.93866,0.256 0.72534,0 1.66401,-0.59734 2.13333,-1.23733 4.05333,-3.584 1.92,-2.38933 2.688,-4.69333 z M 278.72,102.79201 q 0.42666,-0.256 0.768,-0.256 0.384,0 0.81066,0.42667 l 0.34134,0.29867 0.93866,-0.384 q 0.81067,-0.34134 1.45067,-0.34134 h 0.256 q 0.72534,0.0427 1.024,0.256 0.34134,0.17067 0.93867,0.81067 0.68267,0.81067 0.896,1.57867 0.256,0.768 0.256,2.34667 0,1.792 -0.384,2.90133 -0.64,1.83467 -2.09067,3.84001 -2.85867,4.01066 -6.69867,5.84533 -0.768,0.384 -1.49333,0.384 -1.10934,0 -2.09067,-0.896 -1.024,-0.93866 -1.024,-3.54133 0,-1.96267 0.68267,-5.03467 0.46933,-1.96267 1.664,-3.92534 0.768,-1.28 1.92,-2.60267 1.19467,-1.36533 1.83467,-1.70667 z"
           id="path13928"
           style="fill:#000000;stroke:#000000" />
        <path
           d="m 292.4587,94.216007 q 0.42667,-0.213334 0.768,-0.213334 0.55467,0 0.55467,0.768001 0,0.469334 -0.0853,0.768001 -0.128,0.554667 -0.21333,6.997335 -0.0853,6.10134 -0.256,7.72268 -0.21333,1.62133 -0.21333,3.75466 0,2.77334 0.256,3.58401 0.256,0.85333 0.512,1.152 0.29866,0.256 0.85333,0.256 h 0.34133 q 0.93867,-0.0427 1.15201,0.29867 0.17066,0.256 0.0853,0.42666 -0.0427,0.17067 -0.46933,0.64 -0.64001,0.72534 -1.49334,0.98134 -0.72533,0.21333 -0.85333,0.21333 -0.21334,0 -0.59734,-0.256 -1.19466,-0.72533 -1.49333,-2.09067 -0.29867,-1.19467 -0.29867,-2.90133 0,-1.19467 0.21333,-4.05334 0.25601,-3.24267 0.34134,-9.81334 0.0853,-4.949337 0.21333,-6.442672 0.17067,-1.493334 0.68267,-1.792001 z"
           id="path13930"
           style="fill:#000000;stroke:#000000" />
        <path
           d="m 310.84806,115.84802 q 0.128,0 0.896,-0.896 0.768,-0.896 0.81067,-0.896 0.21333,0 0.46933,0.34134 0.256,0.29866 0.29867,0.59733 0.0427,0.0853 0.0427,0.256 0,0.384 -0.93867,1.19467 -0.98133,0.896 -2.00534,2.09066 -1.664,2.00534 -2.98666,2.00534 -0.98134,0 -1.57867,-1.23733 -0.34134,-0.81067 -0.34134,-2.38934 v -1.32267 q 0.0427,-2.26133 0.29867,-4.65067 0.256,-2.432 0.55467,-2.98667 0.128,-0.256 0.128,-0.42666 0,-0.29867 -0.384,-0.29867 -0.42667,0 -0.98134,0.17067 -0.72533,0.21333 -1.32266,0.512 -0.59734,0.256 -1.152,0.42666 -0.256,0.0853 -0.68267,0.0853 -0.93867,0 -0.93867,-1.10934 0,-0.384 0.0427,-0.59733 0.0427,-0.29867 0.256,-0.34133 0.21333,-0.0853 1.83467,-0.42667 3.54133,-0.768 3.84,-1.36534 0.0853,-0.21333 0.512,-2.09066 0.512,-2.43201 0.896,-3.79734 0.512,-2.048001 1.024,-2.474668 0.512,-0.384001 0.81067,-0.384001 0.29866,0 0.64,0.469334 0.256,0.426667 0.256,1.066668 0,0.810667 -0.46934,2.218668 -0.81066,2.218669 -0.81066,3.541339 0,0.21333 0.0427,0.29866 0.0853,0.21334 0.512,0.21334 0.76801,0 2.38934,-0.46934 1.36533,-0.384 2.09067,-0.384 0.68267,0 0.768,-0.17066 0.128,-0.17067 0.42667,-0.17067 0.55466,0 0.85333,0.384 0.256,0.29867 0.21333,0.384 0,0.0427 -0.29866,0.29867 -0.64,0.512 -4.65067,1.536 -1.96267,0.512 -2.60267,0.85333 -0.64,0.29867 -0.896,1.024 -0.55467,1.408 -0.81067,5.63201 -0.17067,2.38933 -0.29867,2.816 0,0.0427 -0.0427,0.128 0,0.0853 0,0.17067 0,1.45066 0.55466,2.09066 0.0853,0.128 0.256,0.128 0.55467,0 1.536,-1.19466 0.768,-0.85334 0.93867,-0.85334 z"
           id="path13932"
           style="fill:#000000;stroke:#000000" />
        <path
           d="m 335.89337,106.63202 q 0,-0.42667 -0.17066,-0.68267 -0.128,-0.256 -0.128,-0.64 0,-0.64 -0.256,-0.98134 -0.21334,-0.256 -0.29867,-0.256 -0.0427,-0.0427 -0.29867,0.128 -0.55466,0.34134 -1.024,0.384 -1.28,0.256 -3.02933,1.40801 -1.70667,1.152 -2.048,2.00533 -0.21334,0.512 -0.21334,1.024 0,0.93867 0.42667,1.36534 1.792,1.92 3.2,3.66933 0.98134,1.23734 0.98134,2.34667 0,1.49333 -1.57867,3.24267 -0.768,0.85333 -1.96267,1.28 -1.19467,0.42667 -2.09067,0.42667 h -0.98133 q -2.56,-0.0427 -3.96801,-1.06667 -0.46933,-0.34133 -0.46933,-0.81067 0,-0.46933 0.42667,-0.768 0.42667,-0.29867 0.59733,-0.29867 0.21334,0 0.512,0.29867 1.06667,1.152 2.816,1.152 0.93867,0 0.93867,0.17067 0,0.0853 0.128,0.0853 0.46934,0 1.32267,-0.46933 0.98133,-0.46933 1.57867,-1.23734 0.64,-0.81066 0.64,-1.57866 0,-0.768 -0.68267,-1.83467 -0.64,-1.10934 -1.664,-2.048 -1.10933,-1.024 -1.57867,-2.13334 -0.21333,-0.42666 -0.384,-0.42666 -0.0853,0 -0.0853,-0.512 0,-1.23734 0.29866,-2.00534 0.21334,-0.512 0.76801,-1.36533 0.59733,-0.896 0.768,-0.896 0.0427,0 0.85333,-0.64001 0.59733,-0.512 2.21867,-1.32266 1.62133,-0.85334 2.51733,-1.152 0.768,-0.256 1.83467,-0.256 0.59734,0 0.59734,0.128 0,0.0853 0.29866,0.256 0.59734,0.17066 0.59734,1.62133 v 0.59733 q -0.17067,2.34667 -1.23734,2.34667 -0.17067,0 -0.17067,-0.55466 z"
           id="path13934"
           style="fill:#000000;stroke:#000000" />
      </g>
      <g
         aria-label="Out"
         transform="matrix(0.26458333,0,0,0.26458333,-4.8507159,-21.17584)"
         id="text3877"
         style="font-size:26.6667px;line-height:1.25;font-family:Myfont;-inkscape-font-specification:'Myfont, Normal';letter-spacing:0px;word-spacing:0px;white-space:pre;shape-inside:url(#rect3879);fill:#000000;stroke:#000000">
        <path
           d="m 104.08829,781.81608 q -1.06666,-0.21334 -1.73333,-0.21334 -0.0533,0 -0.13334,0 l -0.0533,0.0267 q -0.10667,0.0533 -0.58667,0.10667 -0.48,0.10666 -1.04,0.61333 -0.639999,0.53333 -0.666665,0.56 -0.16,0.0533 -0.720001,0.90667 -0.560001,0.82667 -0.826668,1.41333 -1.013335,2.16001 -1.173335,4.93334 0,0.13334 -0.02667,0.4 0,0.26667 0,0.37334 0,2.02667 0.64,2.96 0.266667,0.37334 0.320001,0.72 0.106667,0.34667 0.560001,0.74667 0.506667,0.42667 1.226668,0.42667 0.746669,0 1.813339,-0.45334 0.98667,-0.37333 2.10667,-1.54666 1.06667,-1.06667 1.44,-1.65334 0.32,-0.50667 0.56,-0.74667 0.26667,-0.29333 0.88,-1.54667 0.61334,-1.25333 0.82667,-1.97333 0.48,-1.46667 0.48,-2.48001 0,-1.22666 -0.82667,-2.13333 -0.58666,-0.61334 -1.17333,-0.88 -0.56,-0.29334 -1.89334,-0.56 z m -2.42667,-1.46667 q 0.61334,-0.34667 0.90667,-0.34667 0.16,0 1.01334,0.13333 1.54666,0.24 2,0.85334 0.08,0.13333 0.93333,0.45333 1.09334,0.42667 1.78667,1.41334 0.69334,0.96 0.69334,2.29333 0,0.53334 -0.0533,0.80001 -0.4,2.05333 -0.74666,2.82667 -0.10667,0.26666 -0.32001,0.69333 -0.21333,0.42667 -0.24,0.50667 -0.64,1.44 -2.37333,3.62667 -1.70667,2.16 -2.37334,2.34667 -0.34667,0.10666 -0.69333,0.34666 -0.93334,0.66667 -1.76,0.66667 -0.13334,0 -0.16,-0.0267 -0.08,-0.0533 -0.373339,-0.0533 -0.133333,0 -0.48,0.0267 -0.346667,0.0267 -0.506667,0.0267 -0.213334,0 -0.373334,-0.0533 -0.320001,-0.13333 -1.066668,-0.8 -0.746668,-0.66667 -0.746668,-0.8 0,-0.13333 -0.4,-1.12 -0.266667,-0.66667 -0.346668,-1.06667 -0.05333,-0.42667 -0.05333,-1.46667 0,-1.76 0.213334,-3.57334 0.05333,-0.77333 0.186667,-0.90666 0.106666,-0.16 0.24,-0.85334 0.16,-0.82667 1.466668,-2.96 0.533334,-0.88 1.280002,-1.49334 0.746663,-0.61333 2.346663,-1.49333 z"
           id="path13937"
           style="fill:#000000;stroke:#000000" />
        <path
           d="m 118.64831,786.02942 q 0.18666,-0.32001 0.72,-0.32001 0.32,0 0.50666,0.16001 0.0267,0.0267 0.0267,0.29333 0,0.50667 -0.0533,0.88 -0.32,2.74667 -0.42667,4.37334 -0.0267,0.34667 -0.08,0.88 -0.0267,0.50667 -0.0533,0.77333 -0.0267,0.24 -0.0267,0.26667 -0.10667,0.29333 -0.10667,1.12 0,1.52 0.34667,1.52 0.13333,0 0.24,0.24 0.10667,0.21334 0.10667,0.45334 0,0.18667 -0.42667,0.45333 -0.42667,0.26667 -0.72,0.26667 -0.24,0 -0.42667,-0.18667 -0.16,-0.16 -0.29333,-1.01333 -0.13333,-0.88 -0.13333,-1.68 0,-0.08 0,-0.24 0.0267,-0.16 0.0267,-0.21334 0.0267,-0.26666 0.0267,-0.58667 0,-0.24 -0.10667,-0.24 -0.18666,0 -0.48,0.58667 -0.77333,1.30667 -1.78667,2.34667 -0.58666,0.61334 -0.85333,0.77334 -0.26667,0.13333 -0.90667,0.21333 -0.48,0.0533 -0.77333,-0.18667 -0.58667,-0.50666 -0.82667,-1.54667 -0.21334,-1.06666 -0.21334,-3.28 0,-4.29334 0.61334,-5.62667 0.18667,-0.42667 0.32,-0.42667 0.21333,0 0.26667,1.41333 0,0.88 -0.10667,0.93334 -0.08,0.08 -0.08,2.48 0,3.46667 0.56,4.64001 0.16,0.34666 0.24,0.45333 0.10667,0.08 0.29333,0.08 0.24,0 0.72001,-0.37333 0.48,-0.37334 0.74666,-0.74667 0.0533,-0.08 0.29334,-0.4 0.24,-0.34667 0.37333,-0.53333 1.62667,-2.29334 2,-3.97334 0.10667,-0.56 0.24,-2.18667 0.08,-1.6 0.21334,-1.84 z"
           id="path13939"
           style="fill:#000000;stroke:#000000" />
        <path
           d="m 126.03496,781.84274 q 0.18667,-0.13333 0.26667,-0.10666 0.08,0.0267 0.34667,0.26666 l 0.32,0.29334 -0.18667,0.66666 q -0.08,0.26667 -0.37333,1.62667 -0.26667,1.36001 -0.34667,1.62667 0,0.0267 -0.0267,0.08 0,0.29334 0.72001,0.29334 0.24,0 0.37333,-0.0267 0.16,-0.0267 0.48,-0.0267 0.88,0 0.88,0.32 0,0.13334 -0.13333,0.26667 -0.16,0.16 -1.2,0.37333 -1.01334,0.21334 -1.28001,0.34667 -0.37333,0.21333 -0.69333,1.17334 -0.13333,0.45333 -0.37333,1.38666 -0.21334,0.93334 -0.42667,1.52001 -0.16,0.61333 -0.16,1.01333 0,0.32 0.0267,0.53333 0.08,0.82667 0.45333,1.22667 0.77333,0.82667 2.24,0.82667 0.45334,0 0.61334,-0.0533 0.18666,-0.08 0.56,-0.42667 0.56,-0.48 0.82666,-1.09333 0.24001,-0.58667 0.45334,-0.58667 0.21333,0 0.29333,0.50667 0,0.0267 0,0.10666 0.0267,0.0533 0.0267,0.10667 0,1.04 -0.93334,1.78667 -0.13333,0.10666 -0.4,0.34666 -0.26666,0.24001 -0.48,0.37334 -0.18666,0.13333 -0.42666,0.21333 -0.32,0.13334 -0.32,0.21334 0,0.08 -0.4,0.08 -0.56001,0 -0.74667,-0.10667 -0.13334,-0.10667 -0.72,-0.24 -0.58667,-0.16 -0.8,-0.4 -0.32,-0.29334 -0.58667,-0.42667 -0.66667,-0.29333 -0.98667,-1.65333 -0.0267,-0.0533 -0.0267,-0.26667 0,-1.04 0.56,-2.93334 0.0533,-0.18667 0.16,-0.56 0.10667,-0.37333 0.13334,-0.45333 0.08,-0.37334 0.21333,-0.42667 0.10667,-0.0267 0.10667,-0.37333 0,-0.24 -0.08,-0.29334 -0.0533,-0.0533 -0.45334,-0.0533 -0.8,0 -0.8,-0.42667 0,-0.13333 0.0267,-0.18667 0.16,-0.66666 1.09334,-1.01333 0.61333,-0.21333 0.77333,-0.42667 0.18667,-0.21333 0.32,-0.96 0.34667,-1.78667 0.64,-2.90667 0.29333,-1.04 0.45333,-1.14667 z"
           id="path13941"
           style="fill:#000000;stroke:#000000" />
      </g>
    </g>
  </g>
</svg>
