<?xml version="1.0" encoding="UTF-8" standalone="no"?>
<!-- Created with Inkscape (http://www.inkscape.org/) -->

<svg
   width="200mm"
   height="50mm"
   viewBox="0 0 200 50"
   version="1.1"
   id="svg5"
   inkscape:version="1.2 (dc2aedaf03, 2022-05-15)"
   sodipodi:docname="VoltsPanelGraphicsHorizontal.svg"
   inkscape:export-filename="TuringPanelGraphics.png"
   inkscape:export-xdpi="100"
   inkscape:export-ydpi="100"
   xmlns:inkscape="http://www.inkscape.org/namespaces/inkscape"
   xmlns:sodipodi="http://sodipodi.sourceforge.net/DTD/sodipodi-0.dtd"
   xmlns="http://www.w3.org/2000/svg"
   xmlns:svg="http://www.w3.org/2000/svg">
  <sodipodi:namedview
     id="namedview7"
     pagecolor="#ffffff"
     bordercolor="#666666"
     borderopacity="1.0"
     inkscape:pageshadow="2"
     inkscape:pageopacity="0.0"
     inkscape:pagecheckerboard="0"
     inkscape:document-units="mm"
     showgrid="true"
     showguides="true"
     inkscape:zoom="1.0729879"
     inkscape:cx="224.60644"
     inkscape:cy="249.76982"
     inkscape:window-width="1920"
     inkscape:window-height="1017"
     inkscape:window-x="-8"
     inkscape:window-y="-8"
     inkscape:window-maximized="1"
     inkscape:current-layer="layer1"
     inkscape:showpageshadow="2"
     inkscape:deskcolor="#d1d1d1">
    <sodipodi:guide
       position="0,50.000001"
       orientation="0,377.95276"
       id="guide824"
       inkscape:locked="false" />
    <sodipodi:guide
       position="50,-50"
       orientation="755.90551,0"
       id="guide826"
       inkscape:locked="false" />
    <sodipodi:guide
       position="99.999999,-150"
       orientation="0,-377.95276"
       id="guide828"
       inkscape:locked="false" />
    <sodipodi:guide
       position="0,-150"
       orientation="-755.90551,0"
       id="guide830"
       inkscape:locked="false" />
    <inkscape:grid
       type="xygrid"
       id="grid832"
       dotted="true"
       units="mm"
       spacingx="12.5"
       spacingy="12.5"
       empspacing="10"
       originx="0"
       originy="0" />
    <sodipodi:guide
       position="185,25"
       orientation="0,-1"
       id="guide454"
       inkscape:locked="false" />
    <sodipodi:guide
       position="25,85.000001"
       orientation="1,0"
       id="guide456"
       inkscape:locked="false" />
    <sodipodi:guide
       position="15,40.000001"
       orientation="1,0"
       id="guide458"
       inkscape:locked="false" />
    <sodipodi:guide
       position="50,-125"
       orientation="0,-1"
       id="guide460"
       inkscape:locked="false" />
    <sodipodi:guide
       position="50,-99.999999"
       orientation="0,-1"
       id="guide462"
       inkscape:locked="false" />
    <sodipodi:guide
       position="35,35.000001"
       orientation="1,0"
       id="guide464"
       inkscape:locked="false" />
    <sodipodi:guide
       position="62.5,-75"
       orientation="1,0"
       id="guide466"
       inkscape:locked="false" />
    <sodipodi:guide
       position="-200,1.1444091e-06"
       orientation="0,-1"
       id="guide5561"
       inkscape:locked="false" />
    <sodipodi:guide
       position="-67.074639,-135.07632"
       orientation="0,-1"
       id="guide540"
       inkscape:locked="false" />
    <sodipodi:guide
       position="-9.9999999,-110"
       orientation="0,-1"
       id="guide1017"
       inkscape:locked="false" />
    <sodipodi:guide
       position="-207.9625,-24.877079"
       orientation="0,-1"
       id="guide691"
       inkscape:locked="false" />
    <sodipodi:guide
       position="-200,-50"
       orientation="0,-1"
       id="guide693"
       inkscape:locked="false" />
    <sodipodi:guide
       position="-200,-75"
       orientation="0,-1"
       id="guide695"
       inkscape:locked="false" />
    <sodipodi:guide
       position="175,69.999999"
       orientation="1,0"
       id="guide3590"
       inkscape:locked="false" />
  </sodipodi:namedview>
  <defs
     id="defs2">
    <rect
       x="-236.22047"
       y="141.73228"
       width="330.70865"
       height="47.244099"
       id="rect3872" />
    <rect
       x="141.73228"
       y="0"
       width="141.73228"
       height="47.244095"
       id="rect3812" />
    <rect
       x="-236.22047"
       y="141.73228"
       width="61.550629"
       height="26.75382"
       id="rect3872-8" />
    <rect
       x="-236.22047"
       y="141.73228"
       width="61.550629"
       height="26.75382"
       id="rect3872-8-7" />
    <rect
       x="-236.22047"
       y="141.73228"
       width="61.550629"
       height="26.75382"
       id="rect3872-8-8" />
    <rect
       x="-236.22047"
       y="141.73228"
       width="61.550629"
       height="26.75382"
       id="rect3872-8-4" />
    <rect
       x="-236.22047"
       y="141.73228"
       width="61.550629"
       height="26.75382"
       id="rect3872-8-44" />
    <rect
       x="-236.22047"
       y="141.73228"
       width="61.550629"
       height="26.75382"
       id="rect3872-8-448" />
    <rect
       x="-236.22047"
       y="141.73228"
       width="61.550629"
       height="26.75382"
       id="rect3872-8-5" />
    <rect
       x="-236.22047"
       y="141.73228"
       width="61.550629"
       height="26.75382"
       id="rect3872-8-0" />
    <rect
       x="-236.22047"
       y="141.73228"
       width="61.550629"
       height="26.75382"
       id="rect3872-8-53" />
    <rect
       x="-236.22047"
       y="141.73228"
       width="61.550629"
       height="26.75382"
       id="rect3872-8-53-0" />
    <rect
       x="-236.22047"
       y="141.73228"
       width="61.550629"
       height="26.75382"
       id="rect3872-8-53-2" />
    <rect
       x="-236.22047"
       y="141.73228"
       width="61.550629"
       height="26.75382"
       id="rect3872-8-53-1" />
    <rect
       x="-236.22047"
       y="141.73228"
       width="61.550629"
       height="26.75382"
       id="rect3872-8-53-5" />
    <rect
       x="-236.22047"
       y="141.73228"
       width="61.550629"
       height="26.75382"
       id="rect3872-8-53-9" />
    <rect
       x="-236.22047"
       y="141.73228"
       width="61.550629"
       height="26.75382"
       id="rect3872-8-53-3" />
    <rect
       x="-236.22047"
       y="141.73228"
       width="61.550629"
       height="26.75382"
       id="rect3872-8-53-27" />
    <rect
       x="-236.22047"
       y="141.73228"
       width="61.550629"
       height="26.75382"
       id="rect3872-8-53-57" />
  </defs>
  <g
     inkscape:label="Layer 1"
     inkscape:groupmode="layer"
     id="layer1">
    <text
       xml:space="preserve"
       transform="scale(0.26458333)"
       id="text3810"
       style="font-style:normal;font-weight:normal;font-size:40px;line-height:1.25;font-family:sans-serif;letter-spacing:0px;word-spacing:0px;white-space:pre;shape-inside:url(#rect3812);display:inline;fill:#000000;fill-opacity:1;stroke:none"><tspan
         x="141.73242"
         y="83.737353"
         id="tspan3929"><tspan
           dx="0 15.761719 29.277344 27.8125 16.835938 29.921875 31.015625 14.0625 38.90625 27.34375 27.929688 30.058594 16.835938 29.921875"
           id="tspan3927">tURING mACHINE</tspan></tspan></text>
    <g
       id="g3853">
      <g
         aria-label="Out"
         transform="matrix(0,-0.26458333,0.26458333,0,145.35167,-33.95498)"
         id="text3870-7-3"
         style="font-size:16px;line-height:1.25;font-family:Myfont;-inkscape-font-specification:'Myfont, Normal';letter-spacing:0px;word-spacing:0px;white-space:pre;shape-inside:url(#rect3872-8-4);display:inline;fill:none;stroke:#000000">
        <path
           d="m -230.4607,145.94042 q -0.64,-0.128 -1.04,-0.128 -0.032,0 -0.08,0 l -0.032,0.016 q -0.064,0.032 -0.352,0.064 -0.288,0.064 -0.624,0.368 -0.384,0.32 -0.4,0.336 -0.096,0.032 -0.432,0.544 -0.336,0.496 -0.496,0.848 -0.608,1.296 -0.704,2.96 0,0.08 -0.016,0.24 0,0.16 0,0.224 0,1.216 0.384,1.776 0.16,0.224 0.192,0.432 0.064,0.208 0.336,0.448 0.304,0.256 0.736,0.256 0.448,0 1.088,-0.272 0.592,-0.224 1.264,-0.928 0.64,-0.64 0.864,-0.992 0.192,-0.304 0.336,-0.448 0.16,-0.176 0.528,-0.928 0.368,-0.752 0.496,-1.184 0.288,-0.88 0.288,-1.488 0,-0.736 -0.496,-1.28 -0.352,-0.368 -0.704,-0.528 -0.336,-0.176 -1.136,-0.336 z m -1.456,-0.88 q 0.368,-0.208 0.544,-0.208 0.096,0 0.608,0.08 0.928,0.144 1.2,0.512 0.048,0.08 0.56,0.272 0.656,0.256 1.072,0.848 0.416,0.576 0.416,1.376 0,0.32 -0.032,0.48 -0.24,1.232 -0.448,1.696 -0.064,0.16 -0.192,0.416 -0.128,0.256 -0.144,0.304 -0.384,0.864 -1.424,2.176 -1.024,1.296 -1.424,1.408 -0.208,0.064 -0.416,0.208 -0.56,0.4 -1.056,0.4 -0.08,0 -0.096,-0.016 -0.048,-0.032 -0.224,-0.032 -0.08,0 -0.288,0.016 -0.208,0.016 -0.304,0.016 -0.128,0 -0.224,-0.032 -0.192,-0.08 -0.64,-0.48 -0.448,-0.4 -0.448,-0.48 0,-0.08 -0.24,-0.672 -0.16,-0.4 -0.208,-0.64 -0.032,-0.256 -0.032,-0.88 0,-1.056 0.128,-2.144 0.032,-0.464 0.112,-0.544 0.064,-0.096 0.144,-0.512 0.096,-0.496 0.88,-1.776 0.32,-0.528 0.768,-0.896 0.448,-0.368 1.408,-0.896 z"
           id="path5102"
           style="fill:none;stroke:#000000" />
        <path
           d="m -221.72471,148.46842 q 0.112,-0.192 0.432,-0.192 0.192,0 0.304,0.096 0.016,0.016 0.016,0.176 0,0.304 -0.032,0.528 -0.192,1.648 -0.256,2.624 -0.016,0.208 -0.048,0.528 -0.016,0.304 -0.032,0.464 -0.016,0.144 -0.016,0.16 -0.064,0.176 -0.064,0.672 0,0.912 0.208,0.912 0.08,0 0.144,0.144 0.064,0.128 0.064,0.272 0,0.112 -0.256,0.272 -0.256,0.16 -0.432,0.16 -0.144,0 -0.256,-0.112 -0.096,-0.096 -0.176,-0.608 -0.08,-0.528 -0.08,-1.008 0,-0.048 0,-0.144 0.016,-0.096 0.016,-0.128 0.016,-0.16 0.016,-0.352 0,-0.144 -0.064,-0.144 -0.112,0 -0.288,0.352 -0.464,0.784 -1.072,1.408 -0.352,0.368 -0.512,0.464 -0.16,0.08 -0.544,0.128 -0.288,0.032 -0.464,-0.112 -0.352,-0.304 -0.496,-0.928 -0.128,-0.64 -0.128,-1.968 0,-2.576 0.368,-3.376 0.112,-0.256 0.192,-0.256 0.128,0 0.16,0.848 0,0.528 -0.064,0.56 -0.048,0.048 -0.048,1.488 0,2.08 0.336,2.784 0.096,0.208 0.144,0.272 0.064,0.048 0.176,0.048 0.144,0 0.432,-0.224 0.288,-0.224 0.448,-0.448 0.032,-0.048 0.176,-0.24 0.144,-0.208 0.224,-0.32 0.976,-1.376 1.2,-2.384 0.064,-0.336 0.144,-1.312 0.048,-0.96 0.128,-1.104 z"
           id="path5104"
           style="fill:none;stroke:#000000" />
        <path
           d="m -217.29272,145.95642 q 0.112,-0.08 0.16,-0.064 0.048,0.016 0.208,0.16 l 0.192,0.176 -0.112,0.4 q -0.048,0.16 -0.224,0.976 -0.16,0.816 -0.208,0.976 0,0.016 -0.016,0.048 0,0.176 0.432,0.176 0.144,0 0.224,-0.016 0.096,-0.016 0.288,-0.016 0.528,0 0.528,0.192 0,0.08 -0.08,0.16 -0.096,0.096 -0.72,0.224 -0.608,0.128 -0.768,0.208 -0.224,0.128 -0.416,0.704 -0.08,0.272 -0.224,0.832 -0.128,0.56 -0.256,0.912 -0.096,0.368 -0.096,0.608 0,0.192 0.016,0.32 0.048,0.496 0.272,0.736 0.464,0.496 1.344,0.496 0.272,0 0.368,-0.032 0.112,-0.048 0.336,-0.256 0.336,-0.288 0.496,-0.656 0.144,-0.352 0.272,-0.352 0.128,0 0.176,0.304 0,0.016 0,0.064 0.016,0.032 0.016,0.064 0,0.624 -0.56,1.072 -0.08,0.064 -0.24,0.208 -0.16,0.144 -0.288,0.224 -0.112,0.08 -0.256,0.128 -0.192,0.08 -0.192,0.128 0,0.048 -0.24,0.048 -0.336,0 -0.448,-0.064 -0.08,-0.064 -0.432,-0.144 -0.352,-0.096 -0.48,-0.24 -0.192,-0.176 -0.352,-0.256 -0.4,-0.176 -0.592,-0.992 -0.016,-0.032 -0.016,-0.16 0,-0.624 0.336,-1.76 0.032,-0.112 0.096,-0.336 0.064,-0.224 0.08,-0.272 0.048,-0.224 0.128,-0.256 0.064,-0.016 0.064,-0.224 0,-0.144 -0.048,-0.176 -0.032,-0.032 -0.272,-0.032 -0.48,0 -0.48,-0.256 0,-0.08 0.016,-0.112 0.096,-0.4 0.656,-0.608 0.368,-0.128 0.464,-0.256 0.112,-0.128 0.192,-0.576 0.208,-1.072 0.384,-1.744 0.176,-0.624 0.272,-0.688 z"
           id="path5106"
           style="fill:none;stroke:#000000" />
      </g>
      <path
         d="m 11.325547,31.54806 q -0.08467,0 -0.1905,0.04233 -0.112889,0.04233 -0.169333,0.04233 -0.0635,0 -0.09172,0.04233 -0.02822,0.04233 -0.148167,0.05644 -0.112889,0.01411 -0.218722,0.105834 -0.105834,0.08467 -0.169334,0.08467 -0.05644,0 -0.112889,-0.04939 -0.08467,-0.07055 -0.08467,-0.239889 0,-0.08467 0.03528,-0.105833 0.04233,-0.02822 0.225778,-0.07761 1.023056,-0.282223 1.227668,-0.303389 0.225777,-0.03528 0.225777,-0.08467 0,-0.0071 -0.0071,-0.01411 -0.02822,-0.02822 0.01411,-0.02822 0.02822,0 0.04233,0.02822 0.01411,0.02117 0.08467,0.02117 0.148167,0 0.211667,-0.04939 0.02117,-0.02117 0.536223,-0.08467 1.037167,-0.119945 1.128889,-0.211667 0.0071,-0.0071 0.0071,-0.02117 0,-0.05645 -0.218723,-0.141112 -0.218722,-0.09172 -0.268111,-0.09172 -0.02822,0 -0.112889,-0.05644 -0.0635,-0.04233 -0.254,-0.127001 -0.1905,-0.08467 -0.225778,-0.08467 -0.02117,0 -0.204611,-0.09172 -0.176389,-0.09172 -0.359834,-0.141111 -0.762,-0.239889 -1.044223,-0.381 -0.09878,-0.05644 -0.769056,-0.183445 -0.112889,-0.02117 -0.155222,-0.04233 -0.04233,-0.02822 -0.08467,-0.09172 -0.0635,-0.09878 -0.0635,-0.134056 0,-0.02822 0.03528,-0.0635 0.03528,-0.03528 0.112889,-0.03528 0.09172,0 0.204611,0.05645 0.07056,0.04233 0.310445,0.119944 0.846667,0.246945 1.234723,0.402167 0.211667,0.08467 0.232833,0.08467 0.02822,0 0.134056,0.04939 0.105833,0.04233 0.127,0.04233 0.03528,0 0.134056,0.05645 0.09878,0.05644 0.176389,0.07761 0.204611,0.04939 0.536222,0.232833 0.02822,0.01411 0.331612,0.127 0.296333,0.105834 0.331611,0.127001 0.04939,0.03528 0.1905,0.05644 0.282222,0.04939 0.345722,0.09878 0.05645,0.04233 0.05645,0.218722 0,0.225778 -0.07056,0.225778 -0.02822,0 -0.0635,-0.03528 -0.05644,-0.04939 -0.105833,-0.02822 -0.03528,0.0071 -0.218722,0.03528 -0.183445,0.02117 -0.225778,0.03528 -0.09878,0.03528 -0.55739,0.134055 -0.465667,0.09172 -0.769056,0.134056 -0.105833,0.01411 -0.204611,0.03528 -0.105833,0.01411 -0.225778,0.03528 -0.127,0.02117 -0.197556,0.03528 -0.09172,0.01411 -0.169333,0.04939 -0.08467,0.02822 -0.162278,0.03528 -0.05644,0.0071 -0.134056,0.04233 -0.07761,0.02822 -0.176389,0.02822 z"
         id="path3262"
         style="font-size:7.05556px;font-family:Myfont;-inkscape-font-specification:'Myfont, Normal';letter-spacing:0px;word-spacing:0px;fill:none;stroke:#000000;stroke-width:0.264583" />
      <path
         d="m 12.73666,26.249339 q -0.134056,-0.04233 -0.317501,-0.04233 -0.261055,0 -0.458611,0.09172 -0.197556,0.09172 -0.197556,0.254001 0,0.105833 0.08467,0.218722 0.0071,0.0071 0.07056,0.09172 0.0635,0.08467 0.09878,0.127 0.119945,0.141112 0.119945,0.169334 0,0.03528 -0.105834,0.03528 -0.08467,0 -0.09172,0.01411 -0.01411,0.0071 0.0071,0.04939 0.04939,0.112889 0.352778,0.303389 0.303389,0.1905 0.529167,0.254 0.162278,0.05644 0.303389,0.09172 0.127,0.04233 0.268111,0.04233 0.119945,0 0.211667,-0.0071 0.331611,-0.01411 0.423334,-0.03528 0.08467,-0.02822 0.127,-0.112889 0.04233,-0.08467 0.04233,-0.155222 0,-0.119945 -0.09878,-0.275167 -0.204611,-0.352778 -0.592667,-0.670278 -0.395111,-0.3175 -0.776111,-0.4445 z m -1.171223,0.987778 q -0.04233,-0.07056 -0.04233,-0.127 0,-0.0635 0.07056,-0.134056 l 0.04939,-0.05644 -0.0635,-0.155223 q -0.05645,-0.134055 -0.05645,-0.239889 v -0.04233 q 0.0071,-0.119945 0.04233,-0.169333 0.02822,-0.05645 0.134055,-0.155223 0.134056,-0.112889 0.261056,-0.148167 0.127,-0.04233 0.388056,-0.04233 0.296333,0 0.479778,0.0635 0.303389,0.105834 0.635,0.345723 0.663223,0.472722 0.966612,1.107723 0.0635,0.127 0.0635,0.246944 0,0.183445 -0.148167,0.345723 -0.155222,0.169333 -0.585611,0.169333 -0.324556,0 -0.832556,-0.112889 -0.324556,-0.07761 -0.649112,-0.275167 -0.211667,-0.127 -0.430389,-0.3175 -0.225778,-0.197556 -0.282222,-0.303389 z"
         id="path3264"
         style="font-size:7.05556px;font-family:Myfont;-inkscape-font-specification:'Myfont, Normal';letter-spacing:0px;word-spacing:0px;fill:none;stroke:#000000;stroke-width:0.264583" />
      <path
         d="m 10.147269,24.965223 q -0.03528,-0.07056 -0.03528,-0.127001 0,-0.09172 0.127,-0.09172 0.07761,0 0.127,0.01411 0.09172,0.02117 1.157112,0.03528 1.008945,0.01411 1.277057,0.04233 0.268111,0.03528 0.620889,0.03528 0.458611,0 0.592667,-0.04233 0.141111,-0.04233 0.1905,-0.08467 0.04233,-0.04939 0.04233,-0.141111 v -0.05645 q -0.0071,-0.155222 0.04939,-0.1905 0.04233,-0.02822 0.07056,-0.01411 0.02822,0.0071 0.105833,0.07761 0.119945,0.105834 0.162278,0.246945 0.03528,0.119945 0.03528,0.141111 0,0.03528 -0.04233,0.09878 -0.119945,0.197556 -0.345723,0.246945 -0.197556,0.04939 -0.479778,0.04939 -0.197556,0 -0.670278,-0.03528 -0.536223,-0.04233 -1.622779,-0.05645 -0.818445,-0.01411 -1.06539,-0.03528 -0.246944,-0.02822 -0.296333,-0.112888 z"
         id="path3266"
         style="font-size:7.05556px;font-family:Myfont;-inkscape-font-specification:'Myfont, Normal';letter-spacing:0px;word-spacing:0px;fill:none;stroke:#000000;stroke-width:0.264583" />
      <path
         d="m 13.724438,21.924273 q 0,-0.02117 -0.148167,-0.148166 -0.148167,-0.127001 -0.148167,-0.134056 0,-0.03528 0.05645,-0.07761 0.04939,-0.04233 0.09878,-0.04939 0.01411,-0.0071 0.04233,-0.0071 0.0635,0 0.197556,0.155223 0.148167,0.162277 0.345722,0.331611 0.331612,0.275167 0.331612,0.493889 0,0.162278 -0.204612,0.261056 -0.134055,0.05644 -0.395111,0.05644 h -0.218722 q -0.373945,-0.0071 -0.769056,-0.04939 -0.402167,-0.04233 -0.49389,-0.09172 -0.04233,-0.02117 -0.07056,-0.02117 -0.04939,0 -0.04939,0.0635 0,0.07056 0.02822,0.162278 0.03528,0.119945 0.08467,0.218723 0.04233,0.09878 0.07056,0.1905 0.01411,0.04233 0.01411,0.112889 0,0.155222 -0.183444,0.155222 -0.0635,0 -0.09878,-0.0071 -0.04939,-0.0071 -0.05644,-0.04233 -0.01411,-0.03528 -0.07056,-0.303389 -0.127,-0.585611 -0.225778,-0.635 -0.03528,-0.01411 -0.345722,-0.08467 -0.402167,-0.08467 -0.627945,-0.148167 -0.338667,-0.08467 -0.409223,-0.169333 -0.0635,-0.08467 -0.0635,-0.134056 0,-0.04939 0.07761,-0.105833 0.07056,-0.04233 0.176389,-0.04233 0.134056,0 0.36689,0.07761 0.366889,0.134055 0.585611,0.134055 0.03528,0 0.04939,-0.0071 0.03528,-0.01411 0.03528,-0.08467 0,-0.127 -0.07761,-0.395111 -0.0635,-0.225778 -0.0635,-0.345723 0,-0.112889 -0.02822,-0.127 -0.02822,-0.02117 -0.02822,-0.07056 0,-0.09172 0.0635,-0.141111 0.04939,-0.04233 0.0635,-0.03528 0.0071,0 0.04939,0.04939 0.08467,0.105834 0.254,0.769056 0.08467,0.324556 0.141111,0.43039 0.04939,0.105833 0.169334,0.148166 0.232833,0.09172 0.931334,0.134056 0.395111,0.02822 0.465667,0.04939 0.0071,0 0.02117,0.0071 0.01411,0 0.02822,0 0.239889,0 0.345722,-0.09172 0.02117,-0.01411 0.02117,-0.04233 0,-0.09172 -0.197556,-0.254 -0.141111,-0.127 -0.141111,-0.155223 z"
         id="path3268"
         style="font-size:7.05556px;font-family:Myfont;-inkscape-font-specification:'Myfont, Normal';letter-spacing:0px;word-spacing:0px;fill:none;stroke:#000000;stroke-width:0.264583" />
      <path
         d="m 12.200437,17.782665 q -0.07056,0 -0.112889,0.02822 -0.04233,0.02117 -0.105833,0.02117 -0.105834,0 -0.162278,0.04233 -0.04233,0.03528 -0.04233,0.04939 -0.0071,0.0071 0.02117,0.04939 0.05644,0.09172 0.0635,0.169334 0.04233,0.211666 0.232834,0.500944 0.1905,0.282223 0.331611,0.338667 0.08467,0.03528 0.169333,0.03528 0.155223,0 0.225778,-0.07055 0.3175,-0.296334 0.606778,-0.529167 0.204612,-0.162278 0.388056,-0.162278 0.246945,0 0.536223,0.261055 0.141111,0.127 0.211667,0.324556 0.07056,0.197556 0.07056,0.345723 v 0.162277 q -0.0071,0.423334 -0.176389,0.656168 -0.05644,0.07761 -0.134055,0.07761 -0.07761,0 -0.127001,-0.07056 -0.04939,-0.07056 -0.04939,-0.09878 0,-0.03528 0.04939,-0.08467 0.190501,-0.176389 0.190501,-0.465667 0,-0.155223 0.02822,-0.155223 0.01411,0 0.01411,-0.02117 0,-0.07761 -0.07761,-0.218723 -0.07761,-0.162278 -0.204611,-0.261056 -0.134056,-0.105833 -0.261056,-0.105833 -0.127,0 -0.303389,0.112889 -0.183445,0.105833 -0.338667,0.275167 -0.169334,0.183444 -0.352778,0.261056 -0.07056,0.03528 -0.07056,0.0635 0,0.01411 -0.08467,0.01411 -0.204612,0 -0.331612,-0.04939 -0.08467,-0.03528 -0.225778,-0.127 -0.148167,-0.09878 -0.148167,-0.127 0,-0.0071 -0.105833,-0.141112 -0.08467,-0.09878 -0.218722,-0.366889 -0.141111,-0.268111 -0.1905,-0.416278 -0.04233,-0.127 -0.04233,-0.303389 0,-0.09878 0.02117,-0.09878 0.01411,0 0.04233,-0.04939 0.02822,-0.09878 0.268112,-0.09878 h 0.09878 q 0.388056,0.02822 0.388056,0.204611 0,0.02822 -0.09172,0.02822 z"
         id="path3270"
         style="font-size:7.05556px;font-family:Myfont;-inkscape-font-specification:'Myfont, Normal';letter-spacing:0px;word-spacing:0px;fill:none;stroke:#000000;stroke-width:0.264583" />
      <g
         id="g3825"
         transform="matrix(1,0,0,-1,0,50)">
        <circle
           style="fill:none;fill-opacity:1;stroke:#000000;stroke-width:1.225;stroke-dasharray:none"
           id="circle482"
           cx="-25"
           cy="175"
           r="5"
           transform="rotate(-90)" />
        <path
           style="fill:none;stroke:#000000;stroke-width:0.264583px;stroke-linecap:butt;stroke-linejoin:miter;stroke-opacity:1"
           d="m 50,35 2.429703,-4.316206 6.323479,1.995844 -2.103131,-6.216192 3.806763,0.800796 -2.246615,-6.821746 7.1685,3.822821 -2.121477,-6.253377 6.444849,2.202391 -0.03669,-4.401505 3.677858,2.534568 1.533836,-3.347392"
           id="path873"
           sodipodi:nodetypes="cccccccccccc" />
        <path
           style="fill:none;stroke:#000000;stroke-width:0.264583px;stroke-linecap:butt;stroke-linejoin:miter;stroke-opacity:1"
           d="m 75,14.999999 1.453221,3.509716 4.552524,-1.9775 -1.250576,3.85148 5.825213,-1.446311 -2.45316,5.452578 6.149145,-0.79205 -3.570847,5.462671 6.00588,-3.246421 -2.759458,7.953732 5.843558,-3.895706 -0.324644,3.408743 4.220348,-1.947853 L 100,35 v 0"
           id="path875"
           sodipodi:nodetypes="ccccccccccccccc" />
        <path
           style="fill:none;stroke:#000000;stroke-width:0.264583px;stroke-linecap:butt;stroke-linejoin:miter;stroke-opacity:1"
           d="m 74.877079,15 -0.639477,5.37385 3.571063,-1.136247 -1.460889,3.571062 5.194273,-0.324641 -2.876814,4.316563 6.592593,-0.305806 -1.557614,3.658789 4.744001,-0.862872 -1.707892,6.341331 5.703349,-2.563723 1.357861,4.530413 4.010035,-3.98088 -0.02319,3.246296 L 100,35"
           id="path875-4"
           sodipodi:nodetypes="ccccccccccccccc" />
        <path
           style="fill:none;stroke:#000000;stroke-width:0.264583px;stroke-linecap:butt;stroke-linejoin:miter;stroke-opacity:1"
           d="m 100,35 0.58148,-4.507322 4.1011,-0.525783 -1.22188,-4.617107 4.69808,1.654792 -0.68254,-5.790216 4.12156,2.507923 -0.0578,-4.913546 5.09073,1.426809 0.082,-4.216315 3.92123,1.000651 0.57512,-2.949818 L 125,15.000002"
           id="path1062"
           sodipodi:nodetypes="ccccccccccccc" />
        <path
           style="fill:none;stroke:#000000;stroke-width:0.264583px;stroke-linecap:butt;stroke-linejoin:miter;stroke-opacity:1"
           d="m 150,35 v 0 l -3.13694,1.270759 -1.20216,-3.492497 -4.86388,2.024915 -1.18623,-4.159873 -3.93042,0.779953 1.81116,-3.863444 -3.83567,1.791553 0.17246,-4.728367 -4.66957,2.269819 -0.0466,-4.201961 -2.97589,0.071 1.82049,-3.940165 -2.13298,0.973829 -0.82372,-4.795525 -1.03407,3.443923 -3.95283,0.752953 0.31483,5.545297 -4.34652,-2.443919 -1.26275,5.950182 -3.42167,-1.655887 -1.33078,5.097276 -2.25108,-2.756542 -1.12147,5.229555 -2.27964,-2.049611 -1.2211,3.995006 L 100,35 l 1.84079,-2.918367 4.16326,-1.24038 -0.37062,-3.922226 3.88991,2.24916 0.15917,-5.261287 3.5028,2.149961 -0.15298,-4.914146 5.3365,0.462132 0.26649,-3.553378 2.70785,0.251713 1.14985,-2.553828 L 125,15 l 3.17277,-1.428104 0.10284,2.452549 4.79703,-1.98573 -1.30261,3.183571 4.72925,-1.440271 L 135,20 l 5.47632,-0.833074 -1.40981,3.953306 4.46481,-0.633732 -1.81702,3.545381 4.44445,-0.350662 0.0773,4.253612 2.74503,-0.483424 z"
           id="path1621"
           sodipodi:nodetypes="cccccccccccccccccccccccccccccccccccccccccccccccccccccc" />
        <path
           style="fill:none;stroke:#000000;stroke-width:0.264583px;stroke-linecap:butt;stroke-linejoin:miter;stroke-opacity:1"
           d="m 150,35 -3.20581,-0.278149 -0.73236,-3.465864 -5.2859,0.857806 2.86421,-3.408027 -5.56569,1.259233 0.6541,-4.768463 -2.74709,1.34576 -0.58342,-3.995949 -5.03145,1.754559 0.35695,-3.827625 -3.48384,1.292719 1.93089,-3.191923 -2.78015,-0.693868 L 125,15.000002 l 2.47246,0.02728 0.65403,2.556132 2.76543,-1.369984 -0.82065,2.754735 4.45626,-0.136705 -1.34689,2.551201 5.46827,-0.71231 -1.9664,3.278086 3.65534,0.155921 -0.80861,2.846701 5.51828,0.59529 0.10932,2.727228 2.84376,0.510776 z"
           id="path1623"
           sodipodi:nodetypes="ccccccccccccccccccccccccccccc" />
        <path
           style="fill:none;stroke:#000000;stroke-width:0.264583px;stroke-linecap:butt;stroke-linejoin:miter;stroke-opacity:1"
           d="m 150,35 1.62783,-0.492185 1.42697,-1.247295 2.82413,-0.565776 1.43763,-2.120741 2.57392,0.706872 1.05077,-1.450282 3.00267,0.689464 0.30141,-1.614098 2.37582,0.870677 1.55558,-2.765472 2.09117,0.526424 L 175,25 v 0"
           id="path1625"
           sodipodi:nodetypes="cccccccccccccc" />
        <path
           style="fill:none;stroke:#000000;stroke-width:0.264583px;stroke-linecap:butt;stroke-linejoin:miter;stroke-opacity:1"
           d="m 150,35 1.94366,1.092762 1.39217,-1.523936 2.92976,1.955405 1.29549,-3.237015 4.20419,2.448043 0.25447,-3.020126 3.81112,1.470461 -0.72067,-3.305226 4.62256,1.364758 -0.65957,-2.899783 3.48108,0.917827 L 175,25 l -3.33785,3.34174 -3.40203,0.236163 0.0744,2.196832 -3.8809,-0.576051 0.0789,2.06821 -3.16368,-1.26465 -0.34393,2.368127 -3.74783,-1.374997 -1.09136,2.123655 -2.9315,-0.410243 -1.56434,1.323973 L 150,35"
           id="path1627"
           sodipodi:nodetypes="ccccccccccccccccccccccccc" />
        <path
           style="fill:none;stroke:#000000;stroke-width:0.264583px;stroke-linecap:butt;stroke-linejoin:miter;stroke-opacity:1"
           d="m 175,25 -3.69832,1.166546 -3.27538,-0.435326 -1.79739,2.419652 -2.81184,-1.448579 -0.31696,2.56646 -2.80208,-2.348356 -1.05319,2.876556 -3.99292,-0.174891 0.16984,2.194004 -3.63313,0.803602 L 150,35"
           id="path1629"
           sodipodi:nodetypes="cccccccccccc" />
        <path
           style="fill:none;stroke:#000000;stroke-width:0.264583px;stroke-linecap:butt;stroke-linejoin:miter;stroke-opacity:1"
           d="m 150,35 1.04666,-3.579881 2.66456,-0.0062 -0.45806,-3.64991 5.50564,0.681793 0.0988,-3.147776 3.36135,1.833205 0.79789,-2.583688 2.93821,2.295498 1.59211,-2.489697 3.2741,0.532654 2.13463,-1.249723 L 175,25"
           id="path1631"
           sodipodi:nodetypes="ccccccccccccc" />
        <circle
           style="font-size:7.05556px;font-family:Myfont;-inkscape-font-specification:'Myfont, Normal';letter-spacing:0px;word-spacing:0px;fill:none;stroke:#000000;stroke-width:1"
           id="path3335"
           cx="-35"
           cy="50"
           r="3.4000001"
           transform="rotate(-90)" />
        <circle
           style="font-size:7.05556px;font-family:Myfont;-inkscape-font-specification:'Myfont, Normal';letter-spacing:0px;word-spacing:0px;fill:none;stroke:#000000;stroke-width:1"
           id="path3335-5"
           cx="-15"
           cy="74.877083"
           r="3.4000001"
           transform="rotate(-90)" />
        <circle
           style="font-size:7.05556px;font-family:Myfont;-inkscape-font-specification:'Myfont, Normal';letter-spacing:0px;word-spacing:0px;fill:none;stroke:#000000;stroke-width:1"
           id="path3335-9"
           cx="-35"
           cy="100"
           r="3.4000001"
           transform="rotate(-90)" />
        <circle
           style="font-size:7.05556px;font-family:Myfont;-inkscape-font-specification:'Myfont, Normal';letter-spacing:0px;word-spacing:0px;fill:none;stroke:#000000;stroke-width:1"
           id="path3335-4"
           cx="-15"
           cy="125"
           r="3.4000001"
           transform="rotate(-90)" />
        <circle
           style="font-size:7.05556px;font-family:Myfont;-inkscape-font-specification:'Myfont, Normal';letter-spacing:0px;word-spacing:0px;fill:none;stroke:#000000;stroke-width:1"
           id="path3335-2"
           cx="-35"
           cy="150"
           r="3.4000001"
           transform="rotate(-90)" />
      </g>
    </g>
  </g>
</svg>
