<?xml version="1.0" encoding="UTF-8" standalone="no"?>
<!-- Created with Inkscape (http://www.inkscape.org/) -->

<svg
   width="50mm"
   height="200mm"
   viewBox="0 0 50 200"
   version="1.1"
   id="svg5"
   inkscape:version="1.2 (dc2aedaf03, 2022-05-15)"
   sodipodi:docname="VoltsPanelGraphics.svg"
   inkscape:export-filename="VoltsPanelGraphics.png"
   inkscape:export-xdpi="100"
   inkscape:export-ydpi="100"
   xmlns:inkscape="http://www.inkscape.org/namespaces/inkscape"
   xmlns:sodipodi="http://sodipodi.sourceforge.net/DTD/sodipodi-0.dtd"
   xmlns="http://www.w3.org/2000/svg"
   xmlns:svg="http://www.w3.org/2000/svg">
  <sodipodi:namedview
     id="namedview7"
     pagecolor="#ffffff"
     bordercolor="#666666"
     borderopacity="1.0"
     inkscape:pageshadow="2"
     inkscape:pageopacity="0.0"
     inkscape:pagecheckerboard="0"
     inkscape:document-units="mm"
     showgrid="true"
     showguides="true"
     inkscape:zoom="1"
     inkscape:cx="-15"
     inkscape:cy="415"
     inkscape:window-width="1920"
     inkscape:window-height="1017"
     inkscape:window-x="-8"
     inkscape:window-y="-8"
     inkscape:window-maximized="1"
     inkscape:current-layer="layer1"
     inkscape:showpageshadow="2"
     inkscape:deskcolor="#d1d1d1">
    <sodipodi:guide
       position="0,200"
       orientation="0,377.95276"
       id="guide824"
       inkscape:locked="false" />
    <sodipodi:guide
       position="50,99.999999"
       orientation="755.90551,0"
       id="guide826"
       inkscape:locked="false" />
    <sodipodi:guide
       position="99.999999,0"
       orientation="0,-377.95276"
       id="guide828"
       inkscape:locked="false" />
    <sodipodi:guide
       position="0,0"
       orientation="-755.90551,0"
       id="guide830"
       inkscape:locked="false" />
    <inkscape:grid
       type="xygrid"
       id="grid832"
       dotted="true"
       units="mm"
       spacingx="2.5"
       spacingy="2.5"
       empspacing="10"
       originx="0"
       originy="0" />
    <sodipodi:guide
       position="-45,190"
       orientation="0,-1"
       id="guide454"
       inkscape:locked="false" />
    <sodipodi:guide
       position="25,235"
       orientation="1,0"
       id="guide456"
       inkscape:locked="false" />
    <sodipodi:guide
       position="15,190"
       orientation="1,0"
       id="guide458"
       inkscape:locked="false" />
    <sodipodi:guide
       position="50,25"
       orientation="0,-1"
       id="guide460"
       inkscape:locked="false" />
    <sodipodi:guide
       position="-25,62.5"
       orientation="0,-1"
       id="guide462"
       inkscape:locked="false" />
    <sodipodi:guide
       position="35,185"
       orientation="1,0"
       id="guide464"
       inkscape:locked="false" />
    <sodipodi:guide
       position="62.5,74.999999"
       orientation="1,0"
       id="guide466"
       inkscape:locked="false" />
    <sodipodi:guide
       position="-112.5,162.5"
       orientation="0,-1"
       id="guide5561"
       inkscape:locked="false" />
    <sodipodi:guide
       position="-20,12.5"
       orientation="0,-1"
       id="guide540"
       inkscape:locked="false" />
    <sodipodi:guide
       position="-9.9999999,40"
       orientation="0,-1"
       id="guide1017"
       inkscape:locked="false" />
    <sodipodi:guide
       position="-112.5,137.5"
       orientation="0,-1"
       id="guide691"
       inkscape:locked="false" />
    <sodipodi:guide
       position="-25,112.5"
       orientation="0,-1"
       id="guide693"
       inkscape:locked="false" />
    <sodipodi:guide
       position="-12.5,87.499999"
       orientation="0,-1"
       id="guide695"
       inkscape:locked="false" />
  </sodipodi:namedview>
  <defs
     id="defs2">
    <rect
       x="94.488189"
       y="774.80315"
       width="56.692913"
       height="37.795276"
       id="rect3879" />
    <rect
       x="248"
       y="85"
       width="110"
       height="58.999999"
       id="rect3873" />
    <rect
       x="-236.22047"
       y="141.73228"
       width="330.70865"
       height="47.244099"
       id="rect3872" />
    <rect
       x="141.73228"
       y="0"
       width="141.73228"
       height="47.244095"
       id="rect3812" />
    <rect
       x="-236.22047"
       y="141.73228"
       width="61.550629"
       height="26.75382"
       id="rect3872-8" />
    <rect
       x="-236.22047"
       y="141.73228"
       width="61.550629"
       height="26.75382"
       id="rect3872-8-7" />
    <rect
       x="-236.22047"
       y="141.73228"
       width="61.550629"
       height="26.75382"
       id="rect3872-8-8" />
    <rect
       x="-236.22047"
       y="141.73228"
       width="61.550629"
       height="26.75382"
       id="rect3872-8-4" />
    <rect
       x="-236.22047"
       y="141.73228"
       width="61.550629"
       height="26.75382"
       id="rect3872-8-44" />
    <rect
       x="-236.22047"
       y="141.73228"
       width="61.550629"
       height="26.75382"
       id="rect3872-8-448" />
    <rect
       x="-236.22047"
       y="141.73228"
       width="61.550629"
       height="26.75382"
       id="rect3872-8-5" />
    <rect
       x="-236.22047"
       y="141.73228"
       width="61.550629"
       height="26.75382"
       id="rect3872-8-0" />
    <rect
       x="-236.22047"
       y="141.73228"
       width="61.550629"
       height="26.75382"
       id="rect3872-8-53" />
    <rect
       x="-236.22047"
       y="141.73228"
       width="61.550629"
       height="26.75382"
       id="rect3872-8-53-0" />
    <rect
       x="-236.22047"
       y="141.73228"
       width="61.550629"
       height="26.75382"
       id="rect3872-8-53-2" />
    <rect
       x="-236.22047"
       y="141.73228"
       width="61.550629"
       height="26.75382"
       id="rect3872-8-53-1" />
    <rect
       x="-236.22047"
       y="141.73228"
       width="61.550629"
       height="26.75382"
       id="rect3872-8-53-5" />
    <rect
       x="-236.22047"
       y="141.73228"
       width="61.550629"
       height="26.75382"
       id="rect3872-8-53-9" />
    <rect
       x="-236.22047"
       y="141.73228"
       width="61.550629"
       height="26.75382"
       id="rect3872-8-53-3" />
    <rect
       x="-236.22047"
       y="141.73228"
       width="61.550629"
       height="26.75382"
       id="rect3872-8-53-27" />
    <rect
       x="-236.22047"
       y="141.73228"
       width="61.550629"
       height="26.75382"
       id="rect3872-8-53-57" />
  </defs>
  <g
     inkscape:label="Layer 1"
     inkscape:groupmode="layer"
     id="layer1">
    <rect
       style="fill:#000000;fill-opacity:1;stroke:none;stroke-width:0.866206;stroke-dasharray:none"
       id="rect2521"
       width="50"
       height="200"
       x="0"
       y="0" />
    <text
       xml:space="preserve"
       transform="scale(0.26458333)"
       id="text3810"
       style="font-style:normal;font-weight:normal;font-size:40px;line-height:1.25;font-family:sans-serif;letter-spacing:0px;word-spacing:0px;white-space:pre;shape-inside:url(#rect3812);display:inline;fill:#000000;fill-opacity:1;stroke:none"><tspan
         x="141.73242"
         y="83.737353"
         id="tspan377"><tspan
           dx="0 15.761719 29.277344 27.8125 16.835938 29.921875 31.015625 14.0625 38.90625 27.34375 27.929688 30.058594 16.835938 29.921875"
           id="tspan375">tURING mACHINE</tspan></tspan></text>
    <circle
       style="font-size:7.05556px;font-family:Myfont;-inkscape-font-specification:'Myfont, Normal';letter-spacing:0px;word-spacing:0px;fill:#ffffff;stroke:#ffffff;stroke-width:1"
       id="path3335"
       cx="-35"
       cy="37.5"
       r="3.4000001"
       transform="scale(-1,1)" />
    <circle
       style="font-size:7.05556px;font-family:Myfont;-inkscape-font-specification:'Myfont, Normal';letter-spacing:0px;word-spacing:0px;fill:#ffffff;stroke:#ffffff;stroke-width:1"
       id="path3335-5"
       cx="-15"
       cy="62.5"
       r="3.4000001"
       transform="scale(-1,1)" />
    <circle
       style="font-size:7.05556px;font-family:Myfont;-inkscape-font-specification:'Myfont, Normal';letter-spacing:0px;word-spacing:0px;fill:#ffffff;stroke:#ffffff;stroke-width:1"
       id="path3335-9"
       cx="-35"
       cy="87.5"
       r="3.4000001"
       transform="scale(-1,1)" />
    <circle
       style="font-size:7.05556px;font-family:Myfont;-inkscape-font-specification:'Myfont, Normal';letter-spacing:0px;word-spacing:0px;fill:#ffffff;stroke:#ffffff;stroke-width:1"
       id="path3335-4"
       cx="-15"
       cy="112.5"
       r="3.4000001"
       transform="scale(-1,1)" />
    <circle
       style="font-size:7.05556px;font-family:Myfont;-inkscape-font-specification:'Myfont, Normal';letter-spacing:0px;word-spacing:0px;fill:#ffffff;stroke:#ffffff;stroke-width:1"
       id="path3335-2"
       cx="-35"
       cy="137.5"
       r="3.4000001"
       transform="scale(-1,1)" />
    <circle
       style="display:inline;fill:#ffffff;fill-opacity:1;stroke:none;stroke-width:1.8375;stroke-dasharray:none"
       id="circle482"
       cx="-25"
       cy="175"
       r="7.5"
       transform="scale(-1,1)" />
    <path
       style="display:inline;fill:none;stroke:#ffffff;stroke-width:0.264583px;stroke-linecap:butt;stroke-linejoin:miter;stroke-opacity:1"
       d="m 35.17881,37.588744 -4.316206,2.429703 1.995844,6.323479 -6.216192,-2.103131 0.800796,3.806763 -6.821746,-2.246615 3.822821,7.1685 -6.253377,-2.121477 2.202391,6.444849 -4.401505,-0.03669 2.534568,3.677858 -3.347392,1.533836"
       id="path873"
       sodipodi:nodetypes="cccccccccccc" />
    <path
       style="display:inline;fill:none;stroke:#ffffff;stroke-width:0.264583px;stroke-linecap:butt;stroke-linejoin:miter;stroke-opacity:1"
       d="m 13.624475,61.946829 3.509716,1.453221 -1.9775,4.552524 3.85148,-1.250576 -1.446311,5.825213 5.452578,-2.45316 -0.79205,6.149145 5.462671,-3.570847 -3.246421,6.00588 7.953732,-2.759458 -3.895706,5.843558 3.408743,-0.324644 -1.947853,4.220348 3.666922,1.308796 v 0"
       id="path875"
       sodipodi:nodetypes="ccccccccccccccc" />
    <path
       style="display:inline;fill:none;stroke:#ffffff;stroke-width:0.264583px;stroke-linecap:butt;stroke-linejoin:miter;stroke-opacity:1"
       d="m 13.429574,62.756593 5.37385,-0.639477 -1.136247,3.571063 3.571062,-1.460889 -0.324641,5.194273 4.316563,-2.876814 -0.305806,6.592593 3.658789,-1.557614 -0.862872,4.744001 6.341331,-1.707892 -2.563723,5.703349 4.530413,1.357861 -3.98088,4.010035 3.246296,-0.02319 -1.864135,2.215622"
       id="path875-4"
       sodipodi:nodetypes="ccccccccccccccc" />
    <path
       style="display:inline;fill:none;stroke:#ffffff;stroke-width:0.264583px;stroke-linecap:butt;stroke-linejoin:miter;stroke-opacity:1"
       d="m 33.624475,87.1097 -4.507322,0.58148 -0.525783,4.1011 -4.617107,-1.22188 1.654792,4.69808 -5.790216,-0.68254 2.507923,4.121558 -4.913546,-0.0578 1.426809,5.090732 -4.216315,0.082 1.000651,3.92123 -2.949818,0.57512 0.929934,3.79092"
       id="path1062"
       sodipodi:nodetypes="ccccccccccccc" />
    <path
       style="display:inline;fill:none;stroke:#ffffff;stroke-width:0.264583px;stroke-linecap:butt;stroke-linejoin:miter;stroke-opacity:1"
       d="m 33.786368,136.77469 v 0 l 1.270759,-3.13694 -3.492497,-1.20216 2.024915,-4.86388 -4.159873,-1.18623 0.779953,-3.93042 -3.863444,1.81116 1.791553,-3.83567 -4.728367,0.17246 2.269819,-4.66957 -4.201961,-0.0466 0.071,-2.97589 -3.940165,1.82049 0.973829,-2.13298 -4.795525,-0.82372 3.443923,-1.03407 0.752953,-3.95283 5.545297,0.31483 -2.443919,-4.34652 5.950182,-1.26275 -1.655887,-3.421672 5.097276,-1.330785 -2.756542,-2.25108 5.229555,-1.12147 -2.049611,-2.279638 3.995006,-1.2211 -1.108229,-3.09297 -2.918367,1.84079 -1.24038,4.163258 -3.922226,-0.370618 2.24916,3.889908 -5.261287,0.15917 2.149961,3.502805 -4.914146,-0.15298 0.462132,5.336502 -3.553378,0.26649 0.251713,2.70785 -2.553828,1.14985 -0.749354,2.50698 -1.428104,3.17277 2.452549,0.10284 -1.98573,4.79703 3.183571,-1.30261 -1.440271,4.72925 4.217985,-1.49928 -0.833074,5.47632 3.953306,-1.40981 -0.633732,4.46481 3.545381,-1.81702 -0.350662,4.44445 4.253612,0.0773 -0.483424,2.74503 z"
       id="path1621"
       sodipodi:nodetypes="cccccccccccccccccccccccccccccccccccccccccccccccccccccc" />
    <path
       style="display:inline;fill:none;stroke:#ffffff;stroke-width:0.264583px;stroke-linecap:butt;stroke-linejoin:miter;stroke-opacity:1"
       d="m 34.112108,136.93755 -0.278149,-3.20581 -3.465864,-0.73236 0.857806,-5.2859 -3.408027,2.86421 1.259233,-5.56569 -4.768463,0.6541 1.34576,-2.74709 -3.995949,-0.58342 1.754559,-5.03145 -3.827625,0.35695 1.292719,-3.48384 -3.191923,1.93089 -0.693868,-2.78015 -2.880207,-1.39044 0.02728,2.47246 2.556132,0.65403 -1.369984,2.76543 2.754735,-0.82065 -0.136705,4.45626 2.551201,-1.34689 -0.71231,5.46827 3.278086,-1.9664 0.155921,3.65534 2.846701,-0.80861 0.59529,5.51828 2.727228,0.10932 0.510776,2.84376 z"
       id="path1623"
       sodipodi:nodetypes="ccccccccccccccccccccccccccccc" />
    <path
       style="display:inline;fill:none;stroke:#ffffff;stroke-width:0.264583px;stroke-linecap:butt;stroke-linejoin:miter;stroke-opacity:1"
       d="m 35,137.5 -0.601558,5.11736 0.675136,3.22479 -1.842443,1.37017 2.354223,4.13441 -2.793335,0.77108 0.511767,2.87098 -2.964035,1.67187 1.971813,2.10543 -3.839616,2.40941 2.282353,1.78458 -1.848346,1.28525 0.870677,2.37582 -2.765472,1.55558 0.526424,2.09117 L 25,175 v 0"
       id="path1625"
       sodipodi:nodetypes="ccccccccccccccccc" />
    <path
       style="display:inline;fill:none;stroke:#ffffff;stroke-width:0.264583px;stroke-linecap:butt;stroke-linejoin:miter;stroke-opacity:1"
       d="m 35,137.5 2.926631,3.98189 -1.65128,2.53916 2.02651,2.71644 -2.470404,1.37207 4.287985,3.98335 -5.38908,2.6483 2.951319,2.11494 -4.394465,0.70493 2.448043,4.20419 -3.020126,0.25447 1.470461,3.81112 -3.305226,-0.72067 1.364758,4.62256 -2.899783,-0.65957 0.917827,3.48108 L 25,175 l 3.34174,-3.33785 0.236163,-3.40203 2.196832,0.0744 -0.576051,-3.8809 2.06821,0.0789 -1.26465,-3.16368 2.652548,-1.2683 -1.659418,-2.82346 2.19476,-0.80694 -0.481348,-3.21592 3.473979,-1.37391 -3.068479,-3.92353 2.044975,-1.37809 -0.880674,-2.94414 1.10517,-1.33055 L 35,137.5"
       id="path1627"
       sodipodi:nodetypes="ccccccccccccccccccccccccccccccccc" />
    <path
       style="display:inline;fill:none;stroke:#ffffff;stroke-width:0.264583px;stroke-linecap:butt;stroke-linejoin:miter;stroke-opacity:1"
       d="m 25,175 1.166546,-3.69832 -0.435326,-3.27538 2.419652,-1.79739 -1.448579,-2.81184 2.56646,-0.31696 -2.348356,-2.80208 2.876556,-1.05319 -0.174891,-3.99292 2.568802,-0.57976 -0.836138,-2.69614 1.910354,-1.49508 -1.320757,-3.36602 1.878667,-2.25441 -1.324011,-2.23687 L 35,137.5"
       id="path1629"
       sodipodi:nodetypes="cccccccccccccccc" />
    <path
       style="display:inline;fill:none;stroke:#ffffff;stroke-width:0.264583px;stroke-linecap:butt;stroke-linejoin:miter;stroke-opacity:1"
       d="m 35,137.5 -3.954996,3.84102 1.754485,4.16759 -2.722387,0.96465 2.028487,3.80676 -2.325209,0.34499 1.633539,3.08621 -3.64991,-0.45806 0.681793,5.50564 -3.147776,0.0988 1.833205,3.36135 -2.583688,0.79789 2.295498,2.93821 -2.489697,1.59211 0.532654,3.2741 -1.249723,2.13463 L 25,175"
       id="path1631"
       sodipodi:nodetypes="ccccccccccccccccc" />
    <text
       xml:space="preserve"
       transform="matrix(0.26458333,0,0,0.26458333,-52.746582,-18.517854)"
       id="text3870"
       style="font-size:42.6667px;line-height:1.25;font-family:Myfont;-inkscape-font-specification:Myfont;letter-spacing:0px;word-spacing:0px;white-space:pre;shape-inside:url(#rect3873);fill:#ffffff"><tspan
         x="248"
         y="124.4667"
         id="tspan379">Volts</tspan></text>
    <text
       xml:space="preserve"
       transform="matrix(0.26458333,0,0,0.26458333,-4.8507159,-21.17584)"
       id="text3877"
       style="font-style:normal;font-variant:normal;font-weight:normal;font-stretch:normal;font-size:26.6667px;line-height:1.25;font-family:Myfont;-inkscape-font-specification:'Myfont, Normal';font-variant-ligatures:normal;font-variant-caps:normal;font-variant-numeric:normal;font-variant-east-asian:normal;letter-spacing:0px;word-spacing:0px;white-space:pre;shape-inside:url(#rect3879);fill:#ffffff"><tspan
         x="94.488281"
         y="799.46943"
         id="tspan381">Out</tspan></text>
  </g>
  <g
     inkscape:groupmode="layer"
     id="layer2"
     inkscape:label="Knobs"
     style="display:inline">
    <circle
       style="fill:#ffffff;fill-opacity:1;stroke:#ffffff;stroke-width:0.232662;stroke-dasharray:none;stroke-opacity:1"
       id="circle1523"
       cx="-35"
       cy="37.5"
       r="11.883669"
       transform="scale(-1,1)" />
    <circle
       style="fill:#ffffff;fill-opacity:1;stroke:#ffffff;stroke-width:0.232662;stroke-dasharray:none;stroke-opacity:1"
       id="circle1523-5"
       cx="-15"
       cy="62.5"
       r="11.883669"
       transform="scale(-1,1)" />
    <circle
       style="fill:#ffffff;fill-opacity:1;stroke:#ffffff;stroke-width:0.232662;stroke-dasharray:none;stroke-opacity:1"
       id="circle1523-1"
       cx="-35"
       cy="87.5"
       r="11.883669"
       transform="scale(-1,1)" />
    <circle
       style="fill:#ffffff;fill-opacity:1;stroke:#ffffff;stroke-width:0.232662;stroke-dasharray:none;stroke-opacity:1"
       id="circle1523-18"
       cx="-15"
       cy="112.5"
       r="11.883669"
       transform="scale(-1,1)" />
    <ellipse
       style="display:inline;fill:#ffffff;fill-opacity:1;stroke:#ffffff;stroke-width:0.232662;stroke-dasharray:none;stroke-opacity:1"
       id="circle1523-6"
       cx="-35"
       cy="137.5"
       transform="scale(-1,1)"
       rx="11.883669"
       ry="11.88367" />
  </g>
</svg>
