<?xml version="1.0" encoding="UTF-8" standalone="no"?>
<!-- Created with Inkscape (http://www.inkscape.org/) -->

<svg
   width="50mm"
   height="200mm"
   viewBox="0 0 50 200"
   version="1.1"
   id="svg5"
   inkscape:version="1.2 (dc2aedaf03, 2022-05-15)"
   sodipodi:docname="VoltsPanelGraphics.svg"
   inkscape:export-filename="TuringPanelGraphics.png"
   inkscape:export-xdpi="100"
   inkscape:export-ydpi="100"
   xmlns:inkscape="http://www.inkscape.org/namespaces/inkscape"
   xmlns:sodipodi="http://sodipodi.sourceforge.net/DTD/sodipodi-0.dtd"
   xmlns="http://www.w3.org/2000/svg"
   xmlns:svg="http://www.w3.org/2000/svg">
  <sodipodi:namedview
     id="namedview7"
     pagecolor="#ffffff"
     bordercolor="#666666"
     borderopacity="1.0"
     inkscape:pageshadow="2"
     inkscape:pageopacity="0.0"
     inkscape:pagecheckerboard="0"
     inkscape:document-units="mm"
     showgrid="true"
     showguides="true"
     inkscape:zoom="1.6245048"
     inkscape:cx="-29.855252"
     inkscape:cy="220.37485"
     inkscape:window-width="1920"
     inkscape:window-height="1017"
     inkscape:window-x="-8"
     inkscape:window-y="-8"
     inkscape:window-maximized="1"
     inkscape:current-layer="layer1"
     inkscape:showpageshadow="2"
     inkscape:deskcolor="#d1d1d1">
    <sodipodi:guide
       position="0,200"
       orientation="0,377.95276"
       id="guide824"
       inkscape:locked="false" />
    <sodipodi:guide
       position="50,99.999999"
       orientation="755.90551,0"
       id="guide826"
       inkscape:locked="false" />
    <sodipodi:guide
       position="99.999999,0"
       orientation="0,-377.95276"
       id="guide828"
       inkscape:locked="false" />
    <sodipodi:guide
       position="0,0"
       orientation="-755.90551,0"
       id="guide830"
       inkscape:locked="false" />
    <inkscape:grid
       type="xygrid"
       id="grid832"
       dotted="true"
       units="mm"
       spacingx="5"
       spacingy="5"
       empspacing="10"
       originx="0"
       originy="0" />
    <sodipodi:guide
       position="0,175"
       orientation="0,-1"
       id="guide454"
       inkscape:locked="false" />
    <sodipodi:guide
       position="25,235"
       orientation="1,0"
       id="guide456"
       inkscape:locked="false" />
    <sodipodi:guide
       position="15,190"
       orientation="1,0"
       id="guide458"
       inkscape:locked="false" />
    <sodipodi:guide
       position="50,25"
       orientation="0,-1"
       id="guide460"
       inkscape:locked="false" />
    <sodipodi:guide
       position="50,50"
       orientation="0,-1"
       id="guide462"
       inkscape:locked="false" />
    <sodipodi:guide
       position="35,185"
       orientation="1,0"
       id="guide464"
       inkscape:locked="false" />
    <sodipodi:guide
       position="62.5,74.999999"
       orientation="1,0"
       id="guide466"
       inkscape:locked="false" />
    <sodipodi:guide
       position="-200,150"
       orientation="0,-1"
       id="guide5561"
       inkscape:locked="false" />
    <sodipodi:guide
       position="-67.074639,14.923679"
       orientation="0,-1"
       id="guide540"
       inkscape:locked="false" />
    <sodipodi:guide
       position="-9.9999999,40"
       orientation="0,-1"
       id="guide1017"
       inkscape:locked="false" />
    <sodipodi:guide
       position="-207.9625,125.12292"
       orientation="0,-1"
       id="guide691"
       inkscape:locked="false" />
    <sodipodi:guide
       position="-200,99.999999"
       orientation="0,-1"
       id="guide693"
       inkscape:locked="false" />
    <sodipodi:guide
       position="-200,74.999999"
       orientation="0,-1"
       id="guide695"
       inkscape:locked="false" />
  </sodipodi:namedview>
  <defs
     id="defs2">
    <rect
       x="-236.22047"
       y="141.73228"
       width="330.70865"
       height="47.244099"
       id="rect3872" />
    <rect
       x="141.73228"
       y="0"
       width="141.73228"
       height="47.244095"
       id="rect3812" />
    <rect
       x="-236.22047"
       y="141.73228"
       width="61.550629"
       height="26.75382"
       id="rect3872-8" />
    <rect
       x="-236.22047"
       y="141.73228"
       width="61.550629"
       height="26.75382"
       id="rect3872-8-7" />
    <rect
       x="-236.22047"
       y="141.73228"
       width="61.550629"
       height="26.75382"
       id="rect3872-8-8" />
    <rect
       x="-236.22047"
       y="141.73228"
       width="61.550629"
       height="26.75382"
       id="rect3872-8-4" />
    <rect
       x="-236.22047"
       y="141.73228"
       width="61.550629"
       height="26.75382"
       id="rect3872-8-44" />
    <rect
       x="-236.22047"
       y="141.73228"
       width="61.550629"
       height="26.75382"
       id="rect3872-8-448" />
    <rect
       x="-236.22047"
       y="141.73228"
       width="61.550629"
       height="26.75382"
       id="rect3872-8-5" />
    <rect
       x="-236.22047"
       y="141.73228"
       width="61.550629"
       height="26.75382"
       id="rect3872-8-0" />
    <rect
       x="-236.22047"
       y="141.73228"
       width="61.550629"
       height="26.75382"
       id="rect3872-8-53" />
    <rect
       x="-236.22047"
       y="141.73228"
       width="61.550629"
       height="26.75382"
       id="rect3872-8-53-0" />
    <rect
       x="-236.22047"
       y="141.73228"
       width="61.550629"
       height="26.75382"
       id="rect3872-8-53-2" />
    <rect
       x="-236.22047"
       y="141.73228"
       width="61.550629"
       height="26.75382"
       id="rect3872-8-53-1" />
    <rect
       x="-236.22047"
       y="141.73228"
       width="61.550629"
       height="26.75382"
       id="rect3872-8-53-5" />
    <rect
       x="-236.22047"
       y="141.73228"
       width="61.550629"
       height="26.75382"
       id="rect3872-8-53-9" />
    <rect
       x="-236.22047"
       y="141.73228"
       width="61.550629"
       height="26.75382"
       id="rect3872-8-53-3" />
    <rect
       x="-236.22047"
       y="141.73228"
       width="61.550629"
       height="26.75382"
       id="rect3872-8-53-27" />
    <rect
       x="-236.22047"
       y="141.73228"
       width="61.550629"
       height="26.75382"
       id="rect3872-8-53-57" />
  </defs>
  <g
     inkscape:label="Layer 1"
     inkscape:groupmode="layer"
     id="layer1">
    <rect
       style="fill:#000000;fill-opacity:1;stroke:none;stroke-width:0.866206;stroke-dasharray:none"
       id="rect2521"
       width="50"
       height="200"
       x="0"
       y="0" />
    <text
       xml:space="preserve"
       transform="scale(0.26458333)"
       id="text3810"
       style="font-style:normal;font-weight:normal;font-size:40px;line-height:1.25;font-family:sans-serif;letter-spacing:0px;word-spacing:0px;white-space:pre;shape-inside:url(#rect3812);display:inline;fill:#000000;fill-opacity:1;stroke:none"><tspan
         x="141.73242"
         y="83.737353"
         id="tspan4370"><tspan
           dx="0 15.761719 29.277344 27.8125 16.835938 29.921875 31.015625 14.0625 38.90625 27.34375 27.929688 30.058594 16.835938 29.921875"
           id="tspan4368">tURING mACHINE</tspan></tspan></text>
    <g
       aria-label="Out"
       transform="matrix(0.26458333,0,0,0.26458333,83.95498,145.35167)"
       id="text3870-7-3"
       style="font-size:16px;line-height:1.25;font-family:Myfont;-inkscape-font-specification:'Myfont, Normal';letter-spacing:0px;word-spacing:0px;white-space:pre;shape-inside:url(#rect3872-8-4);display:inline;fill:#ffffff">
      <path
         d="m -230.4607,145.94042 q -0.64,-0.128 -1.04,-0.128 -0.032,0 -0.08,0 l -0.032,0.016 q -0.064,0.032 -0.352,0.064 -0.288,0.064 -0.624,0.368 -0.384,0.32 -0.4,0.336 -0.096,0.032 -0.432,0.544 -0.336,0.496 -0.496,0.848 -0.608,1.296 -0.704,2.96 0,0.08 -0.016,0.24 0,0.16 0,0.224 0,1.216 0.384,1.776 0.16,0.224 0.192,0.432 0.064,0.208 0.336,0.448 0.304,0.256 0.736,0.256 0.448,0 1.088,-0.272 0.592,-0.224 1.264,-0.928 0.64,-0.64 0.864,-0.992 0.192,-0.304 0.336,-0.448 0.16,-0.176 0.528,-0.928 0.368,-0.752 0.496,-1.184 0.288,-0.88 0.288,-1.488 0,-0.736 -0.496,-1.28 -0.352,-0.368 -0.704,-0.528 -0.336,-0.176 -1.136,-0.336 z m -1.456,-0.88 q 0.368,-0.208 0.544,-0.208 0.096,0 0.608,0.08 0.928,0.144 1.2,0.512 0.048,0.08 0.56,0.272 0.656,0.256 1.072,0.848 0.416,0.576 0.416,1.376 0,0.32 -0.032,0.48 -0.24,1.232 -0.448,1.696 -0.064,0.16 -0.192,0.416 -0.128,0.256 -0.144,0.304 -0.384,0.864 -1.424,2.176 -1.024,1.296 -1.424,1.408 -0.208,0.064 -0.416,0.208 -0.56,0.4 -1.056,0.4 -0.08,0 -0.096,-0.016 -0.048,-0.032 -0.224,-0.032 -0.08,0 -0.288,0.016 -0.208,0.016 -0.304,0.016 -0.128,0 -0.224,-0.032 -0.192,-0.08 -0.64,-0.48 -0.448,-0.4 -0.448,-0.48 0,-0.08 -0.24,-0.672 -0.16,-0.4 -0.208,-0.64 -0.032,-0.256 -0.032,-0.88 0,-1.056 0.128,-2.144 0.032,-0.464 0.112,-0.544 0.064,-0.096 0.144,-0.512 0.096,-0.496 0.88,-1.776 0.32,-0.528 0.768,-0.896 0.448,-0.368 1.408,-0.896 z"
         id="path5102" />
      <path
         d="m -221.72471,148.46842 q 0.112,-0.192 0.432,-0.192 0.192,0 0.304,0.096 0.016,0.016 0.016,0.176 0,0.304 -0.032,0.528 -0.192,1.648 -0.256,2.624 -0.016,0.208 -0.048,0.528 -0.016,0.304 -0.032,0.464 -0.016,0.144 -0.016,0.16 -0.064,0.176 -0.064,0.672 0,0.912 0.208,0.912 0.08,0 0.144,0.144 0.064,0.128 0.064,0.272 0,0.112 -0.256,0.272 -0.256,0.16 -0.432,0.16 -0.144,0 -0.256,-0.112 -0.096,-0.096 -0.176,-0.608 -0.08,-0.528 -0.08,-1.008 0,-0.048 0,-0.144 0.016,-0.096 0.016,-0.128 0.016,-0.16 0.016,-0.352 0,-0.144 -0.064,-0.144 -0.112,0 -0.288,0.352 -0.464,0.784 -1.072,1.408 -0.352,0.368 -0.512,0.464 -0.16,0.08 -0.544,0.128 -0.288,0.032 -0.464,-0.112 -0.352,-0.304 -0.496,-0.928 -0.128,-0.64 -0.128,-1.968 0,-2.576 0.368,-3.376 0.112,-0.256 0.192,-0.256 0.128,0 0.16,0.848 0,0.528 -0.064,0.56 -0.048,0.048 -0.048,1.488 0,2.08 0.336,2.784 0.096,0.208 0.144,0.272 0.064,0.048 0.176,0.048 0.144,0 0.432,-0.224 0.288,-0.224 0.448,-0.448 0.032,-0.048 0.176,-0.24 0.144,-0.208 0.224,-0.32 0.976,-1.376 1.2,-2.384 0.064,-0.336 0.144,-1.312 0.048,-0.96 0.128,-1.104 z"
         id="path5104" />
      <path
         d="m -217.29272,145.95642 q 0.112,-0.08 0.16,-0.064 0.048,0.016 0.208,0.16 l 0.192,0.176 -0.112,0.4 q -0.048,0.16 -0.224,0.976 -0.16,0.816 -0.208,0.976 0,0.016 -0.016,0.048 0,0.176 0.432,0.176 0.144,0 0.224,-0.016 0.096,-0.016 0.288,-0.016 0.528,0 0.528,0.192 0,0.08 -0.08,0.16 -0.096,0.096 -0.72,0.224 -0.608,0.128 -0.768,0.208 -0.224,0.128 -0.416,0.704 -0.08,0.272 -0.224,0.832 -0.128,0.56 -0.256,0.912 -0.096,0.368 -0.096,0.608 0,0.192 0.016,0.32 0.048,0.496 0.272,0.736 0.464,0.496 1.344,0.496 0.272,0 0.368,-0.032 0.112,-0.048 0.336,-0.256 0.336,-0.288 0.496,-0.656 0.144,-0.352 0.272,-0.352 0.128,0 0.176,0.304 0,0.016 0,0.064 0.016,0.032 0.016,0.064 0,0.624 -0.56,1.072 -0.08,0.064 -0.24,0.208 -0.16,0.144 -0.288,0.224 -0.112,0.08 -0.256,0.128 -0.192,0.08 -0.192,0.128 0,0.048 -0.24,0.048 -0.336,0 -0.448,-0.064 -0.08,-0.064 -0.432,-0.144 -0.352,-0.096 -0.48,-0.24 -0.192,-0.176 -0.352,-0.256 -0.4,-0.176 -0.592,-0.992 -0.016,-0.032 -0.016,-0.16 0,-0.624 0.336,-1.76 0.032,-0.112 0.096,-0.336 0.064,-0.224 0.08,-0.272 0.048,-0.224 0.128,-0.256 0.064,-0.016 0.064,-0.224 0,-0.144 -0.048,-0.176 -0.032,-0.032 -0.272,-0.032 -0.48,0 -0.48,-0.256 0,-0.08 0.016,-0.112 0.096,-0.4 0.656,-0.608 0.368,-0.128 0.464,-0.256 0.112,-0.128 0.192,-0.576 0.208,-1.072 0.384,-1.744 0.176,-0.624 0.272,-0.688 z"
         id="path5106" />
    </g>
    <g
       id="g4185">
      <path
         d="m 18.45194,11.325547 q 0,-0.08467 -0.04233,-0.1905 -0.04233,-0.112889 -0.04233,-0.169333 0,-0.0635 -0.04233,-0.09172 -0.04233,-0.02822 -0.05644,-0.148167 -0.01411,-0.112889 -0.105834,-0.218722 -0.08467,-0.105834 -0.08467,-0.169334 0,-0.05644 0.04939,-0.112889 0.07055,-0.08467 0.239889,-0.08467 0.08467,0 0.105833,0.03528 0.02822,0.04233 0.07761,0.225778 0.282223,1.023056 0.303389,1.227668 0.03528,0.225777 0.08467,0.225777 0.0071,0 0.01411,-0.0071 0.02822,-0.02822 0.02822,0.01411 0,0.02822 -0.02822,0.04233 -0.02117,0.01411 -0.02117,0.08467 0,0.148167 0.04939,0.211667 0.02117,0.02117 0.08467,0.536223 0.119945,1.037167 0.211667,1.128889 0.0071,0.0071 0.02117,0.0071 0.05645,0 0.141112,-0.218723 0.09172,-0.218722 0.09172,-0.268111 0,-0.02822 0.05644,-0.112889 0.04233,-0.0635 0.127001,-0.254 0.08467,-0.1905 0.08467,-0.225778 0,-0.02117 0.09172,-0.204611 0.09172,-0.176389 0.141111,-0.359834 0.239889,-0.762 0.381,-1.044223 0.05644,-0.09878 0.183445,-0.769056 0.02117,-0.112889 0.04233,-0.155222 0.02822,-0.04233 0.09172,-0.08467 0.09878,-0.0635 0.134056,-0.0635 0.02822,0 0.0635,0.03528 0.03528,0.03528 0.03528,0.112889 0,0.09172 -0.05645,0.204611 -0.04233,0.07056 -0.119944,0.310445 -0.246945,0.846667 -0.402167,1.234723 -0.08467,0.211667 -0.08467,0.232833 0,0.02822 -0.04939,0.134056 -0.04233,0.105833 -0.04233,0.127 0,0.03528 -0.05645,0.134056 -0.05644,0.09878 -0.07761,0.176389 -0.04939,0.204611 -0.232833,0.536222 -0.01411,0.02822 -0.127,0.331612 -0.105834,0.296333 -0.127001,0.331611 -0.03528,0.04939 -0.05644,0.1905 -0.04939,0.282222 -0.09878,0.345722 -0.04233,0.05645 -0.218722,0.05645 -0.225778,0 -0.225778,-0.07056 0,-0.02822 0.03528,-0.0635 0.04939,-0.05644 0.02822,-0.105833 -0.0071,-0.03528 -0.03528,-0.218722 -0.02117,-0.183445 -0.03528,-0.225778 -0.03528,-0.09878 -0.134055,-0.55739 -0.09172,-0.465667 -0.134056,-0.769056 -0.01411,-0.105833 -0.03528,-0.204611 -0.01411,-0.105833 -0.03528,-0.225778 -0.02117,-0.127 -0.03528,-0.197556 -0.01411,-0.09172 -0.04939,-0.169333 -0.02822,-0.08467 -0.03528,-0.162278 -0.0071,-0.05644 -0.04233,-0.134056 -0.02822,-0.07761 -0.02822,-0.176389 z"
         id="path3262"
         style="font-size:7.05556px;font-family:Myfont;-inkscape-font-specification:'Myfont, Normal';letter-spacing:0px;word-spacing:0px;fill:#ffffff;stroke-width:0.264583" />
      <path
         d="m 23.750661,12.73666 q 0.04233,-0.134056 0.04233,-0.317501 0,-0.261055 -0.09172,-0.458611 -0.09172,-0.197556 -0.254001,-0.197556 -0.105833,0 -0.218722,0.08467 -0.0071,0.0071 -0.09172,0.07056 -0.08467,0.0635 -0.127,0.09878 -0.141112,0.119945 -0.169334,0.119945 -0.03528,0 -0.03528,-0.105834 0,-0.08467 -0.01411,-0.09172 -0.0071,-0.01411 -0.04939,0.0071 -0.112889,0.04939 -0.303389,0.352778 -0.1905,0.303389 -0.254,0.529167 -0.05644,0.162278 -0.09172,0.303389 -0.04233,0.127 -0.04233,0.268111 0,0.119945 0.0071,0.211667 0.01411,0.331611 0.03528,0.423334 0.02822,0.08467 0.112889,0.127 0.08467,0.04233 0.155222,0.04233 0.119945,0 0.275167,-0.09878 0.352778,-0.204611 0.670278,-0.592667 0.3175,-0.395111 0.4445,-0.776111 z m -0.987778,-1.171223 q 0.07056,-0.04233 0.127,-0.04233 0.0635,0 0.134056,0.07056 l 0.05644,0.04939 0.155223,-0.0635 q 0.134055,-0.05645 0.239889,-0.05645 h 0.04233 q 0.119945,0.0071 0.169333,0.04233 0.05645,0.02822 0.155223,0.134055 0.112889,0.134056 0.148167,0.261056 0.04233,0.127 0.04233,0.388056 0,0.296333 -0.0635,0.479778 -0.105834,0.303389 -0.345723,0.635 -0.472722,0.663223 -1.107723,0.966612 -0.127,0.0635 -0.246944,0.0635 -0.183445,0 -0.345723,-0.148167 -0.169333,-0.155222 -0.169333,-0.585611 0,-0.324556 0.112889,-0.832556 0.07761,-0.324556 0.275167,-0.649112 0.127,-0.211667 0.3175,-0.430389 0.197556,-0.225778 0.303389,-0.282222 z"
         id="path3264"
         style="font-size:7.05556px;font-family:Myfont;-inkscape-font-specification:'Myfont, Normal';letter-spacing:0px;word-spacing:0px;fill:#ffffff;stroke-width:0.264583" />
      <path
         d="m 25.034777,10.147269 q 0.07056,-0.03528 0.127001,-0.03528 0.09172,0 0.09172,0.127 0,0.07761 -0.01411,0.127 -0.02117,0.09172 -0.03528,1.157112 -0.01411,1.008945 -0.04233,1.277057 -0.03528,0.268111 -0.03528,0.620889 0,0.458611 0.04233,0.592667 0.04233,0.141111 0.08467,0.1905 0.04939,0.04233 0.141111,0.04233 h 0.05645 q 0.155222,-0.0071 0.1905,0.04939 0.02822,0.04233 0.01411,0.07056 -0.0071,0.02822 -0.07761,0.105833 -0.105834,0.119945 -0.246945,0.162278 -0.119945,0.03528 -0.141111,0.03528 -0.03528,0 -0.09878,-0.04233 -0.197556,-0.119945 -0.246945,-0.345723 -0.04939,-0.197556 -0.04939,-0.479778 0,-0.197556 0.03528,-0.670278 0.04233,-0.536223 0.05645,-1.622779 0.01411,-0.818445 0.03528,-1.06539 0.02822,-0.246944 0.112888,-0.296333 z"
         id="path3266"
         style="font-size:7.05556px;font-family:Myfont;-inkscape-font-specification:'Myfont, Normal';letter-spacing:0px;word-spacing:0px;fill:#ffffff;stroke-width:0.264583" />
      <path
         d="m 28.075727,13.724438 q 0.02117,0 0.148166,-0.148167 0.127001,-0.148167 0.134056,-0.148167 0.03528,0 0.07761,0.05645 0.04233,0.04939 0.04939,0.09878 0.0071,0.01411 0.0071,0.04233 0,0.0635 -0.155223,0.197556 -0.162277,0.148167 -0.331611,0.345722 -0.275167,0.331612 -0.493889,0.331612 -0.162278,0 -0.261056,-0.204612 -0.05644,-0.134055 -0.05644,-0.395111 v -0.218722 q 0.0071,-0.373945 0.04939,-0.769056 0.04233,-0.402167 0.09172,-0.49389 0.02117,-0.04233 0.02117,-0.07056 0,-0.04939 -0.0635,-0.04939 -0.07056,0 -0.162278,0.02822 -0.119945,0.03528 -0.218723,0.08467 -0.09878,0.04233 -0.1905,0.07056 -0.04233,0.01411 -0.112889,0.01411 -0.155222,0 -0.155222,-0.183444 0,-0.0635 0.0071,-0.09878 0.0071,-0.04939 0.04233,-0.05644 0.03528,-0.01411 0.303389,-0.07056 0.585611,-0.127 0.635,-0.225778 0.01411,-0.03528 0.08467,-0.345722 0.08467,-0.402167 0.148167,-0.627945 0.08467,-0.338667 0.169333,-0.409223 0.08467,-0.0635 0.134056,-0.0635 0.04939,0 0.105833,0.07761 0.04233,0.07056 0.04233,0.176389 0,0.134056 -0.07761,0.36689 -0.134055,0.366889 -0.134055,0.585611 0,0.03528 0.0071,0.04939 0.01411,0.03528 0.08467,0.03528 0.127,0 0.395111,-0.07761 0.225778,-0.0635 0.345723,-0.0635 0.112889,0 0.127,-0.02822 0.02117,-0.02822 0.07056,-0.02822 0.09172,0 0.141111,0.0635 0.04233,0.04939 0.03528,0.0635 0,0.0071 -0.04939,0.04939 -0.105834,0.08467 -0.769056,0.254 -0.324556,0.08467 -0.43039,0.141111 -0.105833,0.04939 -0.148166,0.169334 -0.09172,0.232833 -0.134056,0.931334 -0.02822,0.395111 -0.04939,0.465667 0,0.0071 -0.0071,0.02117 0,0.01411 0,0.02822 0,0.239889 0.09172,0.345722 0.01411,0.02117 0.04233,0.02117 0.09172,0 0.254,-0.197556 0.127,-0.141111 0.155223,-0.141111 z"
         id="path3268"
         style="font-size:7.05556px;font-family:Myfont;-inkscape-font-specification:'Myfont, Normal';letter-spacing:0px;word-spacing:0px;fill:#ffffff;stroke-width:0.264583" />
      <path
         d="m 32.217335,12.200437 q 0,-0.07056 -0.02822,-0.112889 -0.02117,-0.04233 -0.02117,-0.105833 0,-0.105834 -0.04233,-0.162278 -0.03528,-0.04233 -0.04939,-0.04233 -0.0071,-0.0071 -0.04939,0.02117 -0.09172,0.05644 -0.169334,0.0635 -0.211666,0.04233 -0.500944,0.232834 -0.282223,0.1905 -0.338667,0.331611 -0.03528,0.08467 -0.03528,0.169333 0,0.155223 0.07055,0.225778 0.296334,0.3175 0.529167,0.606778 0.162278,0.204612 0.162278,0.388056 0,0.246945 -0.261055,0.536223 -0.127,0.141111 -0.324556,0.211667 -0.197556,0.07056 -0.345723,0.07056 h -0.162277 q -0.423334,-0.0071 -0.656168,-0.176389 -0.07761,-0.05644 -0.07761,-0.134055 0,-0.07761 0.07056,-0.127001 0.07056,-0.04939 0.09878,-0.04939 0.03528,0 0.08467,0.04939 0.176389,0.190501 0.465667,0.190501 0.155223,0 0.155223,0.02822 0,0.01411 0.02117,0.01411 0.07761,0 0.218723,-0.07761 0.162278,-0.07761 0.261056,-0.204611 0.105833,-0.134056 0.105833,-0.261056 0,-0.127 -0.112889,-0.303389 -0.105833,-0.183445 -0.275167,-0.338667 -0.183444,-0.169334 -0.261056,-0.352778 -0.03528,-0.07056 -0.0635,-0.07056 -0.01411,0 -0.01411,-0.08467 0,-0.204612 0.04939,-0.331612 0.03528,-0.08467 0.127,-0.225778 0.09878,-0.148167 0.127,-0.148167 0.0071,0 0.141112,-0.105833 0.09878,-0.08467 0.366889,-0.218722 0.268111,-0.141111 0.416278,-0.1905 0.127,-0.04233 0.303389,-0.04233 0.09878,0 0.09878,0.02117 0,0.01411 0.04939,0.04233 0.09878,0.02822 0.09878,0.268112 v 0.09878 q -0.02822,0.388056 -0.204611,0.388056 -0.02822,0 -0.02822,-0.09172 z"
         id="path3270"
         style="font-size:7.05556px;font-family:Myfont;-inkscape-font-specification:'Myfont, Normal';letter-spacing:0px;word-spacing:0px;fill:#ffffff;stroke-width:0.264583" />
    </g>
    <circle
       style="font-size:7.05556px;font-family:Myfont;-inkscape-font-specification:'Myfont, Normal';letter-spacing:0px;word-spacing:0px;fill:#ffffff;stroke:#ffffff;stroke-width:1"
       id="path3335"
       cx="-35"
       cy="50"
       r="3.4000001"
       transform="scale(-1,1)" />
    <circle
       style="font-size:7.05556px;font-family:Myfont;-inkscape-font-specification:'Myfont, Normal';letter-spacing:0px;word-spacing:0px;fill:#ffffff;stroke:#ffffff;stroke-width:1"
       id="path3335-5"
       cx="-15"
       cy="74.877083"
       r="3.4000001"
       transform="scale(-1,1)" />
    <circle
       style="font-size:7.05556px;font-family:Myfont;-inkscape-font-specification:'Myfont, Normal';letter-spacing:0px;word-spacing:0px;fill:#ffffff;stroke:#ffffff;stroke-width:1"
       id="path3335-9"
       cx="-35"
       cy="100"
       r="3.4000001"
       transform="scale(-1,1)" />
    <circle
       style="font-size:7.05556px;font-family:Myfont;-inkscape-font-specification:'Myfont, Normal';letter-spacing:0px;word-spacing:0px;fill:#ffffff;stroke:#ffffff;stroke-width:1"
       id="path3335-4"
       cx="-15"
       cy="125"
       r="3.4000001"
       transform="scale(-1,1)" />
    <circle
       style="font-size:7.05556px;font-family:Myfont;-inkscape-font-specification:'Myfont, Normal';letter-spacing:0px;word-spacing:0px;fill:#ffffff;stroke:#ffffff;stroke-width:1"
       id="path3335-2"
       cx="-35"
       cy="150"
       r="3.4000001"
       transform="scale(-1,1)" />
    <circle
       style="display:inline;fill:#ffffff;fill-opacity:1;stroke:none;stroke-width:1.225;stroke-dasharray:none"
       id="circle482"
       cx="-25"
       cy="175"
       r="5"
       transform="scale(-1,1)" />
    <path
       style="display:inline;fill:none;stroke:#ffffff;stroke-width:0.264583px;stroke-linecap:butt;stroke-linejoin:miter;stroke-opacity:1"
       d="m 35,50 -4.316206,2.429703 1.995844,6.323479 -6.216192,-2.103131 0.800796,3.806763 -6.821746,-2.246615 3.822821,7.1685 -6.253377,-2.121477 2.202391,6.444849 -4.401505,-0.03669 2.534568,3.677858 -3.347392,1.533836"
       id="path873"
       sodipodi:nodetypes="cccccccccccc" />
    <path
       style="display:inline;fill:none;stroke:#ffffff;stroke-width:0.264583px;stroke-linecap:butt;stroke-linejoin:miter;stroke-opacity:1"
       d="m 14.999999,75 3.509716,1.453221 -1.9775,4.552524 3.85148,-1.250576 -1.446311,5.825213 5.452578,-2.45316 -0.79205,6.149145 5.462671,-3.570847 -3.246421,6.00588 7.953732,-2.759458 -3.895706,5.843558 3.408743,-0.324644 -1.947853,4.220348 L 35,100 v 0"
       id="path875"
       sodipodi:nodetypes="ccccccccccccccc" />
    <path
       style="display:inline;fill:none;stroke:#ffffff;stroke-width:0.264583px;stroke-linecap:butt;stroke-linejoin:miter;stroke-opacity:1"
       d="m 15,74.877079 5.37385,-0.639477 -1.136247,3.571063 3.571062,-1.460889 -0.324641,5.194273 4.316563,-2.876814 -0.305806,6.592593 3.658789,-1.557614 -0.862872,4.744001 6.341331,-1.707892 -2.563723,5.703349 4.530413,1.357861 -3.98088,4.010035 3.246296,-0.02319 L 35,100"
       id="path875-4"
       sodipodi:nodetypes="ccccccccccccccc" />
    <path
       style="display:inline;fill:none;stroke:#ffffff;stroke-width:0.264583px;stroke-linecap:butt;stroke-linejoin:miter;stroke-opacity:1"
       d="m 35,100 -4.507322,0.58148 -0.525783,4.1011 -4.617107,-1.22188 1.654792,4.69808 -5.790216,-0.68254 2.507923,4.12156 -4.913546,-0.0578 1.426809,5.09073 -4.216315,0.082 1.000651,3.92123 -2.949818,0.57512 L 15.000002,125"
       id="path1062"
       sodipodi:nodetypes="ccccccccccccc" />
    <path
       style="display:inline;fill:none;stroke:#ffffff;stroke-width:0.264583px;stroke-linecap:butt;stroke-linejoin:miter;stroke-opacity:1"
       d="m 35,150 v 0 l 1.270759,-3.13694 -3.492497,-1.20216 2.024915,-4.86388 -4.159873,-1.18623 0.779953,-3.93042 -3.863444,1.81116 1.791553,-3.83567 -4.728367,0.17246 2.269819,-4.66957 -4.201961,-0.0466 0.071,-2.97589 -3.940165,1.82049 0.973829,-2.13298 -4.795525,-0.82372 3.443923,-1.03407 0.752953,-3.95283 5.545297,0.31483 -2.443919,-4.34652 5.950182,-1.26275 -1.655887,-3.42167 5.097276,-1.33078 -2.756542,-2.25108 5.229555,-1.12147 -2.049611,-2.27964 3.995006,-1.2211 L 35,100 l -2.918367,1.84079 -1.24038,4.16326 -3.922226,-0.37062 2.24916,3.88991 -5.261287,0.15917 2.149961,3.5028 -4.914146,-0.15298 0.462132,5.3365 -3.553378,0.26649 0.251713,2.70785 -2.553828,1.14985 L 15,125 l -1.428104,3.17277 2.452549,0.10284 -1.98573,4.79703 3.183571,-1.30261 -1.440271,4.72925 L 20,135 l -0.833074,5.47632 3.953306,-1.40981 -0.633732,4.46481 3.545381,-1.81702 -0.350662,4.44445 4.253612,0.0773 -0.483424,2.74503 z"
       id="path1621"
       sodipodi:nodetypes="cccccccccccccccccccccccccccccccccccccccccccccccccccccc" />
    <path
       style="display:inline;fill:none;stroke:#ffffff;stroke-width:0.264583px;stroke-linecap:butt;stroke-linejoin:miter;stroke-opacity:1"
       d="m 35,150 -0.278149,-3.20581 -3.465864,-0.73236 0.857806,-5.2859 -3.408027,2.86421 1.259233,-5.56569 -4.768463,0.6541 1.34576,-2.74709 -3.995949,-0.58342 1.754559,-5.03145 -3.827625,0.35695 1.292719,-3.48384 -3.191923,1.93089 -0.693868,-2.78015 L 15.000002,125 l 0.02728,2.47246 2.556132,0.65403 -1.369984,2.76543 2.754735,-0.82065 -0.136705,4.45626 2.551201,-1.34689 -0.71231,5.46827 3.278086,-1.9664 0.155921,3.65534 2.846701,-0.80861 0.59529,5.51828 2.727228,0.10932 0.510776,2.84376 z"
       id="path1623"
       sodipodi:nodetypes="ccccccccccccccccccccccccccccc" />
    <path
       style="display:inline;fill:none;stroke:#ffffff;stroke-width:0.264583px;stroke-linecap:butt;stroke-linejoin:miter;stroke-opacity:1"
       d="m 35,150 -0.492185,1.62783 -1.247295,1.42697 -0.565776,2.82413 -2.120741,1.43763 0.706872,2.57392 -1.450282,1.05077 0.689464,3.00267 -1.614098,0.30141 0.870677,2.37582 -2.765472,1.55558 0.526424,2.09117 L 25,175 v 0"
       id="path1625"
       sodipodi:nodetypes="cccccccccccccc" />
    <path
       style="display:inline;fill:none;stroke:#ffffff;stroke-width:0.264583px;stroke-linecap:butt;stroke-linejoin:miter;stroke-opacity:1"
       d="m 35,150 1.092762,1.94366 -1.523936,1.39217 1.955405,2.92976 -3.237015,1.29549 2.448043,4.20419 -3.020126,0.25447 1.470461,3.81112 -3.305226,-0.72067 1.364758,4.62256 -2.899783,-0.65957 0.917827,3.48108 L 25,175 l 3.34174,-3.33785 0.236163,-3.40203 2.196832,0.0744 -0.576051,-3.8809 2.06821,0.0789 -1.26465,-3.16368 2.368127,-0.34393 -1.374997,-3.74783 2.123655,-1.09136 -0.410243,-2.9315 1.323973,-1.56434 L 35,150"
       id="path1627"
       sodipodi:nodetypes="ccccccccccccccccccccccccc" />
    <path
       style="display:inline;fill:none;stroke:#ffffff;stroke-width:0.264583px;stroke-linecap:butt;stroke-linejoin:miter;stroke-opacity:1"
       d="m 25,175 1.166546,-3.69832 -0.435326,-3.27538 2.419652,-1.79739 -1.448579,-2.81184 2.56646,-0.31696 -2.348356,-2.80208 2.876556,-1.05319 -0.174891,-3.99292 2.194004,0.16984 0.803602,-3.63313 L 35,150"
       id="path1629"
       sodipodi:nodetypes="cccccccccccc" />
    <path
       style="display:inline;fill:none;stroke:#ffffff;stroke-width:0.264583px;stroke-linecap:butt;stroke-linejoin:miter;stroke-opacity:1"
       d="m 35,150 -3.579881,1.04666 -0.0062,2.66456 -3.64991,-0.45806 0.681793,5.50564 -3.147776,0.0988 1.833205,3.36135 -2.583688,0.79789 2.295498,2.93821 -2.489697,1.59211 0.532654,3.2741 -1.249723,2.13463 L 25,175"
       id="path1631"
       sodipodi:nodetypes="ccccccccccccc" />
  </g>
  <g
     inkscape:groupmode="layer"
     id="layer2"
     inkscape:label="Knobs"
     style="display:inline">
    <circle
       style="fill:#ffffff;fill-opacity:1;stroke:#ffffff;stroke-width:0.23494;stroke-dasharray:none;stroke-opacity:1"
       id="circle1523"
       cx="-35"
       cy="50"
       r="12"
       transform="scale(-1,1)" />
    <circle
       style="fill:#ffffff;fill-opacity:1;stroke:#ffffff;stroke-width:0.23494;stroke-dasharray:none;stroke-opacity:1"
       id="circle1523-5"
       cx="-15"
       cy="75"
       r="12"
       transform="scale(-1,1)" />
    <circle
       style="fill:#ffffff;fill-opacity:1;stroke:#ffffff;stroke-width:0.23494;stroke-dasharray:none;stroke-opacity:1"
       id="circle1523-1"
       cx="-35"
       cy="100"
       r="12"
       transform="scale(-1,1)" />
    <circle
       style="fill:#ffffff;fill-opacity:1;stroke:#ffffff;stroke-width:0.23494;stroke-dasharray:none;stroke-opacity:1"
       id="circle1523-18"
       cx="-15"
       cy="125"
       r="12"
       transform="scale(-1,1)" />
    <circle
       style="fill:#ffffff;fill-opacity:1;stroke:#ffffff;stroke-width:0.23494;stroke-dasharray:none;stroke-opacity:1"
       id="circle1523-6"
       cx="-35"
       cy="150"
       r="12"
       transform="scale(-1,1)" />
  </g>
</svg>
