G04 #@! TF.GenerationSoftware,KiCad,Pcbnew,(6.0.5)*
G04 #@! TF.CreationDate,2022-06-09T22:04:55-05:00*
G04 #@! TF.ProjectId,KosmoVoltsMain,4b6f736d-6f56-46f6-9c74-734d61696e2e,rev?*
G04 #@! TF.SameCoordinates,Original*
G04 #@! TF.FileFunction,Copper,L2,Bot*
G04 #@! TF.FilePolarity,Positive*
%FSLAX46Y46*%
G04 Gerber Fmt 4.6, Leading zero omitted, Abs format (unit mm)*
G04 Created by KiCad (PCBNEW (6.0.5)) date 2022-06-09 22:04:55*
%MOMM*%
%LPD*%
G01*
G04 APERTURE LIST*
G04 Aperture macros list*
%AMRoundRect*
0 Rectangle with rounded corners*
0 $1 Rounding radius*
0 $2 $3 $4 $5 $6 $7 $8 $9 X,Y pos of 4 corners*
0 Add a 4 corners polygon primitive as box body*
4,1,4,$2,$3,$4,$5,$6,$7,$8,$9,$2,$3,0*
0 Add four circle primitives for the rounded corners*
1,1,$1+$1,$2,$3*
1,1,$1+$1,$4,$5*
1,1,$1+$1,$6,$7*
1,1,$1+$1,$8,$9*
0 Add four rect primitives between the rounded corners*
20,1,$1+$1,$2,$3,$4,$5,0*
20,1,$1+$1,$4,$5,$6,$7,0*
20,1,$1+$1,$6,$7,$8,$9,0*
20,1,$1+$1,$8,$9,$2,$3,0*%
G04 Aperture macros list end*
G04 #@! TA.AperFunction,ComponentPad*
%ADD10O,3.240000X2.720000*%
G04 #@! TD*
G04 #@! TA.AperFunction,ComponentPad*
%ADD11R,1.800000X1.800000*%
G04 #@! TD*
G04 #@! TA.AperFunction,ComponentPad*
%ADD12C,1.800000*%
G04 #@! TD*
G04 #@! TA.AperFunction,ComponentPad*
%ADD13RoundRect,0.250000X-0.600000X0.600000X-0.600000X-0.600000X0.600000X-0.600000X0.600000X0.600000X0*%
G04 #@! TD*
G04 #@! TA.AperFunction,ComponentPad*
%ADD14C,1.700000*%
G04 #@! TD*
G04 #@! TA.AperFunction,ComponentPad*
%ADD15R,1.600000X2.400000*%
G04 #@! TD*
G04 #@! TA.AperFunction,ComponentPad*
%ADD16O,1.600000X2.400000*%
G04 #@! TD*
G04 #@! TA.AperFunction,ComponentPad*
%ADD17C,1.600000*%
G04 #@! TD*
G04 #@! TA.AperFunction,ComponentPad*
%ADD18O,1.600000X1.600000*%
G04 #@! TD*
G04 #@! TA.AperFunction,ComponentPad*
%ADD19RoundRect,0.250000X-0.850000X0.620000X-0.850000X-0.620000X0.850000X-0.620000X0.850000X0.620000X0*%
G04 #@! TD*
G04 #@! TA.AperFunction,ComponentPad*
%ADD20O,2.200000X1.740000*%
G04 #@! TD*
G04 #@! TA.AperFunction,Conductor*
%ADD21C,0.250000*%
G04 #@! TD*
G04 APERTURE END LIST*
D10*
X165000000Y-134800000D03*
X165000000Y-125200000D03*
D11*
X172500000Y-132500000D03*
D12*
X172500000Y-130000000D03*
X172500000Y-127500000D03*
D10*
X115000000Y-134800000D03*
X115000000Y-125200000D03*
D11*
X122500000Y-132500000D03*
D12*
X122500000Y-130000000D03*
X122500000Y-127500000D03*
D10*
X90000000Y-105200000D03*
X90000000Y-114800000D03*
D11*
X97500000Y-112500000D03*
D12*
X97500000Y-110000000D03*
X97500000Y-107500000D03*
D10*
X190000000Y-114800000D03*
X190000000Y-105200000D03*
D11*
X197500000Y-112500000D03*
D12*
X197500000Y-110000000D03*
X197500000Y-107500000D03*
D10*
X140000000Y-114800000D03*
X140000000Y-105200000D03*
D11*
X147500000Y-112500000D03*
D12*
X147500000Y-110000000D03*
X147500000Y-107500000D03*
D13*
X83610000Y-122747500D03*
D14*
X83610000Y-125287500D03*
X86150000Y-122747500D03*
X86150000Y-125287500D03*
X88690000Y-122747500D03*
X88690000Y-125287500D03*
X91230000Y-122747500D03*
X91230000Y-125287500D03*
X93770000Y-122747500D03*
X93770000Y-125287500D03*
X96310000Y-122747500D03*
X96310000Y-125287500D03*
X98850000Y-122747500D03*
X98850000Y-125287500D03*
X101390000Y-122747500D03*
X101390000Y-125287500D03*
D15*
X162500000Y-106000000D03*
D16*
X165040000Y-106000000D03*
X167580000Y-106000000D03*
X170120000Y-106000000D03*
X170120000Y-113620000D03*
X167580000Y-113620000D03*
X165040000Y-113620000D03*
X162500000Y-113620000D03*
D17*
X157500000Y-108750000D03*
X157500000Y-111250000D03*
X111000000Y-104920000D03*
D18*
X111000000Y-115080000D03*
D17*
X115000000Y-104920000D03*
D18*
X115000000Y-115080000D03*
D17*
X151000000Y-124920000D03*
D18*
X151000000Y-135080000D03*
D13*
X83610000Y-134247500D03*
D14*
X83610000Y-136787500D03*
X86150000Y-134247500D03*
X86150000Y-136787500D03*
X88690000Y-134247500D03*
X88690000Y-136787500D03*
X91230000Y-134247500D03*
X91230000Y-136787500D03*
X93770000Y-134247500D03*
X93770000Y-136787500D03*
X96310000Y-134247500D03*
X96310000Y-136787500D03*
X98850000Y-134247500D03*
X98850000Y-136787500D03*
X101390000Y-134247500D03*
X101390000Y-136787500D03*
D19*
X193500000Y-131500000D03*
D20*
X193500000Y-134040000D03*
D17*
X139000000Y-124920000D03*
D18*
X139000000Y-135080000D03*
D17*
X147000000Y-124920000D03*
D18*
X147000000Y-135080000D03*
D17*
X174500000Y-108750000D03*
X174500000Y-111250000D03*
X143000000Y-124920000D03*
D18*
X143000000Y-135080000D03*
D17*
X155000000Y-124920000D03*
D18*
X155000000Y-135080000D03*
D17*
X135000000Y-124920000D03*
D18*
X135000000Y-135080000D03*
D17*
X107000000Y-104920000D03*
D18*
X107000000Y-115080000D03*
D21*
X84784511Y-123922011D02*
X84784511Y-125773999D01*
X83610000Y-122747500D02*
X83610000Y-118547729D01*
X83610000Y-126948510D02*
X83610000Y-134247500D01*
X99657729Y-102500000D02*
X192500000Y-102500000D01*
X192500000Y-102500000D02*
X197500000Y-107500000D01*
X83610000Y-122747500D02*
X84784511Y-123922011D01*
X83610000Y-118547729D02*
X99657729Y-102500000D01*
X84784511Y-125773999D02*
X83610000Y-126948510D01*
X82000000Y-135177500D02*
X83610000Y-136787500D01*
X83610000Y-125287500D02*
X82000000Y-126897500D01*
X82000000Y-126897500D02*
X82000000Y-135177500D01*
X87324511Y-133072989D02*
X86150000Y-134247500D01*
X86150000Y-122747500D02*
X87324511Y-123922011D01*
X87324511Y-123922011D02*
X87324511Y-133072989D01*
X84975489Y-135612989D02*
X86150000Y-136787500D01*
X86150000Y-125287500D02*
X84975489Y-126462011D01*
X84975489Y-126462011D02*
X84975489Y-135612989D01*
X89864511Y-123922011D02*
X89864511Y-133072989D01*
X89864511Y-133072989D02*
X88690000Y-134247500D01*
X97500000Y-107500000D02*
X91944520Y-113055480D01*
X91944520Y-113055480D02*
X91944520Y-119492980D01*
X91944520Y-119492980D02*
X88690000Y-122747500D01*
X88690000Y-122747500D02*
X89864511Y-123922011D01*
X87500000Y-135597500D02*
X88690000Y-136787500D01*
X88690000Y-132586490D02*
X87500000Y-133776490D01*
X87500000Y-133776490D02*
X87500000Y-135597500D01*
X88690000Y-125287500D02*
X88690000Y-132586490D01*
X92404511Y-123922011D02*
X92404511Y-133072989D01*
X91230000Y-122747500D02*
X92404511Y-123922011D01*
X92404511Y-133072989D02*
X91230000Y-134247500D01*
X90000000Y-135557500D02*
X91230000Y-136787500D01*
X91230000Y-132586490D02*
X90000000Y-133816490D01*
X91230000Y-125287500D02*
X91230000Y-132586490D01*
X90000000Y-133816490D02*
X90000000Y-135557500D01*
X93770000Y-122747500D02*
X93770000Y-136787500D01*
X107000000Y-104920000D02*
X102580000Y-104920000D01*
X102580000Y-104920000D02*
X97500000Y-110000000D01*
X129160000Y-115080000D02*
X115000000Y-115080000D01*
X139000000Y-124920000D02*
X129160000Y-115080000D01*
X165040000Y-106000000D02*
X163040000Y-104000000D01*
X163040000Y-104000000D02*
X159000000Y-104000000D01*
X139000000Y-124000000D02*
X139000000Y-124920000D01*
X107000000Y-115080000D02*
X115000000Y-115080000D01*
X159000000Y-104000000D02*
X139000000Y-124000000D01*
X111000000Y-104920000D02*
X105000000Y-110920000D01*
X117157729Y-130000000D02*
X122500000Y-130000000D01*
X105000000Y-110920000D02*
X105000000Y-117842271D01*
X105000000Y-117842271D02*
X117157729Y-130000000D01*
X134500000Y-110000000D02*
X147500000Y-110000000D01*
X115000000Y-104920000D02*
X129420000Y-104920000D01*
X129420000Y-104920000D02*
X134500000Y-110000000D01*
X143000000Y-124920000D02*
X143000000Y-131080000D01*
X158000000Y-106000000D02*
X143000000Y-121000000D01*
X143000000Y-121000000D02*
X143000000Y-124920000D01*
X162500000Y-106000000D02*
X158000000Y-106000000D01*
X143000000Y-131080000D02*
X139000000Y-135080000D01*
X167580000Y-113620000D02*
X167580000Y-114020000D01*
X167580000Y-114020000D02*
X147644511Y-133955489D01*
X147644511Y-133955489D02*
X144124511Y-133955489D01*
X144124511Y-133955489D02*
X143000000Y-135080000D01*
X144404102Y-131266198D02*
X139170300Y-136500000D01*
X155000000Y-123660000D02*
X155000000Y-124920000D01*
X139170300Y-136500000D02*
X136420000Y-136500000D01*
X136420000Y-136500000D02*
X135000000Y-135080000D01*
X148653802Y-131266198D02*
X144404102Y-131266198D01*
X165040000Y-113620000D02*
X155000000Y-123660000D01*
X155000000Y-124920000D02*
X148653802Y-131266198D01*
X155000000Y-135080000D02*
X156920000Y-137000000D01*
X156920000Y-137000000D02*
X188000000Y-137000000D01*
X188000000Y-137000000D02*
X193500000Y-131500000D01*
X157500000Y-111250000D02*
X160130000Y-111250000D01*
X160130000Y-111250000D02*
X162500000Y-113620000D01*
X101390000Y-122747500D02*
X101390000Y-136787500D01*
X174500000Y-108750000D02*
X172870000Y-108750000D01*
X96310000Y-122747500D02*
X96310000Y-136787500D01*
X172870000Y-108750000D02*
X170120000Y-106000000D01*
G04 #@! TA.AperFunction,Conductor*
G36*
X200433621Y-98528502D02*
G01*
X200480114Y-98582158D01*
X200491500Y-98634500D01*
X200491500Y-141365500D01*
X200471498Y-141433621D01*
X200417842Y-141480114D01*
X200365500Y-141491500D01*
X75134500Y-141491500D01*
X75066379Y-141471498D01*
X75019886Y-141417842D01*
X75008500Y-141365500D01*
X75008500Y-126877443D01*
X81361780Y-126877443D01*
X81362526Y-126885335D01*
X81365941Y-126921461D01*
X81366500Y-126933319D01*
X81366500Y-135098733D01*
X81365973Y-135109916D01*
X81364298Y-135117409D01*
X81364547Y-135125335D01*
X81364547Y-135125336D01*
X81366438Y-135185486D01*
X81366500Y-135189445D01*
X81366500Y-135217356D01*
X81366997Y-135221290D01*
X81366997Y-135221291D01*
X81367005Y-135221356D01*
X81367938Y-135233193D01*
X81369327Y-135277389D01*
X81374978Y-135296839D01*
X81378987Y-135316200D01*
X81381526Y-135336297D01*
X81384445Y-135343668D01*
X81384445Y-135343670D01*
X81397804Y-135377412D01*
X81401649Y-135388642D01*
X81406983Y-135407001D01*
X81413982Y-135431093D01*
X81418015Y-135437912D01*
X81418017Y-135437917D01*
X81424293Y-135448528D01*
X81432988Y-135466276D01*
X81440448Y-135485117D01*
X81445110Y-135491533D01*
X81445110Y-135491534D01*
X81466436Y-135520887D01*
X81472952Y-135530807D01*
X81481788Y-135545747D01*
X81495458Y-135568862D01*
X81509779Y-135583183D01*
X81522619Y-135598216D01*
X81534528Y-135614607D01*
X81554584Y-135631199D01*
X81568605Y-135642798D01*
X81577384Y-135650788D01*
X82259778Y-136333182D01*
X82293804Y-136395494D01*
X82292100Y-136455948D01*
X82270989Y-136532070D01*
X82270441Y-136537200D01*
X82270440Y-136537204D01*
X82266933Y-136570022D01*
X82247251Y-136754195D01*
X82247548Y-136759348D01*
X82247548Y-136759351D01*
X82256375Y-136912443D01*
X82260110Y-136977215D01*
X82261247Y-136982261D01*
X82261248Y-136982267D01*
X82280382Y-137067168D01*
X82309222Y-137195139D01*
X82393266Y-137402116D01*
X82438625Y-137476135D01*
X82507291Y-137588188D01*
X82509987Y-137592588D01*
X82656250Y-137761438D01*
X82828126Y-137904132D01*
X83021000Y-138016838D01*
X83229692Y-138096530D01*
X83234760Y-138097561D01*
X83234763Y-138097562D01*
X83339604Y-138118892D01*
X83448597Y-138141067D01*
X83453772Y-138141257D01*
X83453774Y-138141257D01*
X83666673Y-138149064D01*
X83666677Y-138149064D01*
X83671837Y-138149253D01*
X83676957Y-138148597D01*
X83676959Y-138148597D01*
X83888288Y-138121525D01*
X83888289Y-138121525D01*
X83893416Y-138120868D01*
X83898366Y-138119383D01*
X84102429Y-138058161D01*
X84102434Y-138058159D01*
X84107384Y-138056674D01*
X84307994Y-137958396D01*
X84489860Y-137828673D01*
X84648096Y-137670989D01*
X84675035Y-137633500D01*
X84778453Y-137489577D01*
X84779776Y-137490528D01*
X84826645Y-137447357D01*
X84896580Y-137435125D01*
X84962026Y-137462644D01*
X84989875Y-137494494D01*
X84998507Y-137508580D01*
X85049987Y-137592588D01*
X85196250Y-137761438D01*
X85368126Y-137904132D01*
X85561000Y-138016838D01*
X85769692Y-138096530D01*
X85774760Y-138097561D01*
X85774763Y-138097562D01*
X85879604Y-138118892D01*
X85988597Y-138141067D01*
X85993772Y-138141257D01*
X85993774Y-138141257D01*
X86206673Y-138149064D01*
X86206677Y-138149064D01*
X86211837Y-138149253D01*
X86216957Y-138148597D01*
X86216959Y-138148597D01*
X86428288Y-138121525D01*
X86428289Y-138121525D01*
X86433416Y-138120868D01*
X86438366Y-138119383D01*
X86642429Y-138058161D01*
X86642434Y-138058159D01*
X86647384Y-138056674D01*
X86847994Y-137958396D01*
X87029860Y-137828673D01*
X87188096Y-137670989D01*
X87215035Y-137633500D01*
X87318453Y-137489577D01*
X87319776Y-137490528D01*
X87366645Y-137447357D01*
X87436580Y-137435125D01*
X87502026Y-137462644D01*
X87529875Y-137494494D01*
X87538507Y-137508580D01*
X87589987Y-137592588D01*
X87736250Y-137761438D01*
X87908126Y-137904132D01*
X88101000Y-138016838D01*
X88309692Y-138096530D01*
X88314760Y-138097561D01*
X88314763Y-138097562D01*
X88419604Y-138118892D01*
X88528597Y-138141067D01*
X88533772Y-138141257D01*
X88533774Y-138141257D01*
X88746673Y-138149064D01*
X88746677Y-138149064D01*
X88751837Y-138149253D01*
X88756957Y-138148597D01*
X88756959Y-138148597D01*
X88968288Y-138121525D01*
X88968289Y-138121525D01*
X88973416Y-138120868D01*
X88978366Y-138119383D01*
X89182429Y-138058161D01*
X89182434Y-138058159D01*
X89187384Y-138056674D01*
X89387994Y-137958396D01*
X89569860Y-137828673D01*
X89728096Y-137670989D01*
X89755035Y-137633500D01*
X89858453Y-137489577D01*
X89859776Y-137490528D01*
X89906645Y-137447357D01*
X89976580Y-137435125D01*
X90042026Y-137462644D01*
X90069875Y-137494494D01*
X90078507Y-137508580D01*
X90129987Y-137592588D01*
X90276250Y-137761438D01*
X90448126Y-137904132D01*
X90641000Y-138016838D01*
X90849692Y-138096530D01*
X90854760Y-138097561D01*
X90854763Y-138097562D01*
X90959604Y-138118892D01*
X91068597Y-138141067D01*
X91073772Y-138141257D01*
X91073774Y-138141257D01*
X91286673Y-138149064D01*
X91286677Y-138149064D01*
X91291837Y-138149253D01*
X91296957Y-138148597D01*
X91296959Y-138148597D01*
X91508288Y-138121525D01*
X91508289Y-138121525D01*
X91513416Y-138120868D01*
X91518366Y-138119383D01*
X91722429Y-138058161D01*
X91722434Y-138058159D01*
X91727384Y-138056674D01*
X91927994Y-137958396D01*
X92109860Y-137828673D01*
X92268096Y-137670989D01*
X92295035Y-137633500D01*
X92398453Y-137489577D01*
X92399776Y-137490528D01*
X92446645Y-137447357D01*
X92516580Y-137435125D01*
X92582026Y-137462644D01*
X92609875Y-137494494D01*
X92618507Y-137508580D01*
X92669987Y-137592588D01*
X92816250Y-137761438D01*
X92988126Y-137904132D01*
X93181000Y-138016838D01*
X93389692Y-138096530D01*
X93394760Y-138097561D01*
X93394763Y-138097562D01*
X93499604Y-138118892D01*
X93608597Y-138141067D01*
X93613772Y-138141257D01*
X93613774Y-138141257D01*
X93826673Y-138149064D01*
X93826677Y-138149064D01*
X93831837Y-138149253D01*
X93836957Y-138148597D01*
X93836959Y-138148597D01*
X94048288Y-138121525D01*
X94048289Y-138121525D01*
X94053416Y-138120868D01*
X94058366Y-138119383D01*
X94262429Y-138058161D01*
X94262434Y-138058159D01*
X94267384Y-138056674D01*
X94467994Y-137958396D01*
X94649860Y-137828673D01*
X94808096Y-137670989D01*
X94835035Y-137633500D01*
X94938453Y-137489577D01*
X94939776Y-137490528D01*
X94986645Y-137447357D01*
X95056580Y-137435125D01*
X95122026Y-137462644D01*
X95149875Y-137494494D01*
X95158507Y-137508580D01*
X95209987Y-137592588D01*
X95356250Y-137761438D01*
X95528126Y-137904132D01*
X95721000Y-138016838D01*
X95929692Y-138096530D01*
X95934760Y-138097561D01*
X95934763Y-138097562D01*
X96039604Y-138118892D01*
X96148597Y-138141067D01*
X96153772Y-138141257D01*
X96153774Y-138141257D01*
X96366673Y-138149064D01*
X96366677Y-138149064D01*
X96371837Y-138149253D01*
X96376957Y-138148597D01*
X96376959Y-138148597D01*
X96588288Y-138121525D01*
X96588289Y-138121525D01*
X96593416Y-138120868D01*
X96598366Y-138119383D01*
X96802429Y-138058161D01*
X96802434Y-138058159D01*
X96807384Y-138056674D01*
X97007994Y-137958396D01*
X97072544Y-137912353D01*
X98089977Y-137912353D01*
X98095258Y-137919407D01*
X98256756Y-138013779D01*
X98266042Y-138018229D01*
X98465001Y-138094203D01*
X98474899Y-138097079D01*
X98683595Y-138139538D01*
X98693823Y-138140757D01*
X98906650Y-138148562D01*
X98916936Y-138148095D01*
X99128185Y-138121034D01*
X99138262Y-138118892D01*
X99342255Y-138057691D01*
X99351842Y-138053933D01*
X99543098Y-137960238D01*
X99551944Y-137954965D01*
X99599247Y-137921223D01*
X99607648Y-137910523D01*
X99600660Y-137897370D01*
X98862812Y-137159522D01*
X98848868Y-137151908D01*
X98847035Y-137152039D01*
X98840420Y-137156290D01*
X98096737Y-137899973D01*
X98089977Y-137912353D01*
X97072544Y-137912353D01*
X97189860Y-137828673D01*
X97348096Y-137670989D01*
X97375035Y-137633500D01*
X97478453Y-137489577D01*
X97479640Y-137490430D01*
X97526960Y-137446862D01*
X97596897Y-137434645D01*
X97662338Y-137462178D01*
X97690166Y-137494012D01*
X97716459Y-137536919D01*
X97726916Y-137546380D01*
X97735694Y-137542596D01*
X98477978Y-136800312D01*
X98484356Y-136788632D01*
X99214408Y-136788632D01*
X99214539Y-136790465D01*
X99218790Y-136797080D01*
X99960474Y-137538764D01*
X99972484Y-137545323D01*
X99984223Y-137536355D01*
X100018022Y-137489319D01*
X100019277Y-137490221D01*
X100066391Y-137446855D01*
X100136330Y-137434648D01*
X100201767Y-137462191D01*
X100229580Y-137494013D01*
X100287287Y-137588183D01*
X100287291Y-137588188D01*
X100289987Y-137592588D01*
X100436250Y-137761438D01*
X100608126Y-137904132D01*
X100801000Y-138016838D01*
X101009692Y-138096530D01*
X101014760Y-138097561D01*
X101014763Y-138097562D01*
X101119604Y-138118892D01*
X101228597Y-138141067D01*
X101233772Y-138141257D01*
X101233774Y-138141257D01*
X101446673Y-138149064D01*
X101446677Y-138149064D01*
X101451837Y-138149253D01*
X101456957Y-138148597D01*
X101456959Y-138148597D01*
X101668288Y-138121525D01*
X101668289Y-138121525D01*
X101673416Y-138120868D01*
X101678366Y-138119383D01*
X101882429Y-138058161D01*
X101882434Y-138058159D01*
X101887384Y-138056674D01*
X102087994Y-137958396D01*
X102269860Y-137828673D01*
X102428096Y-137670989D01*
X102455035Y-137633500D01*
X102555435Y-137493777D01*
X102558453Y-137489577D01*
X102561602Y-137483207D01*
X102655136Y-137293953D01*
X102655137Y-137293951D01*
X102657430Y-137289311D01*
X102708841Y-137120099D01*
X102720865Y-137080523D01*
X102720865Y-137080521D01*
X102722370Y-137075569D01*
X102751529Y-136854090D01*
X102753156Y-136787500D01*
X102734852Y-136564861D01*
X102680431Y-136348202D01*
X102591354Y-136143340D01*
X102506725Y-136012524D01*
X102472822Y-135960117D01*
X102472820Y-135960114D01*
X102470014Y-135955777D01*
X102319670Y-135790551D01*
X102315619Y-135787352D01*
X102315615Y-135787348D01*
X102148414Y-135655300D01*
X102148410Y-135655298D01*
X102144359Y-135652098D01*
X102103053Y-135629296D01*
X102053084Y-135578864D01*
X102038312Y-135509421D01*
X102063428Y-135443016D01*
X102090780Y-135416409D01*
X102153683Y-135371541D01*
X102269860Y-135288673D01*
X102428096Y-135130989D01*
X102438237Y-135116877D01*
X102555435Y-134953777D01*
X102558453Y-134949577D01*
X102571995Y-134922178D01*
X102611371Y-134842505D01*
X112866984Y-134842505D01*
X112892738Y-135112441D01*
X112893822Y-135116870D01*
X112893823Y-135116877D01*
X112919410Y-135221438D01*
X112957190Y-135375832D01*
X112958905Y-135380067D01*
X112958906Y-135380069D01*
X113055949Y-135619658D01*
X113058988Y-135627160D01*
X113196001Y-135861161D01*
X113254181Y-135933911D01*
X113337981Y-136038697D01*
X113365359Y-136072932D01*
X113368700Y-136076053D01*
X113516763Y-136214366D01*
X113563512Y-136258037D01*
X113786312Y-136412598D01*
X113790388Y-136414626D01*
X113790390Y-136414627D01*
X114025003Y-136531346D01*
X114025006Y-136531347D01*
X114029090Y-136533379D01*
X114286760Y-136617847D01*
X114291251Y-136618627D01*
X114291252Y-136618627D01*
X114550144Y-136663579D01*
X114550152Y-136663580D01*
X114553925Y-136664235D01*
X114557762Y-136664426D01*
X114638029Y-136668422D01*
X114638037Y-136668422D01*
X114639600Y-136668500D01*
X115328884Y-136668500D01*
X115331152Y-136668335D01*
X115331164Y-136668335D01*
X115462978Y-136658771D01*
X115530451Y-136653875D01*
X115534906Y-136652891D01*
X115534909Y-136652891D01*
X115790777Y-136596400D01*
X115790781Y-136596399D01*
X115795237Y-136595415D01*
X115975565Y-136527095D01*
X116044540Y-136500963D01*
X116044543Y-136500962D01*
X116048810Y-136499345D01*
X116274434Y-136374022D01*
X116281866Y-136369894D01*
X116281867Y-136369893D01*
X116285859Y-136367676D01*
X116475996Y-136222568D01*
X116497785Y-136205939D01*
X116497786Y-136205938D01*
X116501417Y-136203167D01*
X116545583Y-136157988D01*
X116617369Y-136084554D01*
X116690970Y-136009264D01*
X116732683Y-135951957D01*
X116847859Y-135793721D01*
X116850547Y-135790028D01*
X116976804Y-135550053D01*
X116982394Y-135534225D01*
X117037065Y-135379407D01*
X117067096Y-135294366D01*
X117092595Y-135164996D01*
X117118652Y-135032794D01*
X117118653Y-135032788D01*
X117119533Y-135028322D01*
X117119760Y-135023766D01*
X117132789Y-134762064D01*
X117132789Y-134762058D01*
X117133016Y-134757495D01*
X117107262Y-134487559D01*
X117100267Y-134458970D01*
X117063994Y-134310740D01*
X117042810Y-134224168D01*
X117038362Y-134213185D01*
X116942725Y-133977069D01*
X116942725Y-133977068D01*
X116941012Y-133972840D01*
X116803999Y-133738839D01*
X116672318Y-133574180D01*
X116637493Y-133530634D01*
X116637492Y-133530632D01*
X116634641Y-133527068D01*
X116594978Y-133490017D01*
X116546434Y-133444669D01*
X121092001Y-133444669D01*
X121092371Y-133451490D01*
X121097895Y-133502352D01*
X121101521Y-133517604D01*
X121146676Y-133638054D01*
X121155214Y-133653649D01*
X121231715Y-133755724D01*
X121244276Y-133768285D01*
X121346351Y-133844786D01*
X121361946Y-133853324D01*
X121482394Y-133898478D01*
X121497649Y-133902105D01*
X121548514Y-133907631D01*
X121555328Y-133908000D01*
X122227885Y-133908000D01*
X122243124Y-133903525D01*
X122244329Y-133902135D01*
X122246000Y-133894452D01*
X122246000Y-133889884D01*
X122754000Y-133889884D01*
X122758475Y-133905123D01*
X122759865Y-133906328D01*
X122767548Y-133907999D01*
X123444669Y-133907999D01*
X123451490Y-133907629D01*
X123502352Y-133902105D01*
X123517604Y-133898479D01*
X123638054Y-133853324D01*
X123653649Y-133844786D01*
X123755724Y-133768285D01*
X123768285Y-133755724D01*
X123844786Y-133653649D01*
X123853324Y-133638054D01*
X123898478Y-133517606D01*
X123902105Y-133502351D01*
X123907631Y-133451486D01*
X123908000Y-133444672D01*
X123908000Y-132772115D01*
X123903525Y-132756876D01*
X123902135Y-132755671D01*
X123894452Y-132754000D01*
X122772115Y-132754000D01*
X122756876Y-132758475D01*
X122755671Y-132759865D01*
X122754000Y-132767548D01*
X122754000Y-133889884D01*
X122246000Y-133889884D01*
X122246000Y-132772115D01*
X122241525Y-132756876D01*
X122240135Y-132755671D01*
X122232452Y-132754000D01*
X121110116Y-132754000D01*
X121094877Y-132758475D01*
X121093672Y-132759865D01*
X121092001Y-132767548D01*
X121092001Y-133444669D01*
X116546434Y-133444669D01*
X116439824Y-133345079D01*
X116439821Y-133345077D01*
X116436488Y-133341963D01*
X116213688Y-133187402D01*
X116209610Y-133185373D01*
X115974997Y-133068654D01*
X115974994Y-133068653D01*
X115970910Y-133066621D01*
X115713240Y-132982153D01*
X115708748Y-132981373D01*
X115449856Y-132936421D01*
X115449848Y-132936420D01*
X115446075Y-132935765D01*
X115438429Y-132935384D01*
X115361971Y-132931578D01*
X115361963Y-132931578D01*
X115360400Y-132931500D01*
X114671116Y-132931500D01*
X114668848Y-132931665D01*
X114668836Y-132931665D01*
X114539467Y-132941052D01*
X114469549Y-132946125D01*
X114465094Y-132947109D01*
X114465091Y-132947109D01*
X114209223Y-133003600D01*
X114209219Y-133003601D01*
X114204763Y-133004585D01*
X114135332Y-133030890D01*
X113955460Y-133099037D01*
X113955457Y-133099038D01*
X113951190Y-133100655D01*
X113798669Y-133185373D01*
X113721683Y-133228135D01*
X113714141Y-133232324D01*
X113710509Y-133235096D01*
X113555637Y-133353291D01*
X113498583Y-133396833D01*
X113309030Y-133590736D01*
X113306343Y-133594428D01*
X113306341Y-133594430D01*
X113165532Y-133787882D01*
X113149453Y-133809972D01*
X113023196Y-134049947D01*
X113021677Y-134054248D01*
X113021675Y-134054253D01*
X112982364Y-134165573D01*
X112932904Y-134305634D01*
X112929291Y-134323965D01*
X112881770Y-134565069D01*
X112880467Y-134571678D01*
X112880240Y-134576232D01*
X112880240Y-134576234D01*
X112869675Y-134788459D01*
X112866984Y-134842505D01*
X102611371Y-134842505D01*
X102655136Y-134753953D01*
X102655137Y-134753951D01*
X102657430Y-134749311D01*
X102722370Y-134535569D01*
X102751529Y-134314090D01*
X102751611Y-134310740D01*
X102753074Y-134250865D01*
X102753074Y-134250861D01*
X102753156Y-134247500D01*
X102734852Y-134024861D01*
X102680431Y-133808202D01*
X102591354Y-133603340D01*
X102515028Y-133485358D01*
X102472822Y-133420117D01*
X102472820Y-133420114D01*
X102470014Y-133415777D01*
X102319670Y-133250551D01*
X102315619Y-133247352D01*
X102315615Y-133247348D01*
X102148414Y-133115300D01*
X102148410Y-133115298D01*
X102144359Y-133112098D01*
X102139835Y-133109601D01*
X102139831Y-133109598D01*
X102088608Y-133081322D01*
X102038636Y-133030890D01*
X102023500Y-132971013D01*
X102023500Y-126567927D01*
X102043502Y-126499806D01*
X102084618Y-126460050D01*
X102087994Y-126458396D01*
X102269860Y-126328673D01*
X102291452Y-126307157D01*
X102399489Y-126199496D01*
X102428096Y-126170989D01*
X102461035Y-126125150D01*
X102555435Y-125993777D01*
X102558453Y-125989577D01*
X102571995Y-125962178D01*
X102655136Y-125793953D01*
X102655137Y-125793951D01*
X102657430Y-125789311D01*
X102722370Y-125575569D01*
X102751529Y-125354090D01*
X102753156Y-125287500D01*
X102734852Y-125064861D01*
X102680431Y-124848202D01*
X102591354Y-124643340D01*
X102470014Y-124455777D01*
X102319670Y-124290551D01*
X102315619Y-124287352D01*
X102315615Y-124287348D01*
X102148414Y-124155300D01*
X102148410Y-124155298D01*
X102144359Y-124152098D01*
X102103053Y-124129296D01*
X102053084Y-124078864D01*
X102038312Y-124009421D01*
X102063428Y-123943016D01*
X102090780Y-123916409D01*
X102155110Y-123870523D01*
X102269860Y-123788673D01*
X102428096Y-123630989D01*
X102445348Y-123606981D01*
X102555435Y-123453777D01*
X102558453Y-123449577D01*
X102570630Y-123424940D01*
X102655136Y-123253953D01*
X102655137Y-123253951D01*
X102657430Y-123249311D01*
X102722370Y-123035569D01*
X102751529Y-122814090D01*
X102753156Y-122747500D01*
X102734852Y-122524861D01*
X102680431Y-122308202D01*
X102591354Y-122103340D01*
X102470014Y-121915777D01*
X102319670Y-121750551D01*
X102315619Y-121747352D01*
X102315615Y-121747348D01*
X102148414Y-121615300D01*
X102148410Y-121615298D01*
X102144359Y-121612098D01*
X101948789Y-121504138D01*
X101943920Y-121502414D01*
X101943916Y-121502412D01*
X101743087Y-121431295D01*
X101743083Y-121431294D01*
X101738212Y-121429569D01*
X101733119Y-121428662D01*
X101733116Y-121428661D01*
X101523373Y-121391300D01*
X101523367Y-121391299D01*
X101518284Y-121390394D01*
X101444452Y-121389492D01*
X101300081Y-121387728D01*
X101300079Y-121387728D01*
X101294911Y-121387665D01*
X101074091Y-121421455D01*
X100861756Y-121490857D01*
X100787708Y-121529404D01*
X100741678Y-121553366D01*
X100663607Y-121594007D01*
X100659474Y-121597110D01*
X100659471Y-121597112D01*
X100489100Y-121725030D01*
X100484965Y-121728135D01*
X100481393Y-121731873D01*
X100398580Y-121818532D01*
X100330629Y-121889638D01*
X100223204Y-122047118D01*
X100222898Y-122047566D01*
X100167987Y-122092569D01*
X100097462Y-122100740D01*
X100033715Y-122069486D01*
X100013017Y-122045001D01*
X99983062Y-121998697D01*
X99972377Y-121989495D01*
X99962812Y-121993898D01*
X99222022Y-122734688D01*
X99214408Y-122748632D01*
X99214539Y-122750465D01*
X99218790Y-122757080D01*
X99960474Y-123498764D01*
X99972484Y-123505323D01*
X99984223Y-123496355D01*
X100018022Y-123449319D01*
X100019277Y-123450221D01*
X100066391Y-123406855D01*
X100136330Y-123394648D01*
X100201767Y-123422191D01*
X100229580Y-123454013D01*
X100287287Y-123548183D01*
X100287291Y-123548188D01*
X100289987Y-123552588D01*
X100436250Y-123721438D01*
X100608126Y-123864132D01*
X100612593Y-123866742D01*
X100681445Y-123906976D01*
X100730169Y-123958614D01*
X100743240Y-124028397D01*
X100716509Y-124094169D01*
X100676055Y-124127527D01*
X100663607Y-124134007D01*
X100659474Y-124137110D01*
X100659471Y-124137112D01*
X100489100Y-124265030D01*
X100484965Y-124268135D01*
X100481393Y-124271873D01*
X100413547Y-124342870D01*
X100330629Y-124429638D01*
X100327720Y-124433903D01*
X100327714Y-124433911D01*
X100298957Y-124476067D01*
X100223204Y-124587118D01*
X100222898Y-124587566D01*
X100167987Y-124632569D01*
X100097462Y-124640740D01*
X100033715Y-124609486D01*
X100013017Y-124585001D01*
X99983062Y-124538697D01*
X99972377Y-124529495D01*
X99962812Y-124533898D01*
X99222022Y-125274688D01*
X99214408Y-125288632D01*
X99214539Y-125290465D01*
X99218790Y-125297080D01*
X99960474Y-126038764D01*
X99972484Y-126045323D01*
X99984223Y-126036355D01*
X100018022Y-125989319D01*
X100019277Y-125990221D01*
X100066391Y-125946855D01*
X100136330Y-125934648D01*
X100201767Y-125962191D01*
X100229580Y-125994013D01*
X100287287Y-126088183D01*
X100287291Y-126088188D01*
X100289987Y-126092588D01*
X100436250Y-126261438D01*
X100608126Y-126404132D01*
X100694070Y-126454353D01*
X100742794Y-126505991D01*
X100756500Y-126563141D01*
X100756500Y-132969192D01*
X100736498Y-133037313D01*
X100688683Y-133080953D01*
X100663607Y-133094007D01*
X100659474Y-133097110D01*
X100659471Y-133097112D01*
X100539216Y-133187402D01*
X100484965Y-133228135D01*
X100481393Y-133231873D01*
X100335224Y-133384830D01*
X100330629Y-133389638D01*
X100327720Y-133393903D01*
X100327714Y-133393911D01*
X100323152Y-133400599D01*
X100223204Y-133547118D01*
X100222898Y-133547566D01*
X100167987Y-133592569D01*
X100097462Y-133600740D01*
X100033715Y-133569486D01*
X100013017Y-133545001D01*
X99983062Y-133498697D01*
X99972377Y-133489495D01*
X99962812Y-133493898D01*
X99222022Y-134234688D01*
X99214408Y-134248632D01*
X99214539Y-134250465D01*
X99218790Y-134257080D01*
X99960474Y-134998764D01*
X99972484Y-135005323D01*
X99984223Y-134996355D01*
X100018022Y-134949319D01*
X100019277Y-134950221D01*
X100066391Y-134906855D01*
X100136330Y-134894648D01*
X100201767Y-134922191D01*
X100229580Y-134954013D01*
X100287287Y-135048183D01*
X100287291Y-135048188D01*
X100289987Y-135052588D01*
X100436250Y-135221438D01*
X100608126Y-135364132D01*
X100628746Y-135376181D01*
X100681445Y-135406976D01*
X100730169Y-135458614D01*
X100743240Y-135528397D01*
X100716509Y-135594169D01*
X100676055Y-135627527D01*
X100663607Y-135634007D01*
X100659474Y-135637110D01*
X100659471Y-135637112D01*
X100489100Y-135765030D01*
X100484965Y-135768135D01*
X100459894Y-135794370D01*
X100410080Y-135846498D01*
X100330629Y-135929638D01*
X100223204Y-136087118D01*
X100222898Y-136087566D01*
X100167987Y-136132569D01*
X100097462Y-136140740D01*
X100033715Y-136109486D01*
X100013017Y-136085001D01*
X99983062Y-136038697D01*
X99972377Y-136029495D01*
X99962812Y-136033898D01*
X99222022Y-136774688D01*
X99214408Y-136788632D01*
X98484356Y-136788632D01*
X98485592Y-136786368D01*
X98485461Y-136784535D01*
X98481210Y-136777920D01*
X97739849Y-136036559D01*
X97728313Y-136030259D01*
X97716031Y-136039882D01*
X97683499Y-136087572D01*
X97628587Y-136132575D01*
X97558063Y-136140746D01*
X97494316Y-136109492D01*
X97473618Y-136085008D01*
X97392822Y-135960117D01*
X97392820Y-135960114D01*
X97390014Y-135955777D01*
X97239670Y-135790551D01*
X97235619Y-135787352D01*
X97235615Y-135787348D01*
X97068414Y-135655300D01*
X97068410Y-135655298D01*
X97064359Y-135652098D01*
X97023053Y-135629296D01*
X96973084Y-135578864D01*
X96958312Y-135509421D01*
X96983428Y-135443016D01*
X97010780Y-135416409D01*
X97072545Y-135372353D01*
X98089977Y-135372353D01*
X98095258Y-135379407D01*
X98142479Y-135407001D01*
X98191203Y-135458639D01*
X98204274Y-135528422D01*
X98177543Y-135594194D01*
X98137087Y-135627553D01*
X98128466Y-135632041D01*
X98119734Y-135637539D01*
X98099677Y-135652599D01*
X98091223Y-135663927D01*
X98097968Y-135676258D01*
X98837188Y-136415478D01*
X98851132Y-136423092D01*
X98852965Y-136422961D01*
X98859580Y-136418710D01*
X99603389Y-135674901D01*
X99610410Y-135662044D01*
X99603611Y-135652713D01*
X99599559Y-135650021D01*
X99562116Y-135629352D01*
X99512145Y-135578920D01*
X99497373Y-135509477D01*
X99522489Y-135443072D01*
X99549840Y-135416465D01*
X99599247Y-135381223D01*
X99607648Y-135370523D01*
X99600660Y-135357370D01*
X98862812Y-134619522D01*
X98848868Y-134611908D01*
X98847035Y-134612039D01*
X98840420Y-134616290D01*
X98096737Y-135359973D01*
X98089977Y-135372353D01*
X97072545Y-135372353D01*
X97073683Y-135371541D01*
X97189860Y-135288673D01*
X97348096Y-135130989D01*
X97358237Y-135116877D01*
X97478453Y-134949577D01*
X97479640Y-134950430D01*
X97526960Y-134906862D01*
X97596897Y-134894645D01*
X97662338Y-134922178D01*
X97690166Y-134954012D01*
X97716459Y-134996919D01*
X97726916Y-135006380D01*
X97735694Y-135002596D01*
X98477978Y-134260312D01*
X98485592Y-134246368D01*
X98485461Y-134244535D01*
X98481210Y-134237920D01*
X97739849Y-133496559D01*
X97728313Y-133490259D01*
X97716031Y-133499882D01*
X97683499Y-133547572D01*
X97628587Y-133592575D01*
X97558063Y-133600746D01*
X97494316Y-133569492D01*
X97473618Y-133545008D01*
X97392822Y-133420117D01*
X97392820Y-133420114D01*
X97390014Y-133415777D01*
X97239670Y-133250551D01*
X97235619Y-133247352D01*
X97235615Y-133247348D01*
X97079338Y-133123927D01*
X98091223Y-133123927D01*
X98097968Y-133136258D01*
X98837188Y-133875478D01*
X98851132Y-133883092D01*
X98852965Y-133882961D01*
X98859580Y-133878710D01*
X99603389Y-133134901D01*
X99610410Y-133122044D01*
X99603611Y-133112713D01*
X99599554Y-133110018D01*
X99413117Y-133007099D01*
X99403705Y-133002869D01*
X99202959Y-132931780D01*
X99192989Y-132929146D01*
X98983327Y-132891801D01*
X98973073Y-132890831D01*
X98760116Y-132888228D01*
X98749832Y-132888948D01*
X98539321Y-132921161D01*
X98529293Y-132923550D01*
X98326868Y-132989712D01*
X98317359Y-132993709D01*
X98128466Y-133092040D01*
X98119734Y-133097539D01*
X98099677Y-133112599D01*
X98091223Y-133123927D01*
X97079338Y-133123927D01*
X97068414Y-133115300D01*
X97068410Y-133115298D01*
X97064359Y-133112098D01*
X97059835Y-133109601D01*
X97059831Y-133109598D01*
X97008608Y-133081322D01*
X96958636Y-133030890D01*
X96943500Y-132971013D01*
X96943500Y-126567927D01*
X96963502Y-126499806D01*
X97004618Y-126460050D01*
X97007994Y-126458396D01*
X97072544Y-126412353D01*
X98089977Y-126412353D01*
X98095258Y-126419407D01*
X98256756Y-126513779D01*
X98266042Y-126518229D01*
X98465001Y-126594203D01*
X98474899Y-126597079D01*
X98683595Y-126639538D01*
X98693823Y-126640757D01*
X98906650Y-126648562D01*
X98916936Y-126648095D01*
X99128185Y-126621034D01*
X99138262Y-126618892D01*
X99342255Y-126557691D01*
X99351842Y-126553933D01*
X99543098Y-126460238D01*
X99551944Y-126454965D01*
X99599247Y-126421223D01*
X99607648Y-126410523D01*
X99600660Y-126397370D01*
X98862812Y-125659522D01*
X98848868Y-125651908D01*
X98847035Y-125652039D01*
X98840420Y-125656290D01*
X98096737Y-126399973D01*
X98089977Y-126412353D01*
X97072544Y-126412353D01*
X97189860Y-126328673D01*
X97211452Y-126307157D01*
X97319489Y-126199496D01*
X97348096Y-126170989D01*
X97381035Y-126125150D01*
X97478453Y-125989577D01*
X97479640Y-125990430D01*
X97526960Y-125946862D01*
X97596897Y-125934645D01*
X97662338Y-125962178D01*
X97690166Y-125994012D01*
X97716459Y-126036919D01*
X97726916Y-126046380D01*
X97735694Y-126042596D01*
X98477978Y-125300312D01*
X98485592Y-125286368D01*
X98485461Y-125284535D01*
X98481210Y-125277920D01*
X97739849Y-124536559D01*
X97728313Y-124530259D01*
X97716031Y-124539882D01*
X97683499Y-124587572D01*
X97628587Y-124632575D01*
X97558063Y-124640746D01*
X97494316Y-124609492D01*
X97473618Y-124585008D01*
X97392822Y-124460117D01*
X97392820Y-124460114D01*
X97390014Y-124455777D01*
X97239670Y-124290551D01*
X97235619Y-124287352D01*
X97235615Y-124287348D01*
X97068414Y-124155300D01*
X97068410Y-124155298D01*
X97064359Y-124152098D01*
X97023053Y-124129296D01*
X96973084Y-124078864D01*
X96958312Y-124009421D01*
X96983428Y-123943016D01*
X97010780Y-123916409D01*
X97072544Y-123872353D01*
X98089977Y-123872353D01*
X98095258Y-123879407D01*
X98142479Y-123907001D01*
X98191203Y-123958639D01*
X98204274Y-124028422D01*
X98177543Y-124094194D01*
X98137087Y-124127553D01*
X98128466Y-124132041D01*
X98119734Y-124137539D01*
X98099677Y-124152599D01*
X98091223Y-124163927D01*
X98097968Y-124176258D01*
X98837188Y-124915478D01*
X98851132Y-124923092D01*
X98852965Y-124922961D01*
X98859580Y-124918710D01*
X99603389Y-124174901D01*
X99610410Y-124162044D01*
X99603611Y-124152713D01*
X99599559Y-124150021D01*
X99562116Y-124129352D01*
X99512145Y-124078920D01*
X99497373Y-124009477D01*
X99522489Y-123943072D01*
X99549840Y-123916465D01*
X99599247Y-123881223D01*
X99607648Y-123870523D01*
X99600660Y-123857370D01*
X98862812Y-123119522D01*
X98848868Y-123111908D01*
X98847035Y-123112039D01*
X98840420Y-123116290D01*
X98096737Y-123859973D01*
X98089977Y-123872353D01*
X97072544Y-123872353D01*
X97075110Y-123870523D01*
X97189860Y-123788673D01*
X97348096Y-123630989D01*
X97365348Y-123606981D01*
X97478453Y-123449577D01*
X97479640Y-123450430D01*
X97526960Y-123406862D01*
X97596897Y-123394645D01*
X97662338Y-123422178D01*
X97690166Y-123454012D01*
X97716459Y-123496919D01*
X97726916Y-123506380D01*
X97735694Y-123502596D01*
X98477978Y-122760312D01*
X98485592Y-122746368D01*
X98485461Y-122744535D01*
X98481210Y-122737920D01*
X97739849Y-121996559D01*
X97728313Y-121990259D01*
X97716031Y-121999882D01*
X97683499Y-122047572D01*
X97628587Y-122092575D01*
X97558063Y-122100746D01*
X97494316Y-122069492D01*
X97473618Y-122045008D01*
X97392822Y-121920117D01*
X97392820Y-121920114D01*
X97390014Y-121915777D01*
X97239670Y-121750551D01*
X97235619Y-121747352D01*
X97235615Y-121747348D01*
X97079338Y-121623927D01*
X98091223Y-121623927D01*
X98097968Y-121636258D01*
X98837188Y-122375478D01*
X98851132Y-122383092D01*
X98852965Y-122382961D01*
X98859580Y-122378710D01*
X99603389Y-121634901D01*
X99610410Y-121622044D01*
X99603611Y-121612713D01*
X99599554Y-121610018D01*
X99413117Y-121507099D01*
X99403705Y-121502869D01*
X99202959Y-121431780D01*
X99192989Y-121429146D01*
X98983327Y-121391801D01*
X98973073Y-121390831D01*
X98760116Y-121388228D01*
X98749832Y-121388948D01*
X98539321Y-121421161D01*
X98529293Y-121423550D01*
X98326868Y-121489712D01*
X98317359Y-121493709D01*
X98128466Y-121592040D01*
X98119734Y-121597539D01*
X98099677Y-121612599D01*
X98091223Y-121623927D01*
X97079338Y-121623927D01*
X97068414Y-121615300D01*
X97068410Y-121615298D01*
X97064359Y-121612098D01*
X96868789Y-121504138D01*
X96863920Y-121502414D01*
X96863916Y-121502412D01*
X96663087Y-121431295D01*
X96663083Y-121431294D01*
X96658212Y-121429569D01*
X96653119Y-121428662D01*
X96653116Y-121428661D01*
X96443373Y-121391300D01*
X96443367Y-121391299D01*
X96438284Y-121390394D01*
X96364452Y-121389492D01*
X96220081Y-121387728D01*
X96220079Y-121387728D01*
X96214911Y-121387665D01*
X95994091Y-121421455D01*
X95781756Y-121490857D01*
X95707708Y-121529404D01*
X95661678Y-121553366D01*
X95583607Y-121594007D01*
X95579474Y-121597110D01*
X95579471Y-121597112D01*
X95409100Y-121725030D01*
X95404965Y-121728135D01*
X95401393Y-121731873D01*
X95318580Y-121818532D01*
X95250629Y-121889638D01*
X95143201Y-122047121D01*
X95088293Y-122092121D01*
X95017768Y-122100292D01*
X94954021Y-122069038D01*
X94933324Y-122044554D01*
X94852822Y-121920117D01*
X94852820Y-121920114D01*
X94850014Y-121915777D01*
X94699670Y-121750551D01*
X94695619Y-121747352D01*
X94695615Y-121747348D01*
X94528414Y-121615300D01*
X94528410Y-121615298D01*
X94524359Y-121612098D01*
X94328789Y-121504138D01*
X94323920Y-121502414D01*
X94323916Y-121502412D01*
X94123087Y-121431295D01*
X94123083Y-121431294D01*
X94118212Y-121429569D01*
X94113119Y-121428662D01*
X94113116Y-121428661D01*
X93903373Y-121391300D01*
X93903367Y-121391299D01*
X93898284Y-121390394D01*
X93824452Y-121389492D01*
X93680081Y-121387728D01*
X93680079Y-121387728D01*
X93674911Y-121387665D01*
X93454091Y-121421455D01*
X93241756Y-121490857D01*
X93167708Y-121529404D01*
X93121678Y-121553366D01*
X93043607Y-121594007D01*
X93039474Y-121597110D01*
X93039471Y-121597112D01*
X92869100Y-121725030D01*
X92864965Y-121728135D01*
X92861393Y-121731873D01*
X92778580Y-121818532D01*
X92710629Y-121889638D01*
X92603201Y-122047121D01*
X92548293Y-122092121D01*
X92477768Y-122100292D01*
X92414021Y-122069038D01*
X92393324Y-122044554D01*
X92312822Y-121920117D01*
X92312820Y-121920114D01*
X92310014Y-121915777D01*
X92159670Y-121750551D01*
X92155619Y-121747352D01*
X92155615Y-121747348D01*
X91988414Y-121615300D01*
X91988410Y-121615298D01*
X91984359Y-121612098D01*
X91788789Y-121504138D01*
X91783920Y-121502414D01*
X91783916Y-121502412D01*
X91583087Y-121431295D01*
X91583083Y-121431294D01*
X91578212Y-121429569D01*
X91573119Y-121428662D01*
X91573116Y-121428661D01*
X91363373Y-121391300D01*
X91363367Y-121391299D01*
X91358284Y-121390394D01*
X91247009Y-121389035D01*
X91179140Y-121368202D01*
X91133306Y-121313983D01*
X91124061Y-121243591D01*
X91154340Y-121179375D01*
X91159455Y-121173949D01*
X92336767Y-119996637D01*
X92345057Y-119989093D01*
X92351538Y-119984980D01*
X92398179Y-119935312D01*
X92400933Y-119932471D01*
X92420654Y-119912750D01*
X92423132Y-119909555D01*
X92430838Y-119900533D01*
X92455678Y-119874081D01*
X92461106Y-119868301D01*
X92470866Y-119850548D01*
X92481719Y-119834025D01*
X92489273Y-119824286D01*
X92494133Y-119818021D01*
X92511696Y-119777437D01*
X92516903Y-119766807D01*
X92538215Y-119728040D01*
X92540186Y-119720363D01*
X92540188Y-119720358D01*
X92543252Y-119708422D01*
X92549658Y-119689710D01*
X92554553Y-119678399D01*
X92557701Y-119671125D01*
X92558941Y-119663297D01*
X92558943Y-119663290D01*
X92564619Y-119627456D01*
X92567025Y-119615836D01*
X92576048Y-119580691D01*
X92576048Y-119580690D01*
X92578020Y-119573010D01*
X92578020Y-119552756D01*
X92579571Y-119533045D01*
X92581500Y-119520866D01*
X92582740Y-119513037D01*
X92578579Y-119469018D01*
X92578020Y-119457161D01*
X92578020Y-113444669D01*
X96092001Y-113444669D01*
X96092371Y-113451490D01*
X96097895Y-113502352D01*
X96101521Y-113517604D01*
X96146676Y-113638054D01*
X96155214Y-113653649D01*
X96231715Y-113755724D01*
X96244276Y-113768285D01*
X96346351Y-113844786D01*
X96361946Y-113853324D01*
X96482394Y-113898478D01*
X96497649Y-113902105D01*
X96548514Y-113907631D01*
X96555328Y-113908000D01*
X97227885Y-113908000D01*
X97243124Y-113903525D01*
X97244329Y-113902135D01*
X97246000Y-113894452D01*
X97246000Y-113889884D01*
X97754000Y-113889884D01*
X97758475Y-113905123D01*
X97759865Y-113906328D01*
X97767548Y-113907999D01*
X98444669Y-113907999D01*
X98451490Y-113907629D01*
X98502352Y-113902105D01*
X98517604Y-113898479D01*
X98638054Y-113853324D01*
X98653649Y-113844786D01*
X98755724Y-113768285D01*
X98768285Y-113755724D01*
X98844786Y-113653649D01*
X98853324Y-113638054D01*
X98898478Y-113517606D01*
X98902105Y-113502351D01*
X98907631Y-113451486D01*
X98908000Y-113444672D01*
X98908000Y-112772115D01*
X98903525Y-112756876D01*
X98902135Y-112755671D01*
X98894452Y-112754000D01*
X97772115Y-112754000D01*
X97756876Y-112758475D01*
X97755671Y-112759865D01*
X97754000Y-112767548D01*
X97754000Y-113889884D01*
X97246000Y-113889884D01*
X97246000Y-112772115D01*
X97241525Y-112756876D01*
X97240135Y-112755671D01*
X97232452Y-112754000D01*
X96110116Y-112754000D01*
X96094877Y-112758475D01*
X96093672Y-112759865D01*
X96092001Y-112767548D01*
X96092001Y-113444669D01*
X92578020Y-113444669D01*
X92578020Y-113370074D01*
X92598022Y-113301953D01*
X92614925Y-113280979D01*
X95879845Y-110016059D01*
X95942157Y-109982033D01*
X96012972Y-109987098D01*
X96069808Y-110029645D01*
X96094731Y-110097901D01*
X96100427Y-110196697D01*
X96101564Y-110201743D01*
X96101565Y-110201749D01*
X96133741Y-110344523D01*
X96151346Y-110422642D01*
X96153288Y-110427424D01*
X96153289Y-110427428D01*
X96230864Y-110618472D01*
X96238484Y-110637237D01*
X96284790Y-110712801D01*
X96335742Y-110795947D01*
X96359501Y-110834719D01*
X96381594Y-110860224D01*
X96445498Y-110933997D01*
X96474980Y-110998582D01*
X96464865Y-111068855D01*
X96418364Y-111122503D01*
X96394489Y-111134476D01*
X96361948Y-111146675D01*
X96346351Y-111155214D01*
X96244276Y-111231715D01*
X96231715Y-111244276D01*
X96155214Y-111346351D01*
X96146676Y-111361946D01*
X96101522Y-111482394D01*
X96097895Y-111497649D01*
X96092369Y-111548514D01*
X96092000Y-111555328D01*
X96092000Y-112227885D01*
X96096475Y-112243124D01*
X96097865Y-112244329D01*
X96105548Y-112246000D01*
X98889884Y-112246000D01*
X98905123Y-112241525D01*
X98906328Y-112240135D01*
X98907999Y-112232452D01*
X98907999Y-111555331D01*
X98907629Y-111548510D01*
X98902105Y-111497648D01*
X98898479Y-111482396D01*
X98853324Y-111361946D01*
X98844786Y-111346351D01*
X98768285Y-111244276D01*
X98755724Y-111231715D01*
X98653649Y-111155214D01*
X98638054Y-111146676D01*
X98608581Y-111135627D01*
X98551817Y-111092985D01*
X98527117Y-111026424D01*
X98542324Y-110957075D01*
X98563870Y-110928395D01*
X98572641Y-110919654D01*
X98576303Y-110916005D01*
X98711458Y-110727917D01*
X98726621Y-110697238D01*
X98811784Y-110524922D01*
X98811785Y-110524920D01*
X98814078Y-110520280D01*
X98881408Y-110298671D01*
X98911640Y-110069041D01*
X98911722Y-110065691D01*
X98913245Y-110003365D01*
X98913245Y-110003361D01*
X98913327Y-110000000D01*
X98894349Y-109769167D01*
X98858026Y-109624560D01*
X98860830Y-109553618D01*
X98891135Y-109504769D01*
X102805500Y-105590405D01*
X102867812Y-105556379D01*
X102894595Y-105553500D01*
X105780606Y-105553500D01*
X105848727Y-105573502D01*
X105883819Y-105607229D01*
X105990643Y-105759789D01*
X105993802Y-105764300D01*
X106155700Y-105926198D01*
X106160208Y-105929355D01*
X106160211Y-105929357D01*
X106189768Y-105950053D01*
X106343251Y-106057523D01*
X106348233Y-106059846D01*
X106348238Y-106059849D01*
X106516719Y-106138412D01*
X106550757Y-106154284D01*
X106556065Y-106155706D01*
X106556067Y-106155707D01*
X106766598Y-106212119D01*
X106766600Y-106212119D01*
X106771913Y-106213543D01*
X107000000Y-106233498D01*
X107228087Y-106213543D01*
X107233400Y-106212119D01*
X107233402Y-106212119D01*
X107443933Y-106155707D01*
X107443935Y-106155706D01*
X107449243Y-106154284D01*
X107483281Y-106138412D01*
X107651762Y-106059849D01*
X107651767Y-106059846D01*
X107656749Y-106057523D01*
X107810232Y-105950053D01*
X107839789Y-105929357D01*
X107839792Y-105929355D01*
X107844300Y-105926198D01*
X108006198Y-105764300D01*
X108055167Y-105694366D01*
X108064098Y-105681611D01*
X108137523Y-105576749D01*
X108139846Y-105571767D01*
X108139849Y-105571762D01*
X108231961Y-105374225D01*
X108231961Y-105374224D01*
X108234284Y-105369243D01*
X108276541Y-105211541D01*
X108292119Y-105153402D01*
X108292120Y-105153398D01*
X108293543Y-105148087D01*
X108313498Y-104920000D01*
X108293543Y-104691913D01*
X108277891Y-104633500D01*
X108235707Y-104476067D01*
X108235706Y-104476065D01*
X108234284Y-104470757D01*
X108229541Y-104460586D01*
X108139849Y-104268238D01*
X108139846Y-104268233D01*
X108137523Y-104263251D01*
X108006198Y-104075700D01*
X107844300Y-103913802D01*
X107839792Y-103910645D01*
X107839789Y-103910643D01*
X107761611Y-103855902D01*
X107656749Y-103782477D01*
X107651767Y-103780154D01*
X107651762Y-103780151D01*
X107454225Y-103688039D01*
X107454224Y-103688039D01*
X107449243Y-103685716D01*
X107443935Y-103684294D01*
X107443933Y-103684293D01*
X107233402Y-103627881D01*
X107233400Y-103627881D01*
X107228087Y-103626457D01*
X107000000Y-103606502D01*
X106771913Y-103626457D01*
X106766600Y-103627881D01*
X106766598Y-103627881D01*
X106556067Y-103684293D01*
X106556065Y-103684294D01*
X106550757Y-103685716D01*
X106545776Y-103688039D01*
X106545775Y-103688039D01*
X106348238Y-103780151D01*
X106348233Y-103780154D01*
X106343251Y-103782477D01*
X106238389Y-103855902D01*
X106160211Y-103910643D01*
X106160208Y-103910645D01*
X106155700Y-103913802D01*
X105993802Y-104075700D01*
X105990645Y-104080208D01*
X105990643Y-104080211D01*
X105883819Y-104232771D01*
X105828362Y-104277099D01*
X105780606Y-104286500D01*
X102658767Y-104286500D01*
X102647584Y-104285973D01*
X102640091Y-104284298D01*
X102632165Y-104284547D01*
X102632164Y-104284547D01*
X102572001Y-104286438D01*
X102568043Y-104286500D01*
X102540144Y-104286500D01*
X102536154Y-104287004D01*
X102524320Y-104287936D01*
X102480111Y-104289326D01*
X102472497Y-104291538D01*
X102472492Y-104291539D01*
X102460659Y-104294977D01*
X102441296Y-104298988D01*
X102421203Y-104301526D01*
X102413836Y-104304443D01*
X102413831Y-104304444D01*
X102380092Y-104317802D01*
X102368865Y-104321646D01*
X102326407Y-104333982D01*
X102319581Y-104338019D01*
X102308972Y-104344293D01*
X102291224Y-104352988D01*
X102272383Y-104360448D01*
X102265967Y-104365110D01*
X102265966Y-104365110D01*
X102236613Y-104386436D01*
X102226693Y-104392952D01*
X102195465Y-104411420D01*
X102195462Y-104411422D01*
X102188638Y-104415458D01*
X102174317Y-104429779D01*
X102159284Y-104442619D01*
X102142893Y-104454528D01*
X102114702Y-104488605D01*
X102106712Y-104497384D01*
X99120198Y-107483897D01*
X99057886Y-107517923D01*
X98987070Y-107512858D01*
X98930235Y-107470311D01*
X98905527Y-107405126D01*
X98894773Y-107274318D01*
X98894772Y-107274312D01*
X98894349Y-107269167D01*
X98859437Y-107130175D01*
X98839184Y-107049544D01*
X98839183Y-107049540D01*
X98837925Y-107044533D01*
X98816568Y-106995415D01*
X98747630Y-106836868D01*
X98747628Y-106836865D01*
X98745570Y-106832131D01*
X98619764Y-106637665D01*
X98463887Y-106466358D01*
X98459836Y-106463159D01*
X98459832Y-106463155D01*
X98286177Y-106326011D01*
X98286172Y-106326008D01*
X98282123Y-106322810D01*
X98277607Y-106320317D01*
X98277604Y-106320315D01*
X98083879Y-106213373D01*
X98083875Y-106213371D01*
X98079355Y-106210876D01*
X98074486Y-106209152D01*
X98074482Y-106209150D01*
X97865903Y-106135288D01*
X97865899Y-106135287D01*
X97861028Y-106133562D01*
X97855935Y-106132655D01*
X97855932Y-106132654D01*
X97638095Y-106093851D01*
X97638089Y-106093850D01*
X97633006Y-106092945D01*
X97560096Y-106092054D01*
X97406581Y-106090179D01*
X97406579Y-106090179D01*
X97401411Y-106090116D01*
X97264341Y-106111091D01*
X97193980Y-106101624D01*
X97139906Y-106055618D01*
X97119288Y-105987681D01*
X97138673Y-105919382D01*
X97156188Y-105897446D01*
X99883229Y-103170405D01*
X99945541Y-103136379D01*
X99972324Y-103133500D01*
X139277462Y-103133500D01*
X139345583Y-103153502D01*
X139392076Y-103207158D01*
X139402180Y-103277432D01*
X139372686Y-103342012D01*
X139312960Y-103380396D01*
X139304626Y-103382537D01*
X139209223Y-103403600D01*
X139209219Y-103403601D01*
X139204763Y-103404585D01*
X139092182Y-103447238D01*
X138955460Y-103499037D01*
X138955457Y-103499038D01*
X138951190Y-103500655D01*
X138798669Y-103585373D01*
X138724704Y-103626457D01*
X138714141Y-103632324D01*
X138644181Y-103685716D01*
X138520442Y-103780151D01*
X138498583Y-103796833D01*
X138309030Y-103990736D01*
X138306343Y-103994428D01*
X138306341Y-103994430D01*
X138243903Y-104080211D01*
X138149453Y-104209972D01*
X138023196Y-104449947D01*
X138021677Y-104454248D01*
X138021675Y-104454253D01*
X138007931Y-104493173D01*
X137932904Y-104705634D01*
X137913585Y-104803653D01*
X137885038Y-104948489D01*
X137880467Y-104971678D01*
X137880240Y-104976232D01*
X137880240Y-104976234D01*
X137867977Y-105222568D01*
X137866984Y-105242505D01*
X137892738Y-105512441D01*
X137893822Y-105516870D01*
X137893823Y-105516877D01*
X137908474Y-105576749D01*
X137957190Y-105775832D01*
X137958905Y-105780067D01*
X137958906Y-105780069D01*
X138029396Y-105954101D01*
X138058988Y-106027160D01*
X138196001Y-106261161D01*
X138230302Y-106304052D01*
X138360102Y-106466358D01*
X138365359Y-106472932D01*
X138368700Y-106476053D01*
X138512693Y-106610564D01*
X138563512Y-106658037D01*
X138786312Y-106812598D01*
X138790388Y-106814626D01*
X138790390Y-106814627D01*
X139025003Y-106931346D01*
X139025006Y-106931347D01*
X139029090Y-106933379D01*
X139286760Y-107017847D01*
X139291251Y-107018627D01*
X139291252Y-107018627D01*
X139550144Y-107063579D01*
X139550152Y-107063580D01*
X139553925Y-107064235D01*
X139557762Y-107064426D01*
X139638029Y-107068422D01*
X139638037Y-107068422D01*
X139639600Y-107068500D01*
X140328884Y-107068500D01*
X140331152Y-107068335D01*
X140331164Y-107068335D01*
X140462978Y-107058771D01*
X140530451Y-107053875D01*
X140534906Y-107052891D01*
X140534909Y-107052891D01*
X140790777Y-106996400D01*
X140790781Y-106996399D01*
X140795237Y-106995415D01*
X140964345Y-106931346D01*
X141044540Y-106900963D01*
X141044543Y-106900962D01*
X141048810Y-106899345D01*
X141285859Y-106767676D01*
X141433603Y-106654921D01*
X141497785Y-106605939D01*
X141497786Y-106605938D01*
X141501417Y-106603167D01*
X141690970Y-106409264D01*
X141726534Y-106360405D01*
X141847859Y-106193721D01*
X141850547Y-106190028D01*
X141976804Y-105950053D01*
X141984113Y-105929357D01*
X142036831Y-105780069D01*
X142067096Y-105694366D01*
X142119533Y-105428322D01*
X142119760Y-105423766D01*
X142132789Y-105162064D01*
X142132789Y-105162058D01*
X142133016Y-105157495D01*
X142107262Y-104887559D01*
X142042810Y-104624168D01*
X141978655Y-104465775D01*
X141942725Y-104377069D01*
X141942725Y-104377068D01*
X141941012Y-104372840D01*
X141803999Y-104138839D01*
X141634641Y-103927068D01*
X141495226Y-103796833D01*
X141439824Y-103745079D01*
X141439821Y-103745077D01*
X141436488Y-103741963D01*
X141213688Y-103587402D01*
X141131185Y-103546357D01*
X140974997Y-103468654D01*
X140974994Y-103468653D01*
X140970910Y-103466621D01*
X140882162Y-103437528D01*
X140717573Y-103383573D01*
X140717568Y-103383572D01*
X140713240Y-103382153D01*
X140710005Y-103381591D01*
X140649030Y-103345869D01*
X140616899Y-103282559D01*
X140624097Y-103211928D01*
X140668338Y-103156401D01*
X140740771Y-103133500D01*
X158813803Y-103133500D01*
X158881924Y-103153502D01*
X158928417Y-103207158D01*
X158938521Y-103277432D01*
X158909027Y-103342012D01*
X158846178Y-103380897D01*
X158841203Y-103381526D01*
X158833834Y-103384443D01*
X158833832Y-103384444D01*
X158800097Y-103397800D01*
X158788869Y-103401645D01*
X158746407Y-103413982D01*
X158739585Y-103418016D01*
X158739579Y-103418019D01*
X158728968Y-103424294D01*
X158711218Y-103432990D01*
X158699756Y-103437528D01*
X158699751Y-103437531D01*
X158692383Y-103440448D01*
X158674970Y-103453099D01*
X158656625Y-103466427D01*
X158646707Y-103472943D01*
X158635463Y-103479593D01*
X158608637Y-103495458D01*
X158594313Y-103509782D01*
X158579281Y-103522621D01*
X158562893Y-103534528D01*
X158534712Y-103568593D01*
X158526722Y-103577373D01*
X149123095Y-112981000D01*
X149060783Y-113015026D01*
X148989968Y-113009961D01*
X148933132Y-112967414D01*
X148908321Y-112900894D01*
X148908000Y-112891905D01*
X148908000Y-112772115D01*
X148903525Y-112756876D01*
X148902135Y-112755671D01*
X148894452Y-112754000D01*
X147772115Y-112754000D01*
X147756876Y-112758475D01*
X147755671Y-112759865D01*
X147754000Y-112767548D01*
X147754000Y-113889884D01*
X147758475Y-113905123D01*
X147759865Y-113906328D01*
X147767548Y-113907999D01*
X147891906Y-113907999D01*
X147960027Y-113928001D01*
X148006520Y-113981657D01*
X148016624Y-114051931D01*
X147987130Y-114116511D01*
X147981001Y-114123094D01*
X138629095Y-123475000D01*
X138566783Y-123509026D01*
X138495968Y-123503961D01*
X138450905Y-123475000D01*
X129818410Y-114842505D01*
X137866984Y-114842505D01*
X137892738Y-115112441D01*
X137893822Y-115116870D01*
X137893823Y-115116877D01*
X137913126Y-115195759D01*
X137957190Y-115375832D01*
X137958905Y-115380067D01*
X137958906Y-115380069D01*
X138029396Y-115554101D01*
X138058988Y-115627160D01*
X138196001Y-115861161D01*
X138365359Y-116072932D01*
X138368700Y-116076053D01*
X138516763Y-116214366D01*
X138563512Y-116258037D01*
X138786312Y-116412598D01*
X138790388Y-116414626D01*
X138790390Y-116414627D01*
X139025003Y-116531346D01*
X139025006Y-116531347D01*
X139029090Y-116533379D01*
X139286760Y-116617847D01*
X139291251Y-116618627D01*
X139291252Y-116618627D01*
X139550144Y-116663579D01*
X139550152Y-116663580D01*
X139553925Y-116664235D01*
X139557762Y-116664426D01*
X139638029Y-116668422D01*
X139638037Y-116668422D01*
X139639600Y-116668500D01*
X140328884Y-116668500D01*
X140331152Y-116668335D01*
X140331164Y-116668335D01*
X140462978Y-116658771D01*
X140530451Y-116653875D01*
X140534906Y-116652891D01*
X140534909Y-116652891D01*
X140790777Y-116596400D01*
X140790781Y-116596399D01*
X140795237Y-116595415D01*
X140986540Y-116522937D01*
X141044540Y-116500963D01*
X141044543Y-116500962D01*
X141048810Y-116499345D01*
X141274434Y-116374022D01*
X141281866Y-116369894D01*
X141281867Y-116369893D01*
X141285859Y-116367676D01*
X141433603Y-116254921D01*
X141497785Y-116205939D01*
X141497786Y-116205938D01*
X141501417Y-116203167D01*
X141690970Y-116009264D01*
X141752814Y-115924300D01*
X141847859Y-115793721D01*
X141850547Y-115790028D01*
X141976804Y-115550053D01*
X141983394Y-115531393D01*
X142036831Y-115380069D01*
X142067096Y-115294366D01*
X142103850Y-115107892D01*
X142118652Y-115032794D01*
X142118653Y-115032788D01*
X142119533Y-115028322D01*
X142127699Y-114864300D01*
X142132789Y-114762064D01*
X142132789Y-114762058D01*
X142133016Y-114757495D01*
X142107262Y-114487559D01*
X142105723Y-114481267D01*
X142070163Y-114335950D01*
X142042810Y-114224168D01*
X141983253Y-114077127D01*
X141942725Y-113977069D01*
X141942725Y-113977068D01*
X141941012Y-113972840D01*
X141803999Y-113738839D01*
X141634641Y-113527068D01*
X141546434Y-113444669D01*
X146092001Y-113444669D01*
X146092371Y-113451490D01*
X146097895Y-113502352D01*
X146101521Y-113517604D01*
X146146676Y-113638054D01*
X146155214Y-113653649D01*
X146231715Y-113755724D01*
X146244276Y-113768285D01*
X146346351Y-113844786D01*
X146361946Y-113853324D01*
X146482394Y-113898478D01*
X146497649Y-113902105D01*
X146548514Y-113907631D01*
X146555328Y-113908000D01*
X147227885Y-113908000D01*
X147243124Y-113903525D01*
X147244329Y-113902135D01*
X147246000Y-113894452D01*
X147246000Y-112772115D01*
X147241525Y-112756876D01*
X147240135Y-112755671D01*
X147232452Y-112754000D01*
X146110116Y-112754000D01*
X146094877Y-112758475D01*
X146093672Y-112759865D01*
X146092001Y-112767548D01*
X146092001Y-113444669D01*
X141546434Y-113444669D01*
X141495226Y-113396833D01*
X141439824Y-113345079D01*
X141439821Y-113345077D01*
X141436488Y-113341963D01*
X141213688Y-113187402D01*
X141147937Y-113154691D01*
X140974997Y-113068654D01*
X140974994Y-113068653D01*
X140970910Y-113066621D01*
X140713240Y-112982153D01*
X140708748Y-112981373D01*
X140449856Y-112936421D01*
X140449848Y-112936420D01*
X140446075Y-112935765D01*
X140438429Y-112935384D01*
X140361971Y-112931578D01*
X140361963Y-112931578D01*
X140360400Y-112931500D01*
X139671116Y-112931500D01*
X139668848Y-112931665D01*
X139668836Y-112931665D01*
X139537022Y-112941229D01*
X139469549Y-112946125D01*
X139465094Y-112947109D01*
X139465091Y-112947109D01*
X139209223Y-113003600D01*
X139209219Y-113003601D01*
X139204763Y-113004585D01*
X139077977Y-113052620D01*
X138955460Y-113099037D01*
X138955457Y-113099038D01*
X138951190Y-113100655D01*
X138714141Y-113232324D01*
X138710509Y-113235096D01*
X138533646Y-113370074D01*
X138498583Y-113396833D01*
X138309030Y-113590736D01*
X138306343Y-113594428D01*
X138306341Y-113594430D01*
X138152141Y-113806279D01*
X138149453Y-113809972D01*
X138023196Y-114049947D01*
X138021677Y-114054248D01*
X138021675Y-114054253D01*
X138012643Y-114079830D01*
X137932904Y-114305634D01*
X137932024Y-114310100D01*
X137882096Y-114563414D01*
X137880467Y-114571678D01*
X137880240Y-114576232D01*
X137880240Y-114576234D01*
X137870989Y-114762064D01*
X137866984Y-114842505D01*
X129818410Y-114842505D01*
X129663652Y-114687747D01*
X129656112Y-114679461D01*
X129652000Y-114672982D01*
X129602348Y-114626356D01*
X129599507Y-114623602D01*
X129579770Y-114603865D01*
X129576573Y-114601385D01*
X129567551Y-114593680D01*
X129541100Y-114568841D01*
X129535321Y-114563414D01*
X129528375Y-114559595D01*
X129528372Y-114559593D01*
X129517566Y-114553652D01*
X129501047Y-114542801D01*
X129500583Y-114542441D01*
X129485041Y-114530386D01*
X129477772Y-114527241D01*
X129477768Y-114527238D01*
X129444463Y-114512826D01*
X129433813Y-114507609D01*
X129395060Y-114486305D01*
X129375437Y-114481267D01*
X129356734Y-114474863D01*
X129345420Y-114469967D01*
X129345419Y-114469967D01*
X129338145Y-114466819D01*
X129330322Y-114465580D01*
X129330312Y-114465577D01*
X129294476Y-114459901D01*
X129282856Y-114457495D01*
X129247711Y-114448472D01*
X129247710Y-114448472D01*
X129240030Y-114446500D01*
X129219776Y-114446500D01*
X129200065Y-114444949D01*
X129187886Y-114443020D01*
X129180057Y-114441780D01*
X129172165Y-114442526D01*
X129136039Y-114445941D01*
X129124181Y-114446500D01*
X116219394Y-114446500D01*
X116151273Y-114426498D01*
X116116181Y-114392771D01*
X116009357Y-114240211D01*
X116009355Y-114240208D01*
X116006198Y-114235700D01*
X115844300Y-114073802D01*
X115839792Y-114070645D01*
X115839789Y-114070643D01*
X115761611Y-114015902D01*
X115656749Y-113942477D01*
X115651767Y-113940154D01*
X115651762Y-113940151D01*
X115454225Y-113848039D01*
X115454224Y-113848039D01*
X115449243Y-113845716D01*
X115443935Y-113844294D01*
X115443933Y-113844293D01*
X115233402Y-113787881D01*
X115233400Y-113787881D01*
X115228087Y-113786457D01*
X115000000Y-113766502D01*
X114771913Y-113786457D01*
X114766600Y-113787881D01*
X114766598Y-113787881D01*
X114556067Y-113844293D01*
X114556065Y-113844294D01*
X114550757Y-113845716D01*
X114545776Y-113848039D01*
X114545775Y-113848039D01*
X114348238Y-113940151D01*
X114348233Y-113940154D01*
X114343251Y-113942477D01*
X114238389Y-114015902D01*
X114160211Y-114070643D01*
X114160208Y-114070645D01*
X114155700Y-114073802D01*
X113993802Y-114235700D01*
X113990645Y-114240208D01*
X113990643Y-114240211D01*
X113883819Y-114392771D01*
X113828362Y-114437099D01*
X113780606Y-114446500D01*
X112219394Y-114446500D01*
X112151273Y-114426498D01*
X112116181Y-114392771D01*
X112009357Y-114240211D01*
X112009355Y-114240208D01*
X112006198Y-114235700D01*
X111844300Y-114073802D01*
X111839792Y-114070645D01*
X111839789Y-114070643D01*
X111761611Y-114015902D01*
X111656749Y-113942477D01*
X111651767Y-113940154D01*
X111651762Y-113940151D01*
X111454225Y-113848039D01*
X111454224Y-113848039D01*
X111449243Y-113845716D01*
X111443935Y-113844294D01*
X111443933Y-113844293D01*
X111233402Y-113787881D01*
X111233400Y-113787881D01*
X111228087Y-113786457D01*
X111000000Y-113766502D01*
X110771913Y-113786457D01*
X110766600Y-113787881D01*
X110766598Y-113787881D01*
X110556067Y-113844293D01*
X110556065Y-113844294D01*
X110550757Y-113845716D01*
X110545776Y-113848039D01*
X110545775Y-113848039D01*
X110348238Y-113940151D01*
X110348233Y-113940154D01*
X110343251Y-113942477D01*
X110238389Y-114015902D01*
X110160211Y-114070643D01*
X110160208Y-114070645D01*
X110155700Y-114073802D01*
X109993802Y-114235700D01*
X109990645Y-114240208D01*
X109990643Y-114240211D01*
X109883819Y-114392771D01*
X109828362Y-114437099D01*
X109780606Y-114446500D01*
X108219394Y-114446500D01*
X108151273Y-114426498D01*
X108116181Y-114392771D01*
X108009357Y-114240211D01*
X108009355Y-114240208D01*
X108006198Y-114235700D01*
X107844300Y-114073802D01*
X107839792Y-114070645D01*
X107839789Y-114070643D01*
X107761611Y-114015902D01*
X107656749Y-113942477D01*
X107651767Y-113940154D01*
X107651762Y-113940151D01*
X107454225Y-113848039D01*
X107454224Y-113848039D01*
X107449243Y-113845716D01*
X107443935Y-113844294D01*
X107443933Y-113844293D01*
X107233402Y-113787881D01*
X107233400Y-113787881D01*
X107228087Y-113786457D01*
X107000000Y-113766502D01*
X106771913Y-113786457D01*
X106766600Y-113787881D01*
X106766598Y-113787881D01*
X106556067Y-113844293D01*
X106556065Y-113844294D01*
X106550757Y-113845716D01*
X106545776Y-113848039D01*
X106545775Y-113848039D01*
X106348238Y-113940151D01*
X106348233Y-113940154D01*
X106343251Y-113942477D01*
X106238389Y-114015902D01*
X106160211Y-114070643D01*
X106160208Y-114070645D01*
X106155700Y-114073802D01*
X105993802Y-114235700D01*
X105990645Y-114240208D01*
X105990643Y-114240211D01*
X105862713Y-114422914D01*
X105807256Y-114467242D01*
X105736636Y-114474551D01*
X105673276Y-114442520D01*
X105637291Y-114381319D01*
X105633500Y-114350643D01*
X105633500Y-111234594D01*
X105653502Y-111166473D01*
X105670405Y-111145499D01*
X110586752Y-106229152D01*
X110649064Y-106195126D01*
X110708459Y-106196541D01*
X110766591Y-106212118D01*
X110766602Y-106212120D01*
X110771913Y-106213543D01*
X111000000Y-106233498D01*
X111228087Y-106213543D01*
X111233400Y-106212119D01*
X111233402Y-106212119D01*
X111443933Y-106155707D01*
X111443935Y-106155706D01*
X111449243Y-106154284D01*
X111483281Y-106138412D01*
X111651762Y-106059849D01*
X111651767Y-106059846D01*
X111656749Y-106057523D01*
X111810232Y-105950053D01*
X111839789Y-105929357D01*
X111839792Y-105929355D01*
X111844300Y-105926198D01*
X112006198Y-105764300D01*
X112055167Y-105694366D01*
X112064098Y-105681611D01*
X112137523Y-105576749D01*
X112139846Y-105571767D01*
X112139849Y-105571762D01*
X112231961Y-105374225D01*
X112231961Y-105374224D01*
X112234284Y-105369243D01*
X112276541Y-105211541D01*
X112292119Y-105153402D01*
X112292120Y-105153398D01*
X112293543Y-105148087D01*
X112313498Y-104920000D01*
X113686502Y-104920000D01*
X113706457Y-105148087D01*
X113707880Y-105153398D01*
X113707881Y-105153402D01*
X113723460Y-105211541D01*
X113765716Y-105369243D01*
X113768039Y-105374224D01*
X113768039Y-105374225D01*
X113860151Y-105571762D01*
X113860154Y-105571767D01*
X113862477Y-105576749D01*
X113935902Y-105681611D01*
X113944834Y-105694366D01*
X113993802Y-105764300D01*
X114155700Y-105926198D01*
X114160208Y-105929355D01*
X114160211Y-105929357D01*
X114189768Y-105950053D01*
X114343251Y-106057523D01*
X114348233Y-106059846D01*
X114348238Y-106059849D01*
X114516719Y-106138412D01*
X114550757Y-106154284D01*
X114556065Y-106155706D01*
X114556067Y-106155707D01*
X114766598Y-106212119D01*
X114766600Y-106212119D01*
X114771913Y-106213543D01*
X115000000Y-106233498D01*
X115228087Y-106213543D01*
X115233400Y-106212119D01*
X115233402Y-106212119D01*
X115443933Y-106155707D01*
X115443935Y-106155706D01*
X115449243Y-106154284D01*
X115483281Y-106138412D01*
X115651762Y-106059849D01*
X115651767Y-106059846D01*
X115656749Y-106057523D01*
X115810232Y-105950053D01*
X115839789Y-105929357D01*
X115839792Y-105929355D01*
X115844300Y-105926198D01*
X116006198Y-105764300D01*
X116009357Y-105759789D01*
X116116181Y-105607229D01*
X116171638Y-105562901D01*
X116219394Y-105553500D01*
X129105406Y-105553500D01*
X129173527Y-105573502D01*
X129194501Y-105590405D01*
X133996348Y-110392253D01*
X134003888Y-110400539D01*
X134008000Y-110407018D01*
X134013777Y-110412443D01*
X134057651Y-110453643D01*
X134060493Y-110456398D01*
X134080230Y-110476135D01*
X134083427Y-110478615D01*
X134092447Y-110486318D01*
X134124679Y-110516586D01*
X134131625Y-110520405D01*
X134131628Y-110520407D01*
X134142434Y-110526348D01*
X134158953Y-110537199D01*
X134174959Y-110549614D01*
X134182228Y-110552759D01*
X134182232Y-110552762D01*
X134215537Y-110567174D01*
X134226187Y-110572391D01*
X134264940Y-110593695D01*
X134283612Y-110598489D01*
X134284562Y-110598733D01*
X134303267Y-110605137D01*
X134321855Y-110613181D01*
X134329678Y-110614420D01*
X134329688Y-110614423D01*
X134365524Y-110620099D01*
X134377144Y-110622505D01*
X134405952Y-110629901D01*
X134419970Y-110633500D01*
X134440224Y-110633500D01*
X134459934Y-110635051D01*
X134479943Y-110638220D01*
X134487835Y-110637474D01*
X134523961Y-110634059D01*
X134535819Y-110633500D01*
X146165630Y-110633500D01*
X146233751Y-110653502D01*
X146273063Y-110693665D01*
X146335993Y-110796357D01*
X146359501Y-110834719D01*
X146381594Y-110860224D01*
X146445498Y-110933997D01*
X146474980Y-110998582D01*
X146464865Y-111068855D01*
X146418364Y-111122503D01*
X146394489Y-111134476D01*
X146361948Y-111146675D01*
X146346351Y-111155214D01*
X146244276Y-111231715D01*
X146231715Y-111244276D01*
X146155214Y-111346351D01*
X146146676Y-111361946D01*
X146101522Y-111482394D01*
X146097895Y-111497649D01*
X146092369Y-111548514D01*
X146092000Y-111555328D01*
X146092000Y-112227885D01*
X146096475Y-112243124D01*
X146097865Y-112244329D01*
X146105548Y-112246000D01*
X148889884Y-112246000D01*
X148905123Y-112241525D01*
X148906328Y-112240135D01*
X148907999Y-112232452D01*
X148907999Y-111555331D01*
X148907629Y-111548510D01*
X148902105Y-111497648D01*
X148898479Y-111482396D01*
X148853324Y-111361946D01*
X148844786Y-111346351D01*
X148768285Y-111244276D01*
X148755724Y-111231715D01*
X148653649Y-111155214D01*
X148638054Y-111146676D01*
X148608581Y-111135627D01*
X148551817Y-111092985D01*
X148527117Y-111026424D01*
X148542324Y-110957075D01*
X148563870Y-110928395D01*
X148572641Y-110919654D01*
X148576303Y-110916005D01*
X148711458Y-110727917D01*
X148726621Y-110697238D01*
X148811784Y-110524922D01*
X148811785Y-110524920D01*
X148814078Y-110520280D01*
X148881408Y-110298671D01*
X148911640Y-110069041D01*
X148911722Y-110065691D01*
X148913245Y-110003365D01*
X148913245Y-110003361D01*
X148913327Y-110000000D01*
X148900837Y-109848077D01*
X148894773Y-109774318D01*
X148894772Y-109774312D01*
X148894349Y-109769167D01*
X148858026Y-109624560D01*
X148839184Y-109549544D01*
X148839183Y-109549540D01*
X148837925Y-109544533D01*
X148835866Y-109539797D01*
X148747630Y-109336868D01*
X148747628Y-109336865D01*
X148745570Y-109332131D01*
X148619764Y-109137665D01*
X148463887Y-108966358D01*
X148459836Y-108963159D01*
X148459832Y-108963155D01*
X148313690Y-108847740D01*
X148272627Y-108789823D01*
X148269395Y-108718900D01*
X148305020Y-108657489D01*
X148318613Y-108646279D01*
X148412243Y-108579494D01*
X148576303Y-108416005D01*
X148711458Y-108227917D01*
X148758641Y-108132450D01*
X148811784Y-108024922D01*
X148811785Y-108024920D01*
X148814078Y-108020280D01*
X148881408Y-107798671D01*
X148911640Y-107569041D01*
X148913327Y-107500000D01*
X148902115Y-107363625D01*
X148894773Y-107274318D01*
X148894772Y-107274312D01*
X148894349Y-107269167D01*
X148859437Y-107130175D01*
X148839184Y-107049544D01*
X148839183Y-107049540D01*
X148837925Y-107044533D01*
X148816568Y-106995415D01*
X148747630Y-106836868D01*
X148747628Y-106836865D01*
X148745570Y-106832131D01*
X148619764Y-106637665D01*
X148463887Y-106466358D01*
X148459836Y-106463159D01*
X148459832Y-106463155D01*
X148286177Y-106326011D01*
X148286172Y-106326008D01*
X148282123Y-106322810D01*
X148277607Y-106320317D01*
X148277604Y-106320315D01*
X148083879Y-106213373D01*
X148083875Y-106213371D01*
X148079355Y-106210876D01*
X148074486Y-106209152D01*
X148074482Y-106209150D01*
X147865903Y-106135288D01*
X147865899Y-106135287D01*
X147861028Y-106133562D01*
X147855935Y-106132655D01*
X147855932Y-106132654D01*
X147638095Y-106093851D01*
X147638089Y-106093850D01*
X147633006Y-106092945D01*
X147560096Y-106092054D01*
X147406581Y-106090179D01*
X147406579Y-106090179D01*
X147401411Y-106090116D01*
X147172464Y-106125150D01*
X146952314Y-106197106D01*
X146947726Y-106199494D01*
X146947722Y-106199496D01*
X146751461Y-106301663D01*
X146746872Y-106304052D01*
X146742739Y-106307155D01*
X146742736Y-106307157D01*
X146602306Y-106412595D01*
X146561655Y-106443117D01*
X146401639Y-106610564D01*
X146398725Y-106614836D01*
X146398724Y-106614837D01*
X146384029Y-106636379D01*
X146271119Y-106801899D01*
X146173602Y-107011981D01*
X146111707Y-107235169D01*
X146087095Y-107465469D01*
X146087392Y-107470622D01*
X146087392Y-107470625D01*
X146100129Y-107691529D01*
X146100427Y-107696697D01*
X146151346Y-107922642D01*
X146153288Y-107927424D01*
X146153289Y-107927428D01*
X146236540Y-108132450D01*
X146238484Y-108137237D01*
X146241183Y-108141641D01*
X146335742Y-108295947D01*
X146359501Y-108334719D01*
X146511147Y-108509784D01*
X146675556Y-108646279D01*
X146686462Y-108655333D01*
X146726097Y-108714235D01*
X146727595Y-108785216D01*
X146690481Y-108845739D01*
X146681630Y-108853037D01*
X146653636Y-108874056D01*
X146561655Y-108943117D01*
X146401639Y-109110564D01*
X146398725Y-109114836D01*
X146398724Y-109114837D01*
X146274036Y-109297623D01*
X146271119Y-109301899D01*
X146270403Y-109303442D01*
X146220086Y-109352090D01*
X146161574Y-109366500D01*
X134814594Y-109366500D01*
X134746473Y-109346498D01*
X134725499Y-109329595D01*
X132330706Y-106934801D01*
X129923652Y-104527747D01*
X129916112Y-104519461D01*
X129912000Y-104512982D01*
X129862348Y-104466356D01*
X129859507Y-104463602D01*
X129839770Y-104443865D01*
X129836573Y-104441385D01*
X129827551Y-104433680D01*
X129813388Y-104420380D01*
X129795321Y-104403414D01*
X129788375Y-104399595D01*
X129788372Y-104399593D01*
X129777566Y-104393652D01*
X129761047Y-104382801D01*
X129753657Y-104377069D01*
X129745041Y-104370386D01*
X129737772Y-104367241D01*
X129737768Y-104367238D01*
X129704463Y-104352826D01*
X129693813Y-104347609D01*
X129655060Y-104326305D01*
X129635437Y-104321267D01*
X129616734Y-104314863D01*
X129605420Y-104309967D01*
X129605419Y-104309967D01*
X129598145Y-104306819D01*
X129590322Y-104305580D01*
X129590312Y-104305577D01*
X129554476Y-104299901D01*
X129542856Y-104297495D01*
X129507711Y-104288472D01*
X129507710Y-104288472D01*
X129500030Y-104286500D01*
X129479776Y-104286500D01*
X129460065Y-104284949D01*
X129447886Y-104283020D01*
X129440057Y-104281780D01*
X129410786Y-104284547D01*
X129396039Y-104285941D01*
X129384181Y-104286500D01*
X116219394Y-104286500D01*
X116151273Y-104266498D01*
X116116181Y-104232771D01*
X116009357Y-104080211D01*
X116009355Y-104080208D01*
X116006198Y-104075700D01*
X115844300Y-103913802D01*
X115839792Y-103910645D01*
X115839789Y-103910643D01*
X115761611Y-103855902D01*
X115656749Y-103782477D01*
X115651767Y-103780154D01*
X115651762Y-103780151D01*
X115454225Y-103688039D01*
X115454224Y-103688039D01*
X115449243Y-103685716D01*
X115443935Y-103684294D01*
X115443933Y-103684293D01*
X115233402Y-103627881D01*
X115233400Y-103627881D01*
X115228087Y-103626457D01*
X115000000Y-103606502D01*
X114771913Y-103626457D01*
X114766600Y-103627881D01*
X114766598Y-103627881D01*
X114556067Y-103684293D01*
X114556065Y-103684294D01*
X114550757Y-103685716D01*
X114545776Y-103688039D01*
X114545775Y-103688039D01*
X114348238Y-103780151D01*
X114348233Y-103780154D01*
X114343251Y-103782477D01*
X114238389Y-103855902D01*
X114160211Y-103910643D01*
X114160208Y-103910645D01*
X114155700Y-103913802D01*
X113993802Y-104075700D01*
X113862477Y-104263251D01*
X113860154Y-104268233D01*
X113860151Y-104268238D01*
X113770459Y-104460586D01*
X113765716Y-104470757D01*
X113764294Y-104476065D01*
X113764293Y-104476067D01*
X113722109Y-104633500D01*
X113706457Y-104691913D01*
X113686502Y-104920000D01*
X112313498Y-104920000D01*
X112293543Y-104691913D01*
X112277891Y-104633500D01*
X112235707Y-104476067D01*
X112235706Y-104476065D01*
X112234284Y-104470757D01*
X112229541Y-104460586D01*
X112139849Y-104268238D01*
X112139846Y-104268233D01*
X112137523Y-104263251D01*
X112006198Y-104075700D01*
X111844300Y-103913802D01*
X111839792Y-103910645D01*
X111839789Y-103910643D01*
X111761611Y-103855902D01*
X111656749Y-103782477D01*
X111651767Y-103780154D01*
X111651762Y-103780151D01*
X111454225Y-103688039D01*
X111454224Y-103688039D01*
X111449243Y-103685716D01*
X111443935Y-103684294D01*
X111443933Y-103684293D01*
X111233402Y-103627881D01*
X111233400Y-103627881D01*
X111228087Y-103626457D01*
X111000000Y-103606502D01*
X110771913Y-103626457D01*
X110766600Y-103627881D01*
X110766598Y-103627881D01*
X110556067Y-103684293D01*
X110556065Y-103684294D01*
X110550757Y-103685716D01*
X110545776Y-103688039D01*
X110545775Y-103688039D01*
X110348238Y-103780151D01*
X110348233Y-103780154D01*
X110343251Y-103782477D01*
X110238389Y-103855902D01*
X110160211Y-103910643D01*
X110160208Y-103910645D01*
X110155700Y-103913802D01*
X109993802Y-104075700D01*
X109862477Y-104263251D01*
X109860154Y-104268233D01*
X109860151Y-104268238D01*
X109770459Y-104460586D01*
X109765716Y-104470757D01*
X109764294Y-104476065D01*
X109764293Y-104476067D01*
X109722109Y-104633500D01*
X109706457Y-104691913D01*
X109686502Y-104920000D01*
X109706457Y-105148087D01*
X109723460Y-105211541D01*
X109721770Y-105282518D01*
X109690848Y-105333247D01*
X104607747Y-110416348D01*
X104599461Y-110423888D01*
X104592982Y-110428000D01*
X104587557Y-110433777D01*
X104546357Y-110477651D01*
X104543602Y-110480493D01*
X104523865Y-110500230D01*
X104521385Y-110503427D01*
X104513682Y-110512447D01*
X104483414Y-110544679D01*
X104479595Y-110551625D01*
X104479593Y-110551628D01*
X104473652Y-110562434D01*
X104462801Y-110578953D01*
X104450386Y-110594959D01*
X104447241Y-110602228D01*
X104447238Y-110602232D01*
X104432826Y-110635537D01*
X104427609Y-110646187D01*
X104406305Y-110684940D01*
X104404334Y-110692615D01*
X104404334Y-110692616D01*
X104401267Y-110704562D01*
X104394863Y-110723266D01*
X104386819Y-110741855D01*
X104385580Y-110749678D01*
X104385577Y-110749688D01*
X104379901Y-110785524D01*
X104377495Y-110797144D01*
X104375204Y-110806067D01*
X104366500Y-110839970D01*
X104366500Y-110860224D01*
X104364949Y-110879934D01*
X104361780Y-110899943D01*
X104362526Y-110907835D01*
X104365941Y-110943961D01*
X104366500Y-110955819D01*
X104366500Y-117763504D01*
X104365973Y-117774687D01*
X104364298Y-117782180D01*
X104364547Y-117790106D01*
X104364547Y-117790107D01*
X104366438Y-117850257D01*
X104366500Y-117854216D01*
X104366500Y-117882127D01*
X104366997Y-117886061D01*
X104366997Y-117886062D01*
X104367005Y-117886127D01*
X104367938Y-117897964D01*
X104369327Y-117942160D01*
X104374978Y-117961610D01*
X104378987Y-117980971D01*
X104381526Y-118001068D01*
X104384445Y-118008439D01*
X104384445Y-118008441D01*
X104397804Y-118042183D01*
X104401649Y-118053413D01*
X104413982Y-118095864D01*
X104418015Y-118102683D01*
X104418017Y-118102688D01*
X104424293Y-118113299D01*
X104432988Y-118131047D01*
X104440448Y-118149888D01*
X104445110Y-118156304D01*
X104445110Y-118156305D01*
X104466436Y-118185658D01*
X104472952Y-118195578D01*
X104495458Y-118233633D01*
X104509779Y-118247954D01*
X104522619Y-118262987D01*
X104534528Y-118279378D01*
X104540634Y-118284429D01*
X104568605Y-118307569D01*
X104577384Y-118315559D01*
X116654072Y-130392247D01*
X116661616Y-130400537D01*
X116665729Y-130407018D01*
X116671506Y-130412443D01*
X116715396Y-130453658D01*
X116718238Y-130456413D01*
X116737959Y-130476134D01*
X116741154Y-130478612D01*
X116750176Y-130486318D01*
X116782408Y-130516586D01*
X116789357Y-130520406D01*
X116800161Y-130526346D01*
X116816685Y-130537199D01*
X116832688Y-130549613D01*
X116873272Y-130567176D01*
X116883902Y-130572383D01*
X116922669Y-130593695D01*
X116930346Y-130595666D01*
X116930351Y-130595668D01*
X116942287Y-130598732D01*
X116960995Y-130605137D01*
X116979584Y-130613181D01*
X116987412Y-130614421D01*
X116987419Y-130614423D01*
X117023253Y-130620099D01*
X117034873Y-130622505D01*
X117070018Y-130631528D01*
X117077699Y-130633500D01*
X117097953Y-130633500D01*
X117117663Y-130635051D01*
X117137672Y-130638220D01*
X117145564Y-130637474D01*
X117166192Y-130635524D01*
X117181691Y-130634059D01*
X117193548Y-130633500D01*
X121165630Y-130633500D01*
X121233751Y-130653502D01*
X121273063Y-130693665D01*
X121359501Y-130834719D01*
X121362882Y-130838622D01*
X121445498Y-130933997D01*
X121474980Y-130998582D01*
X121464865Y-131068855D01*
X121418364Y-131122503D01*
X121394489Y-131134476D01*
X121361948Y-131146675D01*
X121346351Y-131155214D01*
X121244276Y-131231715D01*
X121231715Y-131244276D01*
X121155214Y-131346351D01*
X121146676Y-131361946D01*
X121101522Y-131482394D01*
X121097895Y-131497649D01*
X121092369Y-131548514D01*
X121092000Y-131555328D01*
X121092000Y-132227885D01*
X121096475Y-132243124D01*
X121097865Y-132244329D01*
X121105548Y-132246000D01*
X123889884Y-132246000D01*
X123905123Y-132241525D01*
X123906328Y-132240135D01*
X123907999Y-132232452D01*
X123907999Y-131555331D01*
X123907629Y-131548510D01*
X123902105Y-131497648D01*
X123898479Y-131482396D01*
X123853324Y-131361946D01*
X123844786Y-131346351D01*
X123768285Y-131244276D01*
X123755724Y-131231715D01*
X123653649Y-131155214D01*
X123638054Y-131146676D01*
X123608581Y-131135627D01*
X123551817Y-131092985D01*
X123527117Y-131026424D01*
X123542324Y-130957075D01*
X123563870Y-130928395D01*
X123572641Y-130919654D01*
X123576303Y-130916005D01*
X123711458Y-130727917D01*
X123716058Y-130718611D01*
X123811784Y-130524922D01*
X123811785Y-130524920D01*
X123814078Y-130520280D01*
X123881408Y-130298671D01*
X123911640Y-130069041D01*
X123913327Y-130000000D01*
X123907032Y-129923434D01*
X123894773Y-129774318D01*
X123894772Y-129774312D01*
X123894349Y-129769167D01*
X123837925Y-129544533D01*
X123835866Y-129539797D01*
X123747630Y-129336868D01*
X123747628Y-129336865D01*
X123745570Y-129332131D01*
X123619764Y-129137665D01*
X123463887Y-128966358D01*
X123459836Y-128963159D01*
X123459832Y-128963155D01*
X123313690Y-128847740D01*
X123272627Y-128789823D01*
X123269395Y-128718900D01*
X123305020Y-128657489D01*
X123318613Y-128646279D01*
X123412243Y-128579494D01*
X123576303Y-128416005D01*
X123711458Y-128227917D01*
X123758641Y-128132450D01*
X123811784Y-128024922D01*
X123811785Y-128024920D01*
X123814078Y-128020280D01*
X123881408Y-127798671D01*
X123911640Y-127569041D01*
X123913327Y-127500000D01*
X123895019Y-127277312D01*
X123894773Y-127274318D01*
X123894772Y-127274312D01*
X123894349Y-127269167D01*
X123843945Y-127068500D01*
X123839184Y-127049544D01*
X123839183Y-127049540D01*
X123837925Y-127044533D01*
X123826322Y-127017847D01*
X123747630Y-126836868D01*
X123747628Y-126836865D01*
X123745570Y-126832131D01*
X123619764Y-126637665D01*
X123463887Y-126466358D01*
X123459836Y-126463159D01*
X123459832Y-126463155D01*
X123286177Y-126326011D01*
X123286172Y-126326008D01*
X123282123Y-126322810D01*
X123277607Y-126320317D01*
X123277604Y-126320315D01*
X123083879Y-126213373D01*
X123083875Y-126213371D01*
X123079355Y-126210876D01*
X123074486Y-126209152D01*
X123074482Y-126209150D01*
X122865903Y-126135288D01*
X122865899Y-126135287D01*
X122861028Y-126133562D01*
X122855935Y-126132655D01*
X122855932Y-126132654D01*
X122638095Y-126093851D01*
X122638089Y-126093850D01*
X122633006Y-126092945D01*
X122560096Y-126092054D01*
X122406581Y-126090179D01*
X122406579Y-126090179D01*
X122401411Y-126090116D01*
X122172464Y-126125150D01*
X121952314Y-126197106D01*
X121947726Y-126199494D01*
X121947722Y-126199496D01*
X121751461Y-126301663D01*
X121746872Y-126304052D01*
X121742739Y-126307155D01*
X121742736Y-126307157D01*
X121590815Y-126421223D01*
X121561655Y-126443117D01*
X121547439Y-126457993D01*
X121414526Y-126597079D01*
X121401639Y-126610564D01*
X121398725Y-126614836D01*
X121398724Y-126614837D01*
X121361015Y-126670116D01*
X121271119Y-126801899D01*
X121173602Y-127011981D01*
X121111707Y-127235169D01*
X121087095Y-127465469D01*
X121087392Y-127470622D01*
X121087392Y-127470625D01*
X121093067Y-127569041D01*
X121100427Y-127696697D01*
X121101564Y-127701743D01*
X121101565Y-127701749D01*
X121133741Y-127844523D01*
X121151346Y-127922642D01*
X121153288Y-127927424D01*
X121153289Y-127927428D01*
X121236540Y-128132450D01*
X121238484Y-128137237D01*
X121359501Y-128334719D01*
X121511147Y-128509784D01*
X121675556Y-128646279D01*
X121686462Y-128655333D01*
X121726097Y-128714235D01*
X121727595Y-128785216D01*
X121690481Y-128845739D01*
X121681630Y-128853037D01*
X121561655Y-128943117D01*
X121401639Y-129110564D01*
X121398725Y-129114836D01*
X121398724Y-129114837D01*
X121274036Y-129297623D01*
X121271119Y-129301899D01*
X121270403Y-129303442D01*
X121220086Y-129352090D01*
X121161574Y-129366500D01*
X117472324Y-129366500D01*
X117404203Y-129346498D01*
X117383229Y-129329595D01*
X115330946Y-127277312D01*
X115296920Y-127215000D01*
X115301985Y-127144185D01*
X115344532Y-127087349D01*
X115410921Y-127062548D01*
X115530451Y-127053875D01*
X115534906Y-127052891D01*
X115534909Y-127052891D01*
X115790777Y-126996400D01*
X115790781Y-126996399D01*
X115795237Y-126995415D01*
X115990436Y-126921461D01*
X116044540Y-126900963D01*
X116044543Y-126900962D01*
X116048810Y-126899345D01*
X116285859Y-126767676D01*
X116441890Y-126648597D01*
X116497785Y-126605939D01*
X116497786Y-126605938D01*
X116501417Y-126603167D01*
X116507369Y-126597079D01*
X116616327Y-126485620D01*
X116690970Y-126409264D01*
X116694706Y-126404132D01*
X116847859Y-126193721D01*
X116850547Y-126190028D01*
X116976804Y-125950053D01*
X116984113Y-125929357D01*
X117036831Y-125780069D01*
X117067096Y-125694366D01*
X117103850Y-125507892D01*
X117118652Y-125432794D01*
X117118653Y-125432788D01*
X117119533Y-125428322D01*
X117122739Y-125363933D01*
X117132789Y-125162064D01*
X117132789Y-125162058D01*
X117133016Y-125157495D01*
X117110357Y-124920000D01*
X133686502Y-124920000D01*
X133706457Y-125148087D01*
X133707880Y-125153398D01*
X133707881Y-125153402D01*
X133744715Y-125290865D01*
X133765716Y-125369243D01*
X133768039Y-125374224D01*
X133768039Y-125374225D01*
X133860151Y-125571762D01*
X133860154Y-125571767D01*
X133862477Y-125576749D01*
X133935902Y-125681611D01*
X133944834Y-125694366D01*
X133993802Y-125764300D01*
X134155700Y-125926198D01*
X134160208Y-125929355D01*
X134160211Y-125929357D01*
X134207103Y-125962191D01*
X134343251Y-126057523D01*
X134348233Y-126059846D01*
X134348238Y-126059849D01*
X134518825Y-126139394D01*
X134550757Y-126154284D01*
X134556065Y-126155706D01*
X134556067Y-126155707D01*
X134766598Y-126212119D01*
X134766600Y-126212119D01*
X134771913Y-126213543D01*
X135000000Y-126233498D01*
X135228087Y-126213543D01*
X135233400Y-126212119D01*
X135233402Y-126212119D01*
X135443933Y-126155707D01*
X135443935Y-126155706D01*
X135449243Y-126154284D01*
X135481175Y-126139394D01*
X135651762Y-126059849D01*
X135651767Y-126059846D01*
X135656749Y-126057523D01*
X135792897Y-125962191D01*
X135839789Y-125929357D01*
X135839792Y-125929355D01*
X135844300Y-125926198D01*
X136006198Y-125764300D01*
X136055167Y-125694366D01*
X136064098Y-125681611D01*
X136137523Y-125576749D01*
X136139846Y-125571767D01*
X136139849Y-125571762D01*
X136231961Y-125374225D01*
X136231961Y-125374224D01*
X136234284Y-125369243D01*
X136255286Y-125290865D01*
X136292119Y-125153402D01*
X136292120Y-125153398D01*
X136293543Y-125148087D01*
X136313498Y-124920000D01*
X136293543Y-124691913D01*
X136277522Y-124632121D01*
X136235707Y-124476067D01*
X136235706Y-124476065D01*
X136234284Y-124470757D01*
X136226588Y-124454253D01*
X136139849Y-124268238D01*
X136139846Y-124268233D01*
X136137523Y-124263251D01*
X136019130Y-124094169D01*
X136009357Y-124080211D01*
X136009355Y-124080208D01*
X136006198Y-124075700D01*
X135844300Y-123913802D01*
X135839792Y-123910645D01*
X135839789Y-123910643D01*
X135687228Y-123803819D01*
X135656749Y-123782477D01*
X135651767Y-123780154D01*
X135651762Y-123780151D01*
X135454225Y-123688039D01*
X135454224Y-123688039D01*
X135449243Y-123685716D01*
X135443935Y-123684294D01*
X135443933Y-123684293D01*
X135233402Y-123627881D01*
X135233400Y-123627881D01*
X135228087Y-123626457D01*
X135000000Y-123606502D01*
X134771913Y-123626457D01*
X134766600Y-123627881D01*
X134766598Y-123627881D01*
X134556067Y-123684293D01*
X134556065Y-123684294D01*
X134550757Y-123685716D01*
X134545776Y-123688039D01*
X134545775Y-123688039D01*
X134348238Y-123780151D01*
X134348233Y-123780154D01*
X134343251Y-123782477D01*
X134312772Y-123803819D01*
X134160211Y-123910643D01*
X134160208Y-123910645D01*
X134155700Y-123913802D01*
X133993802Y-124075700D01*
X133990645Y-124080208D01*
X133990643Y-124080211D01*
X133980870Y-124094169D01*
X133862477Y-124263251D01*
X133860154Y-124268233D01*
X133860151Y-124268238D01*
X133773412Y-124454253D01*
X133765716Y-124470757D01*
X133764294Y-124476065D01*
X133764293Y-124476067D01*
X133722478Y-124632121D01*
X133706457Y-124691913D01*
X133686502Y-124920000D01*
X117110357Y-124920000D01*
X117107262Y-124887559D01*
X117098860Y-124853220D01*
X117065072Y-124715144D01*
X117042810Y-124624168D01*
X117038765Y-124614180D01*
X116942725Y-124377069D01*
X116942725Y-124377068D01*
X116941012Y-124372840D01*
X116812056Y-124152599D01*
X116806309Y-124142784D01*
X116806308Y-124142783D01*
X116803999Y-124138839D01*
X116634641Y-123927068D01*
X116616662Y-123910273D01*
X116439824Y-123745079D01*
X116439821Y-123745077D01*
X116436488Y-123741963D01*
X116213688Y-123587402D01*
X116209610Y-123585373D01*
X115974997Y-123468654D01*
X115974994Y-123468653D01*
X115970910Y-123466621D01*
X115713240Y-123382153D01*
X115706536Y-123380989D01*
X115449856Y-123336421D01*
X115449848Y-123336420D01*
X115446075Y-123335765D01*
X115438429Y-123335384D01*
X115361971Y-123331578D01*
X115361963Y-123331578D01*
X115360400Y-123331500D01*
X114671116Y-123331500D01*
X114668848Y-123331665D01*
X114668836Y-123331665D01*
X114537022Y-123341229D01*
X114469549Y-123346125D01*
X114465094Y-123347109D01*
X114465091Y-123347109D01*
X114209223Y-123403600D01*
X114209219Y-123403601D01*
X114204763Y-123404585D01*
X114099245Y-123444562D01*
X113955460Y-123499037D01*
X113955457Y-123499038D01*
X113951190Y-123500655D01*
X113808396Y-123579970D01*
X113724704Y-123626457D01*
X113714141Y-123632324D01*
X113644181Y-123685716D01*
X113520442Y-123780151D01*
X113498583Y-123796833D01*
X113495390Y-123800099D01*
X113495388Y-123800101D01*
X113480217Y-123815620D01*
X113309030Y-123990736D01*
X113306343Y-123994428D01*
X113306341Y-123994430D01*
X113187227Y-124158076D01*
X113149453Y-124209972D01*
X113023196Y-124449947D01*
X113021676Y-124454251D01*
X113021670Y-124454265D01*
X112954148Y-124645471D01*
X112912605Y-124703044D01*
X112846530Y-124729017D01*
X112776902Y-124715144D01*
X112746244Y-124692610D01*
X105670405Y-117616771D01*
X105636379Y-117554459D01*
X105633500Y-117527676D01*
X105633500Y-115809357D01*
X105653502Y-115741236D01*
X105707158Y-115694743D01*
X105777432Y-115684639D01*
X105842012Y-115714133D01*
X105862713Y-115737086D01*
X105993802Y-115924300D01*
X106155700Y-116086198D01*
X106160208Y-116089355D01*
X106160211Y-116089357D01*
X106238389Y-116144098D01*
X106343251Y-116217523D01*
X106348233Y-116219846D01*
X106348238Y-116219849D01*
X106545775Y-116311961D01*
X106550757Y-116314284D01*
X106556065Y-116315706D01*
X106556067Y-116315707D01*
X106766598Y-116372119D01*
X106766600Y-116372119D01*
X106771913Y-116373543D01*
X107000000Y-116393498D01*
X107228087Y-116373543D01*
X107233400Y-116372119D01*
X107233402Y-116372119D01*
X107443933Y-116315707D01*
X107443935Y-116315706D01*
X107449243Y-116314284D01*
X107454225Y-116311961D01*
X107651762Y-116219849D01*
X107651767Y-116219846D01*
X107656749Y-116217523D01*
X107761611Y-116144098D01*
X107839789Y-116089357D01*
X107839792Y-116089355D01*
X107844300Y-116086198D01*
X108006198Y-115924300D01*
X108053171Y-115857216D01*
X108116181Y-115767229D01*
X108171638Y-115722901D01*
X108219394Y-115713500D01*
X109780606Y-115713500D01*
X109848727Y-115733502D01*
X109883819Y-115767229D01*
X109946829Y-115857216D01*
X109993802Y-115924300D01*
X110155700Y-116086198D01*
X110160208Y-116089355D01*
X110160211Y-116089357D01*
X110238389Y-116144098D01*
X110343251Y-116217523D01*
X110348233Y-116219846D01*
X110348238Y-116219849D01*
X110545775Y-116311961D01*
X110550757Y-116314284D01*
X110556065Y-116315706D01*
X110556067Y-116315707D01*
X110766598Y-116372119D01*
X110766600Y-116372119D01*
X110771913Y-116373543D01*
X111000000Y-116393498D01*
X111228087Y-116373543D01*
X111233400Y-116372119D01*
X111233402Y-116372119D01*
X111443933Y-116315707D01*
X111443935Y-116315706D01*
X111449243Y-116314284D01*
X111454225Y-116311961D01*
X111651762Y-116219849D01*
X111651767Y-116219846D01*
X111656749Y-116217523D01*
X111761611Y-116144098D01*
X111839789Y-116089357D01*
X111839792Y-116089355D01*
X111844300Y-116086198D01*
X112006198Y-115924300D01*
X112053171Y-115857216D01*
X112116181Y-115767229D01*
X112171638Y-115722901D01*
X112219394Y-115713500D01*
X113780606Y-115713500D01*
X113848727Y-115733502D01*
X113883819Y-115767229D01*
X113946829Y-115857216D01*
X113993802Y-115924300D01*
X114155700Y-116086198D01*
X114160208Y-116089355D01*
X114160211Y-116089357D01*
X114238389Y-116144098D01*
X114343251Y-116217523D01*
X114348233Y-116219846D01*
X114348238Y-116219849D01*
X114545775Y-116311961D01*
X114550757Y-116314284D01*
X114556065Y-116315706D01*
X114556067Y-116315707D01*
X114766598Y-116372119D01*
X114766600Y-116372119D01*
X114771913Y-116373543D01*
X115000000Y-116393498D01*
X115228087Y-116373543D01*
X115233400Y-116372119D01*
X115233402Y-116372119D01*
X115443933Y-116315707D01*
X115443935Y-116315706D01*
X115449243Y-116314284D01*
X115454225Y-116311961D01*
X115651762Y-116219849D01*
X115651767Y-116219846D01*
X115656749Y-116217523D01*
X115761611Y-116144098D01*
X115839789Y-116089357D01*
X115839792Y-116089355D01*
X115844300Y-116086198D01*
X116006198Y-115924300D01*
X116053171Y-115857216D01*
X116116181Y-115767229D01*
X116171638Y-115722901D01*
X116219394Y-115713500D01*
X128845406Y-115713500D01*
X128913527Y-115733502D01*
X128934501Y-115750405D01*
X137690848Y-124506752D01*
X137724874Y-124569064D01*
X137723459Y-124628459D01*
X137707882Y-124686591D01*
X137707881Y-124686598D01*
X137706457Y-124691913D01*
X137686502Y-124920000D01*
X137706457Y-125148087D01*
X137707880Y-125153398D01*
X137707881Y-125153402D01*
X137744715Y-125290865D01*
X137765716Y-125369243D01*
X137768039Y-125374224D01*
X137768039Y-125374225D01*
X137860151Y-125571762D01*
X137860154Y-125571767D01*
X137862477Y-125576749D01*
X137935902Y-125681611D01*
X137944834Y-125694366D01*
X137993802Y-125764300D01*
X138155700Y-125926198D01*
X138160208Y-125929355D01*
X138160211Y-125929357D01*
X138207103Y-125962191D01*
X138343251Y-126057523D01*
X138348233Y-126059846D01*
X138348238Y-126059849D01*
X138518825Y-126139394D01*
X138550757Y-126154284D01*
X138556065Y-126155706D01*
X138556067Y-126155707D01*
X138766598Y-126212119D01*
X138766600Y-126212119D01*
X138771913Y-126213543D01*
X139000000Y-126233498D01*
X139228087Y-126213543D01*
X139233400Y-126212119D01*
X139233402Y-126212119D01*
X139443933Y-126155707D01*
X139443935Y-126155706D01*
X139449243Y-126154284D01*
X139481175Y-126139394D01*
X139651762Y-126059849D01*
X139651767Y-126059846D01*
X139656749Y-126057523D01*
X139792897Y-125962191D01*
X139839789Y-125929357D01*
X139839792Y-125929355D01*
X139844300Y-125926198D01*
X140006198Y-125764300D01*
X140055167Y-125694366D01*
X140064098Y-125681611D01*
X140137523Y-125576749D01*
X140139846Y-125571767D01*
X140139849Y-125571762D01*
X140231961Y-125374225D01*
X140231961Y-125374224D01*
X140234284Y-125369243D01*
X140255286Y-125290865D01*
X140292119Y-125153402D01*
X140292120Y-125153398D01*
X140293543Y-125148087D01*
X140313498Y-124920000D01*
X140293543Y-124691913D01*
X140277522Y-124632121D01*
X140235707Y-124476067D01*
X140235706Y-124476065D01*
X140234284Y-124470757D01*
X140226588Y-124454253D01*
X140139849Y-124268238D01*
X140139846Y-124268233D01*
X140137523Y-124263251D01*
X140019130Y-124094169D01*
X140009357Y-124080211D01*
X140009355Y-124080208D01*
X140006198Y-124075700D01*
X140002296Y-124071798D01*
X140002295Y-124071795D01*
X139998774Y-124067600D01*
X139999617Y-124066892D01*
X139968270Y-124009486D01*
X139973335Y-123938671D01*
X140002296Y-123893608D01*
X142151405Y-121744499D01*
X142213717Y-121710473D01*
X142284532Y-121715538D01*
X142341368Y-121758085D01*
X142366179Y-121824605D01*
X142366500Y-121833594D01*
X142366500Y-123700606D01*
X142346498Y-123768727D01*
X142312771Y-123803819D01*
X142160211Y-123910643D01*
X142160208Y-123910645D01*
X142155700Y-123913802D01*
X141993802Y-124075700D01*
X141990645Y-124080208D01*
X141990643Y-124080211D01*
X141980870Y-124094169D01*
X141862477Y-124263251D01*
X141860154Y-124268233D01*
X141860151Y-124268238D01*
X141773412Y-124454253D01*
X141765716Y-124470757D01*
X141764294Y-124476065D01*
X141764293Y-124476067D01*
X141722478Y-124632121D01*
X141706457Y-124691913D01*
X141686502Y-124920000D01*
X141706457Y-125148087D01*
X141707880Y-125153398D01*
X141707881Y-125153402D01*
X141744715Y-125290865D01*
X141765716Y-125369243D01*
X141768039Y-125374224D01*
X141768039Y-125374225D01*
X141860151Y-125571762D01*
X141860154Y-125571767D01*
X141862477Y-125576749D01*
X141935902Y-125681611D01*
X141944834Y-125694366D01*
X141993802Y-125764300D01*
X142155700Y-125926198D01*
X142160208Y-125929355D01*
X142160211Y-125929357D01*
X142312771Y-126036181D01*
X142357099Y-126091638D01*
X142366500Y-126139394D01*
X142366500Y-130765405D01*
X142346498Y-130833526D01*
X142329595Y-130854500D01*
X139413247Y-133770848D01*
X139350935Y-133804874D01*
X139291542Y-133803460D01*
X139228087Y-133786457D01*
X139000000Y-133766502D01*
X138771913Y-133786457D01*
X138766600Y-133787881D01*
X138766598Y-133787881D01*
X138556067Y-133844293D01*
X138556065Y-133844294D01*
X138550757Y-133845716D01*
X138545776Y-133848039D01*
X138545775Y-133848039D01*
X138348238Y-133940151D01*
X138348233Y-133940154D01*
X138343251Y-133942477D01*
X138293849Y-133977069D01*
X138160211Y-134070643D01*
X138160208Y-134070645D01*
X138155700Y-134073802D01*
X137993802Y-134235700D01*
X137990645Y-134240208D01*
X137990643Y-134240211D01*
X137943493Y-134307548D01*
X137862477Y-134423251D01*
X137860154Y-134428233D01*
X137860151Y-134428238D01*
X137774505Y-134611908D01*
X137765716Y-134630757D01*
X137764294Y-134636065D01*
X137764293Y-134636067D01*
X137710202Y-134837936D01*
X137706457Y-134851913D01*
X137686502Y-135080000D01*
X137706457Y-135308087D01*
X137707880Y-135313398D01*
X137707881Y-135313402D01*
X137760420Y-135509477D01*
X137765716Y-135529243D01*
X137768039Y-135534225D01*
X137768041Y-135534230D01*
X137839395Y-135687251D01*
X137850056Y-135757442D01*
X137821076Y-135822255D01*
X137761656Y-135861111D01*
X137725200Y-135866500D01*
X136734595Y-135866500D01*
X136666474Y-135846498D01*
X136645500Y-135829595D01*
X136309152Y-135493247D01*
X136275126Y-135430935D01*
X136276540Y-135371541D01*
X136284008Y-135343670D01*
X136293543Y-135308087D01*
X136313498Y-135080000D01*
X136293543Y-134851913D01*
X136289798Y-134837936D01*
X136235707Y-134636067D01*
X136235706Y-134636065D01*
X136234284Y-134630757D01*
X136225495Y-134611908D01*
X136139849Y-134428238D01*
X136139846Y-134428233D01*
X136137523Y-134423251D01*
X136056507Y-134307548D01*
X136009357Y-134240211D01*
X136009355Y-134240208D01*
X136006198Y-134235700D01*
X135844300Y-134073802D01*
X135839792Y-134070645D01*
X135839789Y-134070643D01*
X135706151Y-133977069D01*
X135656749Y-133942477D01*
X135651767Y-133940154D01*
X135651762Y-133940151D01*
X135454225Y-133848039D01*
X135454224Y-133848039D01*
X135449243Y-133845716D01*
X135443935Y-133844294D01*
X135443933Y-133844293D01*
X135233402Y-133787881D01*
X135233400Y-133787881D01*
X135228087Y-133786457D01*
X135000000Y-133766502D01*
X134771913Y-133786457D01*
X134766600Y-133787881D01*
X134766598Y-133787881D01*
X134556067Y-133844293D01*
X134556065Y-133844294D01*
X134550757Y-133845716D01*
X134545776Y-133848039D01*
X134545775Y-133848039D01*
X134348238Y-133940151D01*
X134348233Y-133940154D01*
X134343251Y-133942477D01*
X134293849Y-133977069D01*
X134160211Y-134070643D01*
X134160208Y-134070645D01*
X134155700Y-134073802D01*
X133993802Y-134235700D01*
X133990645Y-134240208D01*
X133990643Y-134240211D01*
X133943493Y-134307548D01*
X133862477Y-134423251D01*
X133860154Y-134428233D01*
X133860151Y-134428238D01*
X133774505Y-134611908D01*
X133765716Y-134630757D01*
X133764294Y-134636065D01*
X133764293Y-134636067D01*
X133710202Y-134837936D01*
X133706457Y-134851913D01*
X133686502Y-135080000D01*
X133706457Y-135308087D01*
X133707880Y-135313398D01*
X133707881Y-135313402D01*
X133760420Y-135509477D01*
X133765716Y-135529243D01*
X133768039Y-135534224D01*
X133768039Y-135534225D01*
X133860151Y-135731762D01*
X133860154Y-135731767D01*
X133862477Y-135736749D01*
X133993802Y-135924300D01*
X134155700Y-136086198D01*
X134160208Y-136089355D01*
X134160211Y-136089357D01*
X134188967Y-136109492D01*
X134343251Y-136217523D01*
X134348233Y-136219846D01*
X134348238Y-136219849D01*
X134545775Y-136311961D01*
X134550757Y-136314284D01*
X134556065Y-136315706D01*
X134556067Y-136315707D01*
X134766598Y-136372119D01*
X134766600Y-136372119D01*
X134771913Y-136373543D01*
X135000000Y-136393498D01*
X135228087Y-136373543D01*
X135233398Y-136372120D01*
X135233409Y-136372118D01*
X135291541Y-136356541D01*
X135362517Y-136358230D01*
X135413248Y-136389152D01*
X135916343Y-136892247D01*
X135923887Y-136900537D01*
X135928000Y-136907018D01*
X135933777Y-136912443D01*
X135977667Y-136953658D01*
X135980509Y-136956413D01*
X136000230Y-136976134D01*
X136003425Y-136978612D01*
X136012447Y-136986318D01*
X136044679Y-137016586D01*
X136051628Y-137020406D01*
X136062432Y-137026346D01*
X136078956Y-137037199D01*
X136094959Y-137049613D01*
X136135543Y-137067176D01*
X136146173Y-137072383D01*
X136184940Y-137093695D01*
X136192617Y-137095666D01*
X136192622Y-137095668D01*
X136204558Y-137098732D01*
X136223266Y-137105137D01*
X136241855Y-137113181D01*
X136249683Y-137114421D01*
X136249690Y-137114423D01*
X136285524Y-137120099D01*
X136297144Y-137122505D01*
X136328959Y-137130673D01*
X136339970Y-137133500D01*
X136360224Y-137133500D01*
X136379934Y-137135051D01*
X136399943Y-137138220D01*
X136407835Y-137137474D01*
X136426580Y-137135702D01*
X136443962Y-137134059D01*
X136455819Y-137133500D01*
X139091533Y-137133500D01*
X139102716Y-137134027D01*
X139110209Y-137135702D01*
X139118135Y-137135453D01*
X139118136Y-137135453D01*
X139178286Y-137133562D01*
X139182245Y-137133500D01*
X139210156Y-137133500D01*
X139214091Y-137133003D01*
X139214156Y-137132995D01*
X139225993Y-137132062D01*
X139258251Y-137131048D01*
X139262270Y-137130922D01*
X139270189Y-137130673D01*
X139289643Y-137125021D01*
X139309000Y-137121013D01*
X139321230Y-137119468D01*
X139321231Y-137119468D01*
X139329097Y-137118474D01*
X139336468Y-137115555D01*
X139336470Y-137115555D01*
X139370212Y-137102196D01*
X139381442Y-137098351D01*
X139416283Y-137088229D01*
X139416284Y-137088229D01*
X139423893Y-137086018D01*
X139430712Y-137081985D01*
X139430717Y-137081983D01*
X139441328Y-137075707D01*
X139459076Y-137067012D01*
X139477917Y-137059552D01*
X139498287Y-137044753D01*
X139513687Y-137033564D01*
X139523607Y-137027048D01*
X139554835Y-137008580D01*
X139554838Y-137008578D01*
X139561662Y-137004542D01*
X139575983Y-136990221D01*
X139591017Y-136977380D01*
X139592732Y-136976134D01*
X139607407Y-136965472D01*
X139635598Y-136931395D01*
X139643588Y-136922616D01*
X141479322Y-135086883D01*
X141541634Y-135052857D01*
X141612450Y-135057922D01*
X141669285Y-135100469D01*
X141693938Y-135164996D01*
X141706457Y-135308087D01*
X141707880Y-135313398D01*
X141707881Y-135313402D01*
X141760420Y-135509477D01*
X141765716Y-135529243D01*
X141768039Y-135534224D01*
X141768039Y-135534225D01*
X141860151Y-135731762D01*
X141860154Y-135731767D01*
X141862477Y-135736749D01*
X141993802Y-135924300D01*
X142155700Y-136086198D01*
X142160208Y-136089355D01*
X142160211Y-136089357D01*
X142188967Y-136109492D01*
X142343251Y-136217523D01*
X142348233Y-136219846D01*
X142348238Y-136219849D01*
X142545775Y-136311961D01*
X142550757Y-136314284D01*
X142556065Y-136315706D01*
X142556067Y-136315707D01*
X142766598Y-136372119D01*
X142766600Y-136372119D01*
X142771913Y-136373543D01*
X143000000Y-136393498D01*
X143228087Y-136373543D01*
X143233400Y-136372119D01*
X143233402Y-136372119D01*
X143443933Y-136315707D01*
X143443935Y-136315706D01*
X143449243Y-136314284D01*
X143454225Y-136311961D01*
X143651762Y-136219849D01*
X143651767Y-136219846D01*
X143656749Y-136217523D01*
X143811033Y-136109492D01*
X143839789Y-136089357D01*
X143839792Y-136089355D01*
X143844300Y-136086198D01*
X144006198Y-135924300D01*
X144137523Y-135736749D01*
X144139846Y-135731767D01*
X144139849Y-135731762D01*
X144231961Y-135534225D01*
X144231961Y-135534224D01*
X144234284Y-135529243D01*
X144239581Y-135509477D01*
X144292119Y-135313402D01*
X144292120Y-135313398D01*
X144293543Y-135308087D01*
X144313498Y-135080000D01*
X144293543Y-134851913D01*
X144292119Y-134846598D01*
X144292118Y-134846591D01*
X144276541Y-134788459D01*
X144278230Y-134717483D01*
X144309152Y-134666752D01*
X144350010Y-134625894D01*
X144412322Y-134591868D01*
X144439105Y-134588989D01*
X145612701Y-134588989D01*
X145680822Y-134608991D01*
X145727315Y-134662647D01*
X145737419Y-134732921D01*
X145734410Y-134747593D01*
X145706457Y-134851913D01*
X145686502Y-135080000D01*
X145706457Y-135308087D01*
X145707880Y-135313398D01*
X145707881Y-135313402D01*
X145760420Y-135509477D01*
X145765716Y-135529243D01*
X145768039Y-135534224D01*
X145768039Y-135534225D01*
X145860151Y-135731762D01*
X145860154Y-135731767D01*
X145862477Y-135736749D01*
X145993802Y-135924300D01*
X146155700Y-136086198D01*
X146160208Y-136089355D01*
X146160211Y-136089357D01*
X146188967Y-136109492D01*
X146343251Y-136217523D01*
X146348233Y-136219846D01*
X146348238Y-136219849D01*
X146545775Y-136311961D01*
X146550757Y-136314284D01*
X146556065Y-136315706D01*
X146556067Y-136315707D01*
X146766598Y-136372119D01*
X146766600Y-136372119D01*
X146771913Y-136373543D01*
X147000000Y-136393498D01*
X147228087Y-136373543D01*
X147233400Y-136372119D01*
X147233402Y-136372119D01*
X147443933Y-136315707D01*
X147443935Y-136315706D01*
X147449243Y-136314284D01*
X147454225Y-136311961D01*
X147651762Y-136219849D01*
X147651767Y-136219846D01*
X147656749Y-136217523D01*
X147811033Y-136109492D01*
X147839789Y-136089357D01*
X147839792Y-136089355D01*
X147844300Y-136086198D01*
X148006198Y-135924300D01*
X148137523Y-135736749D01*
X148139846Y-135731767D01*
X148139849Y-135731762D01*
X148231961Y-135534225D01*
X148231961Y-135534224D01*
X148234284Y-135529243D01*
X148239581Y-135509477D01*
X148292119Y-135313402D01*
X148292120Y-135313398D01*
X148293543Y-135308087D01*
X148313498Y-135080000D01*
X149686502Y-135080000D01*
X149706457Y-135308087D01*
X149707880Y-135313398D01*
X149707881Y-135313402D01*
X149760420Y-135509477D01*
X149765716Y-135529243D01*
X149768039Y-135534224D01*
X149768039Y-135534225D01*
X149860151Y-135731762D01*
X149860154Y-135731767D01*
X149862477Y-135736749D01*
X149993802Y-135924300D01*
X150155700Y-136086198D01*
X150160208Y-136089355D01*
X150160211Y-136089357D01*
X150188967Y-136109492D01*
X150343251Y-136217523D01*
X150348233Y-136219846D01*
X150348238Y-136219849D01*
X150545775Y-136311961D01*
X150550757Y-136314284D01*
X150556065Y-136315706D01*
X150556067Y-136315707D01*
X150766598Y-136372119D01*
X150766600Y-136372119D01*
X150771913Y-136373543D01*
X151000000Y-136393498D01*
X151228087Y-136373543D01*
X151233400Y-136372119D01*
X151233402Y-136372119D01*
X151443933Y-136315707D01*
X151443935Y-136315706D01*
X151449243Y-136314284D01*
X151454225Y-136311961D01*
X151651762Y-136219849D01*
X151651767Y-136219846D01*
X151656749Y-136217523D01*
X151811033Y-136109492D01*
X151839789Y-136089357D01*
X151839792Y-136089355D01*
X151844300Y-136086198D01*
X152006198Y-135924300D01*
X152137523Y-135736749D01*
X152139846Y-135731767D01*
X152139849Y-135731762D01*
X152231961Y-135534225D01*
X152231961Y-135534224D01*
X152234284Y-135529243D01*
X152239581Y-135509477D01*
X152292119Y-135313402D01*
X152292120Y-135313398D01*
X152293543Y-135308087D01*
X152313498Y-135080000D01*
X153686502Y-135080000D01*
X153706457Y-135308087D01*
X153707880Y-135313398D01*
X153707881Y-135313402D01*
X153760420Y-135509477D01*
X153765716Y-135529243D01*
X153768039Y-135534224D01*
X153768039Y-135534225D01*
X153860151Y-135731762D01*
X153860154Y-135731767D01*
X153862477Y-135736749D01*
X153993802Y-135924300D01*
X154155700Y-136086198D01*
X154160208Y-136089355D01*
X154160211Y-136089357D01*
X154188967Y-136109492D01*
X154343251Y-136217523D01*
X154348233Y-136219846D01*
X154348238Y-136219849D01*
X154545775Y-136311961D01*
X154550757Y-136314284D01*
X154556065Y-136315706D01*
X154556067Y-136315707D01*
X154766598Y-136372119D01*
X154766600Y-136372119D01*
X154771913Y-136373543D01*
X155000000Y-136393498D01*
X155228087Y-136373543D01*
X155233398Y-136372120D01*
X155233409Y-136372118D01*
X155291541Y-136356541D01*
X155362517Y-136358230D01*
X155413248Y-136389152D01*
X156416348Y-137392253D01*
X156423888Y-137400539D01*
X156428000Y-137407018D01*
X156433777Y-137412443D01*
X156477651Y-137453643D01*
X156480493Y-137456398D01*
X156500230Y-137476135D01*
X156503427Y-137478615D01*
X156512447Y-137486318D01*
X156544679Y-137516586D01*
X156551625Y-137520405D01*
X156551628Y-137520407D01*
X156562434Y-137526348D01*
X156578953Y-137537199D01*
X156594959Y-137549614D01*
X156602228Y-137552759D01*
X156602232Y-137552762D01*
X156635537Y-137567174D01*
X156646187Y-137572391D01*
X156684940Y-137593695D01*
X156692615Y-137595666D01*
X156692616Y-137595666D01*
X156704562Y-137598733D01*
X156723267Y-137605137D01*
X156741855Y-137613181D01*
X156749678Y-137614420D01*
X156749688Y-137614423D01*
X156785524Y-137620099D01*
X156797144Y-137622505D01*
X156828959Y-137630673D01*
X156839970Y-137633500D01*
X156860224Y-137633500D01*
X156879934Y-137635051D01*
X156899943Y-137638220D01*
X156907835Y-137637474D01*
X156926580Y-137635702D01*
X156943962Y-137634059D01*
X156955819Y-137633500D01*
X187921233Y-137633500D01*
X187932416Y-137634027D01*
X187939909Y-137635702D01*
X187947835Y-137635453D01*
X187947836Y-137635453D01*
X188007986Y-137633562D01*
X188011945Y-137633500D01*
X188039856Y-137633500D01*
X188043791Y-137633003D01*
X188043856Y-137632995D01*
X188055693Y-137632062D01*
X188087951Y-137631048D01*
X188091970Y-137630922D01*
X188099889Y-137630673D01*
X188119343Y-137625021D01*
X188138700Y-137621013D01*
X188150930Y-137619468D01*
X188150931Y-137619468D01*
X188158797Y-137618474D01*
X188166168Y-137615555D01*
X188166170Y-137615555D01*
X188199912Y-137602196D01*
X188211142Y-137598351D01*
X188245983Y-137588229D01*
X188245984Y-137588229D01*
X188253593Y-137586018D01*
X188260412Y-137581985D01*
X188260417Y-137581983D01*
X188271028Y-137575707D01*
X188288776Y-137567012D01*
X188307617Y-137559552D01*
X188343387Y-137533564D01*
X188353307Y-137527048D01*
X188384535Y-137508580D01*
X188384538Y-137508578D01*
X188391362Y-137504542D01*
X188405683Y-137490221D01*
X188420717Y-137477380D01*
X188430694Y-137470131D01*
X188437107Y-137465472D01*
X188465298Y-137431395D01*
X188473288Y-137422616D01*
X191696305Y-134199599D01*
X191758617Y-134165573D01*
X191829432Y-134170638D01*
X191886268Y-134213185D01*
X191908715Y-134262820D01*
X191944252Y-134432187D01*
X191947312Y-134442384D01*
X192029284Y-134649952D01*
X192034018Y-134659489D01*
X192149796Y-134850285D01*
X192156062Y-134858878D01*
X192302333Y-135027441D01*
X192309964Y-135034861D01*
X192482542Y-135176368D01*
X192491309Y-135182393D01*
X192685262Y-135292797D01*
X192694926Y-135297262D01*
X192904711Y-135373410D01*
X192914979Y-135376181D01*
X193135766Y-135416106D01*
X193143995Y-135417039D01*
X193162874Y-135417930D01*
X193165849Y-135418000D01*
X193227885Y-135418000D01*
X193243124Y-135413525D01*
X193244329Y-135412135D01*
X193246000Y-135404452D01*
X193246000Y-135399885D01*
X193754000Y-135399885D01*
X193758475Y-135415124D01*
X193759865Y-135416329D01*
X193767548Y-135418000D01*
X193786054Y-135418000D01*
X193791363Y-135417775D01*
X193957707Y-135403661D01*
X193968179Y-135401871D01*
X194184202Y-135345802D01*
X194194242Y-135342266D01*
X194397732Y-135250601D01*
X194407018Y-135245432D01*
X194592155Y-135120790D01*
X194600441Y-135114129D01*
X194761930Y-134960076D01*
X194768979Y-134952108D01*
X194902203Y-134773048D01*
X194907802Y-134764018D01*
X195008953Y-134565069D01*
X195012956Y-134555208D01*
X195079138Y-134342071D01*
X195081420Y-134331691D01*
X195084036Y-134311957D01*
X195081840Y-134297793D01*
X195068655Y-134294000D01*
X193772115Y-134294000D01*
X193756876Y-134298475D01*
X193755671Y-134299865D01*
X193754000Y-134307548D01*
X193754000Y-135399885D01*
X193246000Y-135399885D01*
X193246000Y-133912000D01*
X193266002Y-133843879D01*
X193319658Y-133797386D01*
X193372000Y-133786000D01*
X195066627Y-133786000D01*
X195080158Y-133782027D01*
X195081683Y-133771420D01*
X195055748Y-133647812D01*
X195052688Y-133637616D01*
X194970716Y-133430048D01*
X194965982Y-133420511D01*
X194850204Y-133229715D01*
X194843938Y-133221122D01*
X194697667Y-133052559D01*
X194690035Y-133045138D01*
X194656728Y-133017827D01*
X194616734Y-132959167D01*
X194614803Y-132888197D01*
X194651548Y-132827449D01*
X194674346Y-132812196D01*
X194673946Y-132811550D01*
X194818120Y-132722332D01*
X194824348Y-132718478D01*
X194949305Y-132593303D01*
X195042115Y-132442738D01*
X195097797Y-132274861D01*
X195100396Y-132249501D01*
X195108172Y-132173598D01*
X195108500Y-132170400D01*
X195108500Y-130829600D01*
X195108163Y-130826350D01*
X195098238Y-130730692D01*
X195098237Y-130730688D01*
X195097526Y-130723834D01*
X195090819Y-130703729D01*
X195043868Y-130563002D01*
X195041550Y-130556054D01*
X194948478Y-130405652D01*
X194823303Y-130280695D01*
X194817072Y-130276854D01*
X194678968Y-130191725D01*
X194678966Y-130191724D01*
X194672738Y-130187885D01*
X194512254Y-130134655D01*
X194511389Y-130134368D01*
X194511387Y-130134368D01*
X194504861Y-130132203D01*
X194498025Y-130131503D01*
X194498022Y-130131502D01*
X194454969Y-130127091D01*
X194400400Y-130121500D01*
X192599600Y-130121500D01*
X192596354Y-130121837D01*
X192596350Y-130121837D01*
X192500692Y-130131762D01*
X192500688Y-130131763D01*
X192493834Y-130132474D01*
X192487298Y-130134655D01*
X192487296Y-130134655D01*
X192355194Y-130178728D01*
X192326054Y-130188450D01*
X192175652Y-130281522D01*
X192050695Y-130406697D01*
X192046855Y-130412927D01*
X192046854Y-130412928D01*
X191965596Y-130544753D01*
X191957885Y-130557262D01*
X191945801Y-130593695D01*
X191906791Y-130711308D01*
X191902203Y-130725139D01*
X191891500Y-130829600D01*
X191891500Y-132160406D01*
X191871498Y-132228527D01*
X191854595Y-132249501D01*
X187774500Y-136329595D01*
X187712188Y-136363621D01*
X187685405Y-136366500D01*
X166641125Y-136366500D01*
X166573004Y-136346498D01*
X166526511Y-136292842D01*
X166516407Y-136222568D01*
X166545901Y-136157988D01*
X166551015Y-136152431D01*
X166690970Y-136009264D01*
X166732683Y-135951957D01*
X166847859Y-135793721D01*
X166850547Y-135790028D01*
X166976804Y-135550053D01*
X166982394Y-135534225D01*
X167037065Y-135379407D01*
X167067096Y-135294366D01*
X167092595Y-135164996D01*
X167118652Y-135032794D01*
X167118653Y-135032788D01*
X167119533Y-135028322D01*
X167119760Y-135023766D01*
X167132789Y-134762064D01*
X167132789Y-134762058D01*
X167133016Y-134757495D01*
X167107262Y-134487559D01*
X167100267Y-134458970D01*
X167063994Y-134310740D01*
X167042810Y-134224168D01*
X167038362Y-134213185D01*
X166942725Y-133977069D01*
X166942725Y-133977068D01*
X166941012Y-133972840D01*
X166803999Y-133738839D01*
X166672318Y-133574180D01*
X166637493Y-133530634D01*
X166637492Y-133530632D01*
X166634641Y-133527068D01*
X166594978Y-133490017D01*
X166546434Y-133444669D01*
X171092001Y-133444669D01*
X171092371Y-133451490D01*
X171097895Y-133502352D01*
X171101521Y-133517604D01*
X171146676Y-133638054D01*
X171155214Y-133653649D01*
X171231715Y-133755724D01*
X171244276Y-133768285D01*
X171346351Y-133844786D01*
X171361946Y-133853324D01*
X171482394Y-133898478D01*
X171497649Y-133902105D01*
X171548514Y-133907631D01*
X171555328Y-133908000D01*
X172227885Y-133908000D01*
X172243124Y-133903525D01*
X172244329Y-133902135D01*
X172246000Y-133894452D01*
X172246000Y-133889884D01*
X172754000Y-133889884D01*
X172758475Y-133905123D01*
X172759865Y-133906328D01*
X172767548Y-133907999D01*
X173444669Y-133907999D01*
X173451490Y-133907629D01*
X173502352Y-133902105D01*
X173517604Y-133898479D01*
X173638054Y-133853324D01*
X173653649Y-133844786D01*
X173755724Y-133768285D01*
X173768285Y-133755724D01*
X173844786Y-133653649D01*
X173853324Y-133638054D01*
X173898478Y-133517606D01*
X173902105Y-133502351D01*
X173907631Y-133451486D01*
X173908000Y-133444672D01*
X173908000Y-132772115D01*
X173903525Y-132756876D01*
X173902135Y-132755671D01*
X173894452Y-132754000D01*
X172772115Y-132754000D01*
X172756876Y-132758475D01*
X172755671Y-132759865D01*
X172754000Y-132767548D01*
X172754000Y-133889884D01*
X172246000Y-133889884D01*
X172246000Y-132772115D01*
X172241525Y-132756876D01*
X172240135Y-132755671D01*
X172232452Y-132754000D01*
X171110116Y-132754000D01*
X171094877Y-132758475D01*
X171093672Y-132759865D01*
X171092001Y-132767548D01*
X171092001Y-133444669D01*
X166546434Y-133444669D01*
X166439824Y-133345079D01*
X166439821Y-133345077D01*
X166436488Y-133341963D01*
X166213688Y-133187402D01*
X166209610Y-133185373D01*
X165974997Y-133068654D01*
X165974994Y-133068653D01*
X165970910Y-133066621D01*
X165713240Y-132982153D01*
X165708748Y-132981373D01*
X165449856Y-132936421D01*
X165449848Y-132936420D01*
X165446075Y-132935765D01*
X165438429Y-132935384D01*
X165361971Y-132931578D01*
X165361963Y-132931578D01*
X165360400Y-132931500D01*
X164671116Y-132931500D01*
X164668848Y-132931665D01*
X164668836Y-132931665D01*
X164539467Y-132941052D01*
X164469549Y-132946125D01*
X164465094Y-132947109D01*
X164465091Y-132947109D01*
X164209223Y-133003600D01*
X164209219Y-133003601D01*
X164204763Y-133004585D01*
X164135332Y-133030890D01*
X163955460Y-133099037D01*
X163955457Y-133099038D01*
X163951190Y-133100655D01*
X163798669Y-133185373D01*
X163721683Y-133228135D01*
X163714141Y-133232324D01*
X163710509Y-133235096D01*
X163555637Y-133353291D01*
X163498583Y-133396833D01*
X163309030Y-133590736D01*
X163306343Y-133594428D01*
X163306341Y-133594430D01*
X163165532Y-133787882D01*
X163149453Y-133809972D01*
X163023196Y-134049947D01*
X163021677Y-134054248D01*
X163021675Y-134054253D01*
X162982364Y-134165573D01*
X162932904Y-134305634D01*
X162929291Y-134323965D01*
X162881770Y-134565069D01*
X162880467Y-134571678D01*
X162880240Y-134576232D01*
X162880240Y-134576234D01*
X162869675Y-134788459D01*
X162866984Y-134842505D01*
X162892738Y-135112441D01*
X162893822Y-135116870D01*
X162893823Y-135116877D01*
X162919410Y-135221438D01*
X162957190Y-135375832D01*
X162958905Y-135380067D01*
X162958906Y-135380069D01*
X163055949Y-135619658D01*
X163058988Y-135627160D01*
X163196001Y-135861161D01*
X163254181Y-135933911D01*
X163337981Y-136038697D01*
X163365359Y-136072932D01*
X163446175Y-136148426D01*
X163482299Y-136209543D01*
X163479646Y-136280490D01*
X163439058Y-136338741D01*
X163373420Y-136365800D01*
X163360161Y-136366500D01*
X157234594Y-136366500D01*
X157166473Y-136346498D01*
X157145499Y-136329595D01*
X156309152Y-135493248D01*
X156275126Y-135430936D01*
X156276541Y-135371541D01*
X156292118Y-135313409D01*
X156292120Y-135313398D01*
X156293543Y-135308087D01*
X156313498Y-135080000D01*
X156293543Y-134851913D01*
X156289798Y-134837936D01*
X156235707Y-134636067D01*
X156235706Y-134636065D01*
X156234284Y-134630757D01*
X156225495Y-134611908D01*
X156139849Y-134428238D01*
X156139846Y-134428233D01*
X156137523Y-134423251D01*
X156056507Y-134307548D01*
X156009357Y-134240211D01*
X156009355Y-134240208D01*
X156006198Y-134235700D01*
X155844300Y-134073802D01*
X155839792Y-134070645D01*
X155839789Y-134070643D01*
X155706151Y-133977069D01*
X155656749Y-133942477D01*
X155651767Y-133940154D01*
X155651762Y-133940151D01*
X155454225Y-133848039D01*
X155454224Y-133848039D01*
X155449243Y-133845716D01*
X155443935Y-133844294D01*
X155443933Y-133844293D01*
X155233402Y-133787881D01*
X155233400Y-133787881D01*
X155228087Y-133786457D01*
X155000000Y-133766502D01*
X154771913Y-133786457D01*
X154766600Y-133787881D01*
X154766598Y-133787881D01*
X154556067Y-133844293D01*
X154556065Y-133844294D01*
X154550757Y-133845716D01*
X154545776Y-133848039D01*
X154545775Y-133848039D01*
X154348238Y-133940151D01*
X154348233Y-133940154D01*
X154343251Y-133942477D01*
X154293849Y-133977069D01*
X154160211Y-134070643D01*
X154160208Y-134070645D01*
X154155700Y-134073802D01*
X153993802Y-134235700D01*
X153990645Y-134240208D01*
X153990643Y-134240211D01*
X153943493Y-134307548D01*
X153862477Y-134423251D01*
X153860154Y-134428233D01*
X153860151Y-134428238D01*
X153774505Y-134611908D01*
X153765716Y-134630757D01*
X153764294Y-134636065D01*
X153764293Y-134636067D01*
X153710202Y-134837936D01*
X153706457Y-134851913D01*
X153686502Y-135080000D01*
X152313498Y-135080000D01*
X152293543Y-134851913D01*
X152289798Y-134837936D01*
X152235707Y-134636067D01*
X152235706Y-134636065D01*
X152234284Y-134630757D01*
X152225495Y-134611908D01*
X152139849Y-134428238D01*
X152139846Y-134428233D01*
X152137523Y-134423251D01*
X152056507Y-134307548D01*
X152009357Y-134240211D01*
X152009355Y-134240208D01*
X152006198Y-134235700D01*
X151844300Y-134073802D01*
X151839792Y-134070645D01*
X151839789Y-134070643D01*
X151706151Y-133977069D01*
X151656749Y-133942477D01*
X151651767Y-133940154D01*
X151651762Y-133940151D01*
X151454225Y-133848039D01*
X151454224Y-133848039D01*
X151449243Y-133845716D01*
X151443935Y-133844294D01*
X151443933Y-133844293D01*
X151233402Y-133787881D01*
X151233400Y-133787881D01*
X151228087Y-133786457D01*
X151000000Y-133766502D01*
X150771913Y-133786457D01*
X150766600Y-133787881D01*
X150766598Y-133787881D01*
X150556067Y-133844293D01*
X150556065Y-133844294D01*
X150550757Y-133845716D01*
X150545776Y-133848039D01*
X150545775Y-133848039D01*
X150348238Y-133940151D01*
X150348233Y-133940154D01*
X150343251Y-133942477D01*
X150293849Y-133977069D01*
X150160211Y-134070643D01*
X150160208Y-134070645D01*
X150155700Y-134073802D01*
X149993802Y-134235700D01*
X149990645Y-134240208D01*
X149990643Y-134240211D01*
X149943493Y-134307548D01*
X149862477Y-134423251D01*
X149860154Y-134428233D01*
X149860151Y-134428238D01*
X149774505Y-134611908D01*
X149765716Y-134630757D01*
X149764294Y-134636065D01*
X149764293Y-134636067D01*
X149710202Y-134837936D01*
X149706457Y-134851913D01*
X149686502Y-135080000D01*
X148313498Y-135080000D01*
X148293543Y-134851913D01*
X148289798Y-134837936D01*
X148235707Y-134636067D01*
X148235706Y-134636065D01*
X148234284Y-134630757D01*
X148224135Y-134608991D01*
X148154179Y-134458970D01*
X148143518Y-134388778D01*
X148172498Y-134323965D01*
X148179279Y-134316625D01*
X152530435Y-129965469D01*
X171087095Y-129965469D01*
X171087392Y-129970622D01*
X171087392Y-129970625D01*
X171093067Y-130069041D01*
X171100427Y-130196697D01*
X171101564Y-130201743D01*
X171101565Y-130201749D01*
X171133741Y-130344523D01*
X171151346Y-130422642D01*
X171153288Y-130427424D01*
X171153289Y-130427428D01*
X171228716Y-130613181D01*
X171238484Y-130637237D01*
X171359501Y-130834719D01*
X171362882Y-130838622D01*
X171445498Y-130933997D01*
X171474980Y-130998582D01*
X171464865Y-131068855D01*
X171418364Y-131122503D01*
X171394489Y-131134476D01*
X171361948Y-131146675D01*
X171346351Y-131155214D01*
X171244276Y-131231715D01*
X171231715Y-131244276D01*
X171155214Y-131346351D01*
X171146676Y-131361946D01*
X171101522Y-131482394D01*
X171097895Y-131497649D01*
X171092369Y-131548514D01*
X171092000Y-131555328D01*
X171092000Y-132227885D01*
X171096475Y-132243124D01*
X171097865Y-132244329D01*
X171105548Y-132246000D01*
X173889884Y-132246000D01*
X173905123Y-132241525D01*
X173906328Y-132240135D01*
X173907999Y-132232452D01*
X173907999Y-131555331D01*
X173907629Y-131548510D01*
X173902105Y-131497648D01*
X173898479Y-131482396D01*
X173853324Y-131361946D01*
X173844786Y-131346351D01*
X173768285Y-131244276D01*
X173755724Y-131231715D01*
X173653649Y-131155214D01*
X173638054Y-131146676D01*
X173608581Y-131135627D01*
X173551817Y-131092985D01*
X173527117Y-131026424D01*
X173542324Y-130957075D01*
X173563870Y-130928395D01*
X173572641Y-130919654D01*
X173576303Y-130916005D01*
X173711458Y-130727917D01*
X173716058Y-130718611D01*
X173811784Y-130524922D01*
X173811785Y-130524920D01*
X173814078Y-130520280D01*
X173881408Y-130298671D01*
X173911640Y-130069041D01*
X173913327Y-130000000D01*
X173907032Y-129923434D01*
X173894773Y-129774318D01*
X173894772Y-129774312D01*
X173894349Y-129769167D01*
X173837925Y-129544533D01*
X173835866Y-129539797D01*
X173747630Y-129336868D01*
X173747628Y-129336865D01*
X173745570Y-129332131D01*
X173619764Y-129137665D01*
X173463887Y-128966358D01*
X173459836Y-128963159D01*
X173459832Y-128963155D01*
X173313690Y-128847740D01*
X173272627Y-128789823D01*
X173269395Y-128718900D01*
X173305020Y-128657489D01*
X173318613Y-128646279D01*
X173412243Y-128579494D01*
X173576303Y-128416005D01*
X173711458Y-128227917D01*
X173758641Y-128132450D01*
X173811784Y-128024922D01*
X173811785Y-128024920D01*
X173814078Y-128020280D01*
X173881408Y-127798671D01*
X173911640Y-127569041D01*
X173913327Y-127500000D01*
X173895019Y-127277312D01*
X173894773Y-127274318D01*
X173894772Y-127274312D01*
X173894349Y-127269167D01*
X173843945Y-127068500D01*
X173839184Y-127049544D01*
X173839183Y-127049540D01*
X173837925Y-127044533D01*
X173826322Y-127017847D01*
X173747630Y-126836868D01*
X173747628Y-126836865D01*
X173745570Y-126832131D01*
X173619764Y-126637665D01*
X173463887Y-126466358D01*
X173459836Y-126463159D01*
X173459832Y-126463155D01*
X173286177Y-126326011D01*
X173286172Y-126326008D01*
X173282123Y-126322810D01*
X173277607Y-126320317D01*
X173277604Y-126320315D01*
X173083879Y-126213373D01*
X173083875Y-126213371D01*
X173079355Y-126210876D01*
X173074486Y-126209152D01*
X173074482Y-126209150D01*
X172865903Y-126135288D01*
X172865899Y-126135287D01*
X172861028Y-126133562D01*
X172855935Y-126132655D01*
X172855932Y-126132654D01*
X172638095Y-126093851D01*
X172638089Y-126093850D01*
X172633006Y-126092945D01*
X172560096Y-126092054D01*
X172406581Y-126090179D01*
X172406579Y-126090179D01*
X172401411Y-126090116D01*
X172172464Y-126125150D01*
X171952314Y-126197106D01*
X171947726Y-126199494D01*
X171947722Y-126199496D01*
X171751461Y-126301663D01*
X171746872Y-126304052D01*
X171742739Y-126307155D01*
X171742736Y-126307157D01*
X171590815Y-126421223D01*
X171561655Y-126443117D01*
X171547439Y-126457993D01*
X171414526Y-126597079D01*
X171401639Y-126610564D01*
X171398725Y-126614836D01*
X171398724Y-126614837D01*
X171361015Y-126670116D01*
X171271119Y-126801899D01*
X171173602Y-127011981D01*
X171111707Y-127235169D01*
X171087095Y-127465469D01*
X171087392Y-127470622D01*
X171087392Y-127470625D01*
X171093067Y-127569041D01*
X171100427Y-127696697D01*
X171101564Y-127701743D01*
X171101565Y-127701749D01*
X171133741Y-127844523D01*
X171151346Y-127922642D01*
X171153288Y-127927424D01*
X171153289Y-127927428D01*
X171236540Y-128132450D01*
X171238484Y-128137237D01*
X171359501Y-128334719D01*
X171511147Y-128509784D01*
X171675556Y-128646279D01*
X171686462Y-128655333D01*
X171726097Y-128714235D01*
X171727595Y-128785216D01*
X171690481Y-128845739D01*
X171681630Y-128853037D01*
X171561655Y-128943117D01*
X171401639Y-129110564D01*
X171398725Y-129114836D01*
X171398724Y-129114837D01*
X171383152Y-129137665D01*
X171271119Y-129301899D01*
X171173602Y-129511981D01*
X171111707Y-129735169D01*
X171087095Y-129965469D01*
X152530435Y-129965469D01*
X157253399Y-125242505D01*
X162866984Y-125242505D01*
X162892738Y-125512441D01*
X162893822Y-125516870D01*
X162893823Y-125516877D01*
X162909577Y-125581257D01*
X162957190Y-125775832D01*
X162958905Y-125780067D01*
X162958906Y-125780069D01*
X163045562Y-125994012D01*
X163058988Y-126027160D01*
X163196001Y-126261161D01*
X163302114Y-126393848D01*
X163360102Y-126466358D01*
X163365359Y-126472932D01*
X163368700Y-126476053D01*
X163554109Y-126649253D01*
X163563512Y-126658037D01*
X163786312Y-126812598D01*
X163790388Y-126814626D01*
X163790390Y-126814627D01*
X164025003Y-126931346D01*
X164025006Y-126931347D01*
X164029090Y-126933379D01*
X164286760Y-127017847D01*
X164291251Y-127018627D01*
X164291252Y-127018627D01*
X164550144Y-127063579D01*
X164550152Y-127063580D01*
X164553925Y-127064235D01*
X164557762Y-127064426D01*
X164638029Y-127068422D01*
X164638037Y-127068422D01*
X164639600Y-127068500D01*
X165328884Y-127068500D01*
X165331152Y-127068335D01*
X165331164Y-127068335D01*
X165462978Y-127058771D01*
X165530451Y-127053875D01*
X165534906Y-127052891D01*
X165534909Y-127052891D01*
X165790777Y-126996400D01*
X165790781Y-126996399D01*
X165795237Y-126995415D01*
X165990436Y-126921461D01*
X166044540Y-126900963D01*
X166044543Y-126900962D01*
X166048810Y-126899345D01*
X166285859Y-126767676D01*
X166441890Y-126648597D01*
X166497785Y-126605939D01*
X166497786Y-126605938D01*
X166501417Y-126603167D01*
X166507369Y-126597079D01*
X166616327Y-126485620D01*
X166690970Y-126409264D01*
X166694706Y-126404132D01*
X166847859Y-126193721D01*
X166850547Y-126190028D01*
X166976804Y-125950053D01*
X166984113Y-125929357D01*
X167036831Y-125780069D01*
X167067096Y-125694366D01*
X167103850Y-125507892D01*
X167118652Y-125432794D01*
X167118653Y-125432788D01*
X167119533Y-125428322D01*
X167122739Y-125363933D01*
X167132789Y-125162064D01*
X167132789Y-125162058D01*
X167133016Y-125157495D01*
X167107262Y-124887559D01*
X167098860Y-124853220D01*
X167065072Y-124715144D01*
X167042810Y-124624168D01*
X167038765Y-124614180D01*
X166942725Y-124377069D01*
X166942725Y-124377068D01*
X166941012Y-124372840D01*
X166812056Y-124152599D01*
X166806309Y-124142784D01*
X166806308Y-124142783D01*
X166803999Y-124138839D01*
X166634641Y-123927068D01*
X166616662Y-123910273D01*
X166439824Y-123745079D01*
X166439821Y-123745077D01*
X166436488Y-123741963D01*
X166213688Y-123587402D01*
X166209610Y-123585373D01*
X165974997Y-123468654D01*
X165974994Y-123468653D01*
X165970910Y-123466621D01*
X165713240Y-123382153D01*
X165706536Y-123380989D01*
X165449856Y-123336421D01*
X165449848Y-123336420D01*
X165446075Y-123335765D01*
X165438429Y-123335384D01*
X165361971Y-123331578D01*
X165361963Y-123331578D01*
X165360400Y-123331500D01*
X164671116Y-123331500D01*
X164668848Y-123331665D01*
X164668836Y-123331665D01*
X164537022Y-123341229D01*
X164469549Y-123346125D01*
X164465094Y-123347109D01*
X164465091Y-123347109D01*
X164209223Y-123403600D01*
X164209219Y-123403601D01*
X164204763Y-123404585D01*
X164099245Y-123444562D01*
X163955460Y-123499037D01*
X163955457Y-123499038D01*
X163951190Y-123500655D01*
X163808396Y-123579970D01*
X163724704Y-123626457D01*
X163714141Y-123632324D01*
X163644181Y-123685716D01*
X163520442Y-123780151D01*
X163498583Y-123796833D01*
X163495390Y-123800099D01*
X163495388Y-123800101D01*
X163480217Y-123815620D01*
X163309030Y-123990736D01*
X163306343Y-123994428D01*
X163306341Y-123994430D01*
X163187227Y-124158076D01*
X163149453Y-124209972D01*
X163023196Y-124449947D01*
X163021677Y-124454248D01*
X163021675Y-124454253D01*
X163016075Y-124470112D01*
X162932904Y-124705634D01*
X162932024Y-124710100D01*
X162889574Y-124925475D01*
X162880467Y-124971678D01*
X162880240Y-124976232D01*
X162880240Y-124976234D01*
X162868526Y-125211541D01*
X162866984Y-125242505D01*
X157253399Y-125242505D01*
X167166753Y-115329152D01*
X167229065Y-115295126D01*
X167288458Y-115296540D01*
X167351913Y-115313543D01*
X167580000Y-115333498D01*
X167808087Y-115313543D01*
X167813400Y-115312119D01*
X167813402Y-115312119D01*
X168023933Y-115255707D01*
X168023935Y-115255706D01*
X168029243Y-115254284D01*
X168092644Y-115224720D01*
X168231762Y-115159849D01*
X168231767Y-115159846D01*
X168236749Y-115157523D01*
X168414880Y-115032794D01*
X168419789Y-115029357D01*
X168419792Y-115029355D01*
X168424300Y-115026198D01*
X168586198Y-114864300D01*
X168594872Y-114851913D01*
X168709822Y-114687747D01*
X168717523Y-114676749D01*
X168719846Y-114671767D01*
X168719849Y-114671762D01*
X168736081Y-114636951D01*
X168782998Y-114583666D01*
X168851275Y-114564205D01*
X168919235Y-114584747D01*
X168964471Y-114636951D01*
X168980586Y-114671511D01*
X168986069Y-114681007D01*
X169111028Y-114859467D01*
X169118084Y-114867875D01*
X169272125Y-115021916D01*
X169280533Y-115028972D01*
X169458993Y-115153931D01*
X169468489Y-115159414D01*
X169665947Y-115251490D01*
X169676239Y-115255236D01*
X169848503Y-115301394D01*
X169862599Y-115301058D01*
X169866000Y-115293116D01*
X169866000Y-115287967D01*
X170374000Y-115287967D01*
X170377973Y-115301498D01*
X170386522Y-115302727D01*
X170563761Y-115255236D01*
X170574053Y-115251490D01*
X170771511Y-115159414D01*
X170781007Y-115153931D01*
X170959467Y-115028972D01*
X170967875Y-115021916D01*
X171121916Y-114867875D01*
X171128972Y-114859467D01*
X171140849Y-114842505D01*
X187866984Y-114842505D01*
X187892738Y-115112441D01*
X187893822Y-115116870D01*
X187893823Y-115116877D01*
X187913126Y-115195759D01*
X187957190Y-115375832D01*
X187958905Y-115380067D01*
X187958906Y-115380069D01*
X188029396Y-115554101D01*
X188058988Y-115627160D01*
X188196001Y-115861161D01*
X188365359Y-116072932D01*
X188368700Y-116076053D01*
X188516763Y-116214366D01*
X188563512Y-116258037D01*
X188786312Y-116412598D01*
X188790388Y-116414626D01*
X188790390Y-116414627D01*
X189025003Y-116531346D01*
X189025006Y-116531347D01*
X189029090Y-116533379D01*
X189286760Y-116617847D01*
X189291251Y-116618627D01*
X189291252Y-116618627D01*
X189550144Y-116663579D01*
X189550152Y-116663580D01*
X189553925Y-116664235D01*
X189557762Y-116664426D01*
X189638029Y-116668422D01*
X189638037Y-116668422D01*
X189639600Y-116668500D01*
X190328884Y-116668500D01*
X190331152Y-116668335D01*
X190331164Y-116668335D01*
X190462978Y-116658771D01*
X190530451Y-116653875D01*
X190534906Y-116652891D01*
X190534909Y-116652891D01*
X190790777Y-116596400D01*
X190790781Y-116596399D01*
X190795237Y-116595415D01*
X190986540Y-116522937D01*
X191044540Y-116500963D01*
X191044543Y-116500962D01*
X191048810Y-116499345D01*
X191274434Y-116374022D01*
X191281866Y-116369894D01*
X191281867Y-116369893D01*
X191285859Y-116367676D01*
X191433603Y-116254921D01*
X191497785Y-116205939D01*
X191497786Y-116205938D01*
X191501417Y-116203167D01*
X191690970Y-116009264D01*
X191752814Y-115924300D01*
X191847859Y-115793721D01*
X191850547Y-115790028D01*
X191976804Y-115550053D01*
X191983394Y-115531393D01*
X192036831Y-115380069D01*
X192067096Y-115294366D01*
X192103850Y-115107892D01*
X192118652Y-115032794D01*
X192118653Y-115032788D01*
X192119533Y-115028322D01*
X192127699Y-114864300D01*
X192132789Y-114762064D01*
X192132789Y-114762058D01*
X192133016Y-114757495D01*
X192107262Y-114487559D01*
X192105723Y-114481267D01*
X192070163Y-114335950D01*
X192042810Y-114224168D01*
X191983253Y-114077127D01*
X191942725Y-113977069D01*
X191942725Y-113977068D01*
X191941012Y-113972840D01*
X191803999Y-113738839D01*
X191634641Y-113527068D01*
X191546434Y-113444669D01*
X196092001Y-113444669D01*
X196092371Y-113451490D01*
X196097895Y-113502352D01*
X196101521Y-113517604D01*
X196146676Y-113638054D01*
X196155214Y-113653649D01*
X196231715Y-113755724D01*
X196244276Y-113768285D01*
X196346351Y-113844786D01*
X196361946Y-113853324D01*
X196482394Y-113898478D01*
X196497649Y-113902105D01*
X196548514Y-113907631D01*
X196555328Y-113908000D01*
X197227885Y-113908000D01*
X197243124Y-113903525D01*
X197244329Y-113902135D01*
X197246000Y-113894452D01*
X197246000Y-113889884D01*
X197754000Y-113889884D01*
X197758475Y-113905123D01*
X197759865Y-113906328D01*
X197767548Y-113907999D01*
X198444669Y-113907999D01*
X198451490Y-113907629D01*
X198502352Y-113902105D01*
X198517604Y-113898479D01*
X198638054Y-113853324D01*
X198653649Y-113844786D01*
X198755724Y-113768285D01*
X198768285Y-113755724D01*
X198844786Y-113653649D01*
X198853324Y-113638054D01*
X198898478Y-113517606D01*
X198902105Y-113502351D01*
X198907631Y-113451486D01*
X198908000Y-113444672D01*
X198908000Y-112772115D01*
X198903525Y-112756876D01*
X198902135Y-112755671D01*
X198894452Y-112754000D01*
X197772115Y-112754000D01*
X197756876Y-112758475D01*
X197755671Y-112759865D01*
X197754000Y-112767548D01*
X197754000Y-113889884D01*
X197246000Y-113889884D01*
X197246000Y-112772115D01*
X197241525Y-112756876D01*
X197240135Y-112755671D01*
X197232452Y-112754000D01*
X196110116Y-112754000D01*
X196094877Y-112758475D01*
X196093672Y-112759865D01*
X196092001Y-112767548D01*
X196092001Y-113444669D01*
X191546434Y-113444669D01*
X191495226Y-113396833D01*
X191439824Y-113345079D01*
X191439821Y-113345077D01*
X191436488Y-113341963D01*
X191213688Y-113187402D01*
X191147937Y-113154691D01*
X190974997Y-113068654D01*
X190974994Y-113068653D01*
X190970910Y-113066621D01*
X190713240Y-112982153D01*
X190708748Y-112981373D01*
X190449856Y-112936421D01*
X190449848Y-112936420D01*
X190446075Y-112935765D01*
X190438429Y-112935384D01*
X190361971Y-112931578D01*
X190361963Y-112931578D01*
X190360400Y-112931500D01*
X189671116Y-112931500D01*
X189668848Y-112931665D01*
X189668836Y-112931665D01*
X189537022Y-112941229D01*
X189469549Y-112946125D01*
X189465094Y-112947109D01*
X189465091Y-112947109D01*
X189209223Y-113003600D01*
X189209219Y-113003601D01*
X189204763Y-113004585D01*
X189077977Y-113052620D01*
X188955460Y-113099037D01*
X188955457Y-113099038D01*
X188951190Y-113100655D01*
X188714141Y-113232324D01*
X188710509Y-113235096D01*
X188533646Y-113370074D01*
X188498583Y-113396833D01*
X188309030Y-113590736D01*
X188306343Y-113594428D01*
X188306341Y-113594430D01*
X188152141Y-113806279D01*
X188149453Y-113809972D01*
X188023196Y-114049947D01*
X188021677Y-114054248D01*
X188021675Y-114054253D01*
X188012643Y-114079830D01*
X187932904Y-114305634D01*
X187932024Y-114310100D01*
X187882096Y-114563414D01*
X187880467Y-114571678D01*
X187880240Y-114576232D01*
X187880240Y-114576234D01*
X187870989Y-114762064D01*
X187866984Y-114842505D01*
X171140849Y-114842505D01*
X171253931Y-114681007D01*
X171259414Y-114671511D01*
X171351490Y-114474053D01*
X171355236Y-114463761D01*
X171411625Y-114253312D01*
X171413528Y-114242519D01*
X171427762Y-114079830D01*
X171428000Y-114074365D01*
X171428000Y-113892115D01*
X171423525Y-113876876D01*
X171422135Y-113875671D01*
X171414452Y-113874000D01*
X170392115Y-113874000D01*
X170376876Y-113878475D01*
X170375671Y-113879865D01*
X170374000Y-113887548D01*
X170374000Y-115287967D01*
X169866000Y-115287967D01*
X169866000Y-113347885D01*
X170374000Y-113347885D01*
X170378475Y-113363124D01*
X170379865Y-113364329D01*
X170387548Y-113366000D01*
X171409885Y-113366000D01*
X171425124Y-113361525D01*
X171426329Y-113360135D01*
X171428000Y-113352452D01*
X171428000Y-113165635D01*
X171427762Y-113160170D01*
X171413528Y-112997481D01*
X171411625Y-112986688D01*
X171355236Y-112776239D01*
X171351490Y-112765947D01*
X171259414Y-112568489D01*
X171253931Y-112558993D01*
X171128972Y-112380533D01*
X171121916Y-112372125D01*
X171085853Y-112336062D01*
X173778493Y-112336062D01*
X173787789Y-112348077D01*
X173838994Y-112383931D01*
X173848489Y-112389414D01*
X174045947Y-112481490D01*
X174056239Y-112485236D01*
X174266688Y-112541625D01*
X174277481Y-112543528D01*
X174494525Y-112562517D01*
X174505475Y-112562517D01*
X174722519Y-112543528D01*
X174733312Y-112541625D01*
X174943761Y-112485236D01*
X174954053Y-112481490D01*
X175151511Y-112389414D01*
X175161006Y-112383931D01*
X175213048Y-112347491D01*
X175221424Y-112337012D01*
X175214356Y-112323566D01*
X174512812Y-111622022D01*
X174498868Y-111614408D01*
X174497035Y-111614539D01*
X174490420Y-111618790D01*
X173784923Y-112324287D01*
X173778493Y-112336062D01*
X171085853Y-112336062D01*
X170967875Y-112218084D01*
X170959467Y-112211028D01*
X170781007Y-112086069D01*
X170771511Y-112080586D01*
X170574053Y-111988510D01*
X170563761Y-111984764D01*
X170391497Y-111938606D01*
X170377401Y-111938942D01*
X170374000Y-111946884D01*
X170374000Y-113347885D01*
X169866000Y-113347885D01*
X169866000Y-111952033D01*
X169862027Y-111938502D01*
X169853478Y-111937273D01*
X169676239Y-111984764D01*
X169665947Y-111988510D01*
X169468489Y-112080586D01*
X169458993Y-112086069D01*
X169280533Y-112211028D01*
X169272125Y-112218084D01*
X169118084Y-112372125D01*
X169111028Y-112380533D01*
X168986069Y-112558993D01*
X168980586Y-112568489D01*
X168964471Y-112603049D01*
X168917554Y-112656334D01*
X168849277Y-112675795D01*
X168781317Y-112655253D01*
X168736081Y-112603049D01*
X168719849Y-112568238D01*
X168719846Y-112568233D01*
X168717523Y-112563251D01*
X168644098Y-112458389D01*
X168589357Y-112380211D01*
X168589355Y-112380208D01*
X168586198Y-112375700D01*
X168424300Y-112213802D01*
X168419792Y-112210645D01*
X168419789Y-112210643D01*
X168259199Y-112098197D01*
X168236749Y-112082477D01*
X168231767Y-112080154D01*
X168231762Y-112080151D01*
X168034225Y-111988039D01*
X168034224Y-111988039D01*
X168029243Y-111985716D01*
X168023935Y-111984294D01*
X168023933Y-111984293D01*
X167813402Y-111927881D01*
X167813400Y-111927881D01*
X167808087Y-111926457D01*
X167580000Y-111906502D01*
X167351913Y-111926457D01*
X167346600Y-111927881D01*
X167346598Y-111927881D01*
X167136067Y-111984293D01*
X167136065Y-111984294D01*
X167130757Y-111985716D01*
X167125776Y-111988039D01*
X167125775Y-111988039D01*
X166928238Y-112080151D01*
X166928233Y-112080154D01*
X166923251Y-112082477D01*
X166900801Y-112098197D01*
X166740211Y-112210643D01*
X166740208Y-112210645D01*
X166735700Y-112213802D01*
X166573802Y-112375700D01*
X166570645Y-112380208D01*
X166570643Y-112380211D01*
X166515902Y-112458389D01*
X166442477Y-112563251D01*
X166440154Y-112568233D01*
X166440151Y-112568238D01*
X166424195Y-112602457D01*
X166377278Y-112655742D01*
X166309001Y-112675203D01*
X166241041Y-112654661D01*
X166195805Y-112602457D01*
X166179849Y-112568238D01*
X166179846Y-112568233D01*
X166177523Y-112563251D01*
X166104098Y-112458389D01*
X166049357Y-112380211D01*
X166049355Y-112380208D01*
X166046198Y-112375700D01*
X165884300Y-112213802D01*
X165879792Y-112210645D01*
X165879789Y-112210643D01*
X165719199Y-112098197D01*
X165696749Y-112082477D01*
X165691767Y-112080154D01*
X165691762Y-112080151D01*
X165494225Y-111988039D01*
X165494224Y-111988039D01*
X165489243Y-111985716D01*
X165483935Y-111984294D01*
X165483933Y-111984293D01*
X165273402Y-111927881D01*
X165273400Y-111927881D01*
X165268087Y-111926457D01*
X165040000Y-111906502D01*
X164811913Y-111926457D01*
X164806600Y-111927881D01*
X164806598Y-111927881D01*
X164596067Y-111984293D01*
X164596065Y-111984294D01*
X164590757Y-111985716D01*
X164585776Y-111988039D01*
X164585775Y-111988039D01*
X164388238Y-112080151D01*
X164388233Y-112080154D01*
X164383251Y-112082477D01*
X164360801Y-112098197D01*
X164200211Y-112210643D01*
X164200208Y-112210645D01*
X164195700Y-112213802D01*
X164033802Y-112375700D01*
X164030645Y-112380208D01*
X164030643Y-112380211D01*
X163975902Y-112458389D01*
X163902477Y-112563251D01*
X163900154Y-112568233D01*
X163900151Y-112568238D01*
X163884195Y-112602457D01*
X163837278Y-112655742D01*
X163769001Y-112675203D01*
X163701041Y-112654661D01*
X163655805Y-112602457D01*
X163639849Y-112568238D01*
X163639846Y-112568233D01*
X163637523Y-112563251D01*
X163564098Y-112458389D01*
X163509357Y-112380211D01*
X163509355Y-112380208D01*
X163506198Y-112375700D01*
X163344300Y-112213802D01*
X163339792Y-112210645D01*
X163339789Y-112210643D01*
X163179199Y-112098197D01*
X163156749Y-112082477D01*
X163151767Y-112080154D01*
X163151762Y-112080151D01*
X162954225Y-111988039D01*
X162954224Y-111988039D01*
X162949243Y-111985716D01*
X162943935Y-111984294D01*
X162943933Y-111984293D01*
X162733402Y-111927881D01*
X162733400Y-111927881D01*
X162728087Y-111926457D01*
X162500000Y-111906502D01*
X162271913Y-111926457D01*
X162266600Y-111927881D01*
X162266598Y-111927881D01*
X162056067Y-111984293D01*
X162056065Y-111984294D01*
X162050757Y-111985716D01*
X161933528Y-112040380D01*
X161863338Y-112051041D01*
X161798526Y-112022061D01*
X161791185Y-112015280D01*
X161031380Y-111255475D01*
X173187483Y-111255475D01*
X173206472Y-111472519D01*
X173208375Y-111483312D01*
X173264764Y-111693761D01*
X173268510Y-111704053D01*
X173360586Y-111901511D01*
X173366069Y-111911006D01*
X173402509Y-111963048D01*
X173412988Y-111971424D01*
X173426434Y-111964356D01*
X174127978Y-111262812D01*
X174134356Y-111251132D01*
X174864408Y-111251132D01*
X174864539Y-111252965D01*
X174868790Y-111259580D01*
X175574287Y-111965077D01*
X175586062Y-111971507D01*
X175598077Y-111962211D01*
X175633931Y-111911006D01*
X175639414Y-111901511D01*
X175731490Y-111704053D01*
X175735236Y-111693761D01*
X175791625Y-111483312D01*
X175793528Y-111472519D01*
X175812517Y-111255475D01*
X175812517Y-111244525D01*
X175793528Y-111027481D01*
X175791625Y-111016688D01*
X175735236Y-110806239D01*
X175731490Y-110795947D01*
X175639414Y-110598489D01*
X175633931Y-110588994D01*
X175597491Y-110536952D01*
X175587012Y-110528576D01*
X175573566Y-110535644D01*
X174872022Y-111237188D01*
X174864408Y-111251132D01*
X174134356Y-111251132D01*
X174135592Y-111248868D01*
X174135461Y-111247035D01*
X174131210Y-111240420D01*
X173425713Y-110534923D01*
X173413938Y-110528493D01*
X173401923Y-110537789D01*
X173366069Y-110588994D01*
X173360586Y-110598489D01*
X173268510Y-110795947D01*
X173264764Y-110806239D01*
X173208375Y-111016688D01*
X173206472Y-111027481D01*
X173187483Y-111244525D01*
X173187483Y-111255475D01*
X161031380Y-111255475D01*
X160633652Y-110857747D01*
X160626112Y-110849461D01*
X160622000Y-110842982D01*
X160572348Y-110796356D01*
X160569507Y-110793602D01*
X160549770Y-110773865D01*
X160546573Y-110771385D01*
X160537551Y-110763680D01*
X160511100Y-110738841D01*
X160505321Y-110733414D01*
X160498375Y-110729595D01*
X160498372Y-110729593D01*
X160487566Y-110723652D01*
X160471047Y-110712801D01*
X160470583Y-110712441D01*
X160455041Y-110700386D01*
X160447772Y-110697241D01*
X160447768Y-110697238D01*
X160414463Y-110682826D01*
X160403813Y-110677609D01*
X160365060Y-110656305D01*
X160345437Y-110651267D01*
X160326734Y-110644863D01*
X160315420Y-110639967D01*
X160315419Y-110639967D01*
X160308145Y-110636819D01*
X160300322Y-110635580D01*
X160300312Y-110635577D01*
X160264476Y-110629901D01*
X160252856Y-110627495D01*
X160217711Y-110618472D01*
X160217710Y-110618472D01*
X160210030Y-110616500D01*
X160189776Y-110616500D01*
X160170065Y-110614949D01*
X160158903Y-110613181D01*
X160150057Y-110611780D01*
X160142165Y-110612526D01*
X160106039Y-110615941D01*
X160094181Y-110616500D01*
X158719394Y-110616500D01*
X158651273Y-110596498D01*
X158616181Y-110562771D01*
X158509357Y-110410211D01*
X158509355Y-110410208D01*
X158506198Y-110405700D01*
X158344300Y-110243802D01*
X158339792Y-110240645D01*
X158339789Y-110240643D01*
X158213920Y-110152509D01*
X158156749Y-110112477D01*
X158151765Y-110110153D01*
X158149472Y-110108829D01*
X158100479Y-110057447D01*
X158087043Y-109987733D01*
X158113429Y-109921822D01*
X158149472Y-109890591D01*
X158161002Y-109883934D01*
X158213048Y-109847491D01*
X158221424Y-109837012D01*
X158214356Y-109823566D01*
X157512812Y-109122022D01*
X157498868Y-109114408D01*
X157497035Y-109114539D01*
X157490420Y-109118790D01*
X156784923Y-109824287D01*
X156778493Y-109836062D01*
X156787789Y-109848077D01*
X156838998Y-109883934D01*
X156850528Y-109890591D01*
X156899521Y-109941973D01*
X156912958Y-110011687D01*
X156886571Y-110077598D01*
X156850528Y-110108829D01*
X156848235Y-110110153D01*
X156843251Y-110112477D01*
X156786080Y-110152509D01*
X156660211Y-110240643D01*
X156660208Y-110240645D01*
X156655700Y-110243802D01*
X156493802Y-110405700D01*
X156490645Y-110410208D01*
X156490643Y-110410211D01*
X156481973Y-110422593D01*
X156362477Y-110593251D01*
X156360154Y-110598233D01*
X156360151Y-110598238D01*
X156279409Y-110771392D01*
X156265716Y-110800757D01*
X156264294Y-110806065D01*
X156264293Y-110806067D01*
X156209707Y-111009784D01*
X156206457Y-111021913D01*
X156186502Y-111250000D01*
X156206457Y-111478087D01*
X156207881Y-111483400D01*
X156207881Y-111483402D01*
X156245025Y-111622022D01*
X156265716Y-111699243D01*
X156268039Y-111704224D01*
X156268039Y-111704225D01*
X156360151Y-111901762D01*
X156360154Y-111901767D01*
X156362477Y-111906749D01*
X156419397Y-111988039D01*
X156488039Y-112086069D01*
X156493802Y-112094300D01*
X156655700Y-112256198D01*
X156660208Y-112259355D01*
X156660211Y-112259357D01*
X156738389Y-112314098D01*
X156843251Y-112387523D01*
X156848233Y-112389846D01*
X156848238Y-112389849D01*
X157044765Y-112481490D01*
X157050757Y-112484284D01*
X157056065Y-112485706D01*
X157056067Y-112485707D01*
X157266598Y-112542119D01*
X157266600Y-112542119D01*
X157271913Y-112543543D01*
X157500000Y-112563498D01*
X157728087Y-112543543D01*
X157733400Y-112542119D01*
X157733402Y-112542119D01*
X157943933Y-112485707D01*
X157943935Y-112485706D01*
X157949243Y-112484284D01*
X157955235Y-112481490D01*
X158151762Y-112389849D01*
X158151767Y-112389846D01*
X158156749Y-112387523D01*
X158261611Y-112314098D01*
X158339789Y-112259357D01*
X158339792Y-112259355D01*
X158344300Y-112256198D01*
X158506198Y-112094300D01*
X158509357Y-112089789D01*
X158616181Y-111937229D01*
X158671638Y-111892901D01*
X158719394Y-111883500D01*
X159815406Y-111883500D01*
X159883527Y-111903502D01*
X159904501Y-111920405D01*
X161154595Y-113170499D01*
X161188621Y-113232811D01*
X161191500Y-113259594D01*
X161191500Y-114077127D01*
X161191738Y-114079844D01*
X161191738Y-114079851D01*
X161197746Y-114148520D01*
X161206457Y-114248087D01*
X161207881Y-114253400D01*
X161207881Y-114253402D01*
X161258690Y-114443020D01*
X161265716Y-114469243D01*
X161268039Y-114474224D01*
X161268039Y-114474225D01*
X161360151Y-114671762D01*
X161360154Y-114671767D01*
X161362477Y-114676749D01*
X161370178Y-114687747D01*
X161485129Y-114851913D01*
X161493802Y-114864300D01*
X161655700Y-115026198D01*
X161660208Y-115029355D01*
X161660211Y-115029357D01*
X161665120Y-115032794D01*
X161843251Y-115157523D01*
X161848233Y-115159846D01*
X161848238Y-115159849D01*
X161987356Y-115224720D01*
X162050757Y-115254284D01*
X162056064Y-115255706D01*
X162056075Y-115255710D01*
X162202000Y-115294811D01*
X162262622Y-115331762D01*
X162293644Y-115395623D01*
X162285215Y-115466118D01*
X162258483Y-115505612D01*
X154607747Y-123156348D01*
X154599461Y-123163888D01*
X154592982Y-123168000D01*
X154587557Y-123173777D01*
X154546357Y-123217651D01*
X154543602Y-123220493D01*
X154523865Y-123240230D01*
X154521385Y-123243427D01*
X154513682Y-123252447D01*
X154483414Y-123284679D01*
X154479595Y-123291625D01*
X154479593Y-123291628D01*
X154473652Y-123302434D01*
X154462801Y-123318953D01*
X154450386Y-123334959D01*
X154447241Y-123342228D01*
X154447238Y-123342232D01*
X154432826Y-123375537D01*
X154427609Y-123386187D01*
X154406305Y-123424940D01*
X154404334Y-123432615D01*
X154404334Y-123432616D01*
X154401267Y-123444562D01*
X154394863Y-123463266D01*
X154392532Y-123468654D01*
X154386819Y-123481855D01*
X154385580Y-123489678D01*
X154385577Y-123489688D01*
X154379901Y-123525524D01*
X154377495Y-123537144D01*
X154370576Y-123564095D01*
X154366500Y-123579970D01*
X154366500Y-123600224D01*
X154364949Y-123619934D01*
X154361780Y-123639943D01*
X154362526Y-123647835D01*
X154365941Y-123683961D01*
X154366500Y-123695819D01*
X154366500Y-123700606D01*
X154346498Y-123768727D01*
X154312771Y-123803819D01*
X154160211Y-123910643D01*
X154160208Y-123910645D01*
X154155700Y-123913802D01*
X153993802Y-124075700D01*
X153990645Y-124080208D01*
X153990643Y-124080211D01*
X153980870Y-124094169D01*
X153862477Y-124263251D01*
X153860154Y-124268233D01*
X153860151Y-124268238D01*
X153773412Y-124454253D01*
X153765716Y-124470757D01*
X153764294Y-124476065D01*
X153764293Y-124476067D01*
X153722478Y-124632121D01*
X153706457Y-124691913D01*
X153686502Y-124920000D01*
X153706457Y-125148087D01*
X153723460Y-125211541D01*
X153721770Y-125282518D01*
X153690848Y-125333247D01*
X148428302Y-130595793D01*
X148365990Y-130629819D01*
X148339207Y-130632698D01*
X144482870Y-130632698D01*
X144471687Y-130632171D01*
X144464194Y-130630496D01*
X144456268Y-130630745D01*
X144456267Y-130630745D01*
X144396104Y-130632636D01*
X144392146Y-130632698D01*
X144364246Y-130632698D01*
X144360256Y-130633202D01*
X144348422Y-130634134D01*
X144304213Y-130635524D01*
X144296599Y-130637736D01*
X144296594Y-130637737D01*
X144284761Y-130641175D01*
X144265398Y-130645186D01*
X144245305Y-130647724D01*
X144237938Y-130650641D01*
X144237933Y-130650642D01*
X144204194Y-130664000D01*
X144192967Y-130667844D01*
X144150509Y-130680180D01*
X144143683Y-130684217D01*
X144133074Y-130690491D01*
X144115326Y-130699186D01*
X144096485Y-130706646D01*
X144090069Y-130711308D01*
X144090068Y-130711308D01*
X144060715Y-130732634D01*
X144050795Y-130739150D01*
X144019567Y-130757618D01*
X144019564Y-130757620D01*
X144012740Y-130761656D01*
X143998419Y-130775977D01*
X143983386Y-130788817D01*
X143966995Y-130800726D01*
X143961944Y-130806832D01*
X143938804Y-130834803D01*
X143930814Y-130843582D01*
X143848595Y-130925801D01*
X143786283Y-130959827D01*
X143715468Y-130954762D01*
X143658632Y-130912215D01*
X143633821Y-130845695D01*
X143633500Y-130836706D01*
X143633500Y-126139394D01*
X143653502Y-126071273D01*
X143687229Y-126036181D01*
X143839789Y-125929357D01*
X143839792Y-125929355D01*
X143844300Y-125926198D01*
X144006198Y-125764300D01*
X144055167Y-125694366D01*
X144064098Y-125681611D01*
X144137523Y-125576749D01*
X144139846Y-125571767D01*
X144139849Y-125571762D01*
X144231961Y-125374225D01*
X144231961Y-125374224D01*
X144234284Y-125369243D01*
X144255286Y-125290865D01*
X144292119Y-125153402D01*
X144292120Y-125153398D01*
X144293543Y-125148087D01*
X144313498Y-124920000D01*
X145686502Y-124920000D01*
X145706457Y-125148087D01*
X145707880Y-125153398D01*
X145707881Y-125153402D01*
X145744715Y-125290865D01*
X145765716Y-125369243D01*
X145768039Y-125374224D01*
X145768039Y-125374225D01*
X145860151Y-125571762D01*
X145860154Y-125571767D01*
X145862477Y-125576749D01*
X145935902Y-125681611D01*
X145944834Y-125694366D01*
X145993802Y-125764300D01*
X146155700Y-125926198D01*
X146160208Y-125929355D01*
X146160211Y-125929357D01*
X146207103Y-125962191D01*
X146343251Y-126057523D01*
X146348233Y-126059846D01*
X146348238Y-126059849D01*
X146518825Y-126139394D01*
X146550757Y-126154284D01*
X146556065Y-126155706D01*
X146556067Y-126155707D01*
X146766598Y-126212119D01*
X146766600Y-126212119D01*
X146771913Y-126213543D01*
X147000000Y-126233498D01*
X147228087Y-126213543D01*
X147233400Y-126212119D01*
X147233402Y-126212119D01*
X147443933Y-126155707D01*
X147443935Y-126155706D01*
X147449243Y-126154284D01*
X147481175Y-126139394D01*
X147651762Y-126059849D01*
X147651767Y-126059846D01*
X147656749Y-126057523D01*
X147792897Y-125962191D01*
X147839789Y-125929357D01*
X147839792Y-125929355D01*
X147844300Y-125926198D01*
X148006198Y-125764300D01*
X148055167Y-125694366D01*
X148064098Y-125681611D01*
X148137523Y-125576749D01*
X148139846Y-125571767D01*
X148139849Y-125571762D01*
X148231961Y-125374225D01*
X148231961Y-125374224D01*
X148234284Y-125369243D01*
X148255286Y-125290865D01*
X148292119Y-125153402D01*
X148292120Y-125153398D01*
X148293543Y-125148087D01*
X148313498Y-124920000D01*
X149686502Y-124920000D01*
X149706457Y-125148087D01*
X149707880Y-125153398D01*
X149707881Y-125153402D01*
X149744715Y-125290865D01*
X149765716Y-125369243D01*
X149768039Y-125374224D01*
X149768039Y-125374225D01*
X149860151Y-125571762D01*
X149860154Y-125571767D01*
X149862477Y-125576749D01*
X149935902Y-125681611D01*
X149944834Y-125694366D01*
X149993802Y-125764300D01*
X150155700Y-125926198D01*
X150160208Y-125929355D01*
X150160211Y-125929357D01*
X150207103Y-125962191D01*
X150343251Y-126057523D01*
X150348233Y-126059846D01*
X150348238Y-126059849D01*
X150518825Y-126139394D01*
X150550757Y-126154284D01*
X150556065Y-126155706D01*
X150556067Y-126155707D01*
X150766598Y-126212119D01*
X150766600Y-126212119D01*
X150771913Y-126213543D01*
X151000000Y-126233498D01*
X151228087Y-126213543D01*
X151233400Y-126212119D01*
X151233402Y-126212119D01*
X151443933Y-126155707D01*
X151443935Y-126155706D01*
X151449243Y-126154284D01*
X151481175Y-126139394D01*
X151651762Y-126059849D01*
X151651767Y-126059846D01*
X151656749Y-126057523D01*
X151792897Y-125962191D01*
X151839789Y-125929357D01*
X151839792Y-125929355D01*
X151844300Y-125926198D01*
X152006198Y-125764300D01*
X152055167Y-125694366D01*
X152064098Y-125681611D01*
X152137523Y-125576749D01*
X152139846Y-125571767D01*
X152139849Y-125571762D01*
X152231961Y-125374225D01*
X152231961Y-125374224D01*
X152234284Y-125369243D01*
X152255286Y-125290865D01*
X152292119Y-125153402D01*
X152292120Y-125153398D01*
X152293543Y-125148087D01*
X152313498Y-124920000D01*
X152293543Y-124691913D01*
X152277522Y-124632121D01*
X152235707Y-124476067D01*
X152235706Y-124476065D01*
X152234284Y-124470757D01*
X152226588Y-124454253D01*
X152139849Y-124268238D01*
X152139846Y-124268233D01*
X152137523Y-124263251D01*
X152019130Y-124094169D01*
X152009357Y-124080211D01*
X152009355Y-124080208D01*
X152006198Y-124075700D01*
X151844300Y-123913802D01*
X151839792Y-123910645D01*
X151839789Y-123910643D01*
X151687228Y-123803819D01*
X151656749Y-123782477D01*
X151651767Y-123780154D01*
X151651762Y-123780151D01*
X151454225Y-123688039D01*
X151454224Y-123688039D01*
X151449243Y-123685716D01*
X151443935Y-123684294D01*
X151443933Y-123684293D01*
X151233402Y-123627881D01*
X151233400Y-123627881D01*
X151228087Y-123626457D01*
X151000000Y-123606502D01*
X150771913Y-123626457D01*
X150766600Y-123627881D01*
X150766598Y-123627881D01*
X150556067Y-123684293D01*
X150556065Y-123684294D01*
X150550757Y-123685716D01*
X150545776Y-123688039D01*
X150545775Y-123688039D01*
X150348238Y-123780151D01*
X150348233Y-123780154D01*
X150343251Y-123782477D01*
X150312772Y-123803819D01*
X150160211Y-123910643D01*
X150160208Y-123910645D01*
X150155700Y-123913802D01*
X149993802Y-124075700D01*
X149990645Y-124080208D01*
X149990643Y-124080211D01*
X149980870Y-124094169D01*
X149862477Y-124263251D01*
X149860154Y-124268233D01*
X149860151Y-124268238D01*
X149773412Y-124454253D01*
X149765716Y-124470757D01*
X149764294Y-124476065D01*
X149764293Y-124476067D01*
X149722478Y-124632121D01*
X149706457Y-124691913D01*
X149686502Y-124920000D01*
X148313498Y-124920000D01*
X148293543Y-124691913D01*
X148277522Y-124632121D01*
X148235707Y-124476067D01*
X148235706Y-124476065D01*
X148234284Y-124470757D01*
X148226588Y-124454253D01*
X148139849Y-124268238D01*
X148139846Y-124268233D01*
X148137523Y-124263251D01*
X148019130Y-124094169D01*
X148009357Y-124080211D01*
X148009355Y-124080208D01*
X148006198Y-124075700D01*
X147844300Y-123913802D01*
X147839792Y-123910645D01*
X147839789Y-123910643D01*
X147687228Y-123803819D01*
X147656749Y-123782477D01*
X147651767Y-123780154D01*
X147651762Y-123780151D01*
X147454225Y-123688039D01*
X147454224Y-123688039D01*
X147449243Y-123685716D01*
X147443935Y-123684294D01*
X147443933Y-123684293D01*
X147233402Y-123627881D01*
X147233400Y-123627881D01*
X147228087Y-123626457D01*
X147000000Y-123606502D01*
X146771913Y-123626457D01*
X146766600Y-123627881D01*
X146766598Y-123627881D01*
X146556067Y-123684293D01*
X146556065Y-123684294D01*
X146550757Y-123685716D01*
X146545776Y-123688039D01*
X146545775Y-123688039D01*
X146348238Y-123780151D01*
X146348233Y-123780154D01*
X146343251Y-123782477D01*
X146312772Y-123803819D01*
X146160211Y-123910643D01*
X146160208Y-123910645D01*
X146155700Y-123913802D01*
X145993802Y-124075700D01*
X145990645Y-124080208D01*
X145990643Y-124080211D01*
X145980870Y-124094169D01*
X145862477Y-124263251D01*
X145860154Y-124268233D01*
X145860151Y-124268238D01*
X145773412Y-124454253D01*
X145765716Y-124470757D01*
X145764294Y-124476065D01*
X145764293Y-124476067D01*
X145722478Y-124632121D01*
X145706457Y-124691913D01*
X145686502Y-124920000D01*
X144313498Y-124920000D01*
X144293543Y-124691913D01*
X144277522Y-124632121D01*
X144235707Y-124476067D01*
X144235706Y-124476065D01*
X144234284Y-124470757D01*
X144226588Y-124454253D01*
X144139849Y-124268238D01*
X144139846Y-124268233D01*
X144137523Y-124263251D01*
X144019130Y-124094169D01*
X144009357Y-124080211D01*
X144009355Y-124080208D01*
X144006198Y-124075700D01*
X143844300Y-123913802D01*
X143839792Y-123910645D01*
X143839789Y-123910643D01*
X143687229Y-123803819D01*
X143642901Y-123748362D01*
X143633500Y-123700606D01*
X143633500Y-121314594D01*
X143653502Y-121246473D01*
X143670405Y-121225499D01*
X155992887Y-108903017D01*
X156055199Y-108868991D01*
X156126014Y-108874056D01*
X156182850Y-108916603D01*
X156206067Y-108970230D01*
X156208373Y-108983304D01*
X156264764Y-109193761D01*
X156268510Y-109204053D01*
X156360586Y-109401511D01*
X156366069Y-109411006D01*
X156402509Y-109463048D01*
X156412988Y-109471424D01*
X156426434Y-109464356D01*
X157139658Y-108751132D01*
X157864408Y-108751132D01*
X157864539Y-108752965D01*
X157868790Y-108759580D01*
X158574287Y-109465077D01*
X158586062Y-109471507D01*
X158598077Y-109462211D01*
X158633931Y-109411006D01*
X158639414Y-109401511D01*
X158731490Y-109204053D01*
X158735236Y-109193761D01*
X158791625Y-108983312D01*
X158793528Y-108972519D01*
X158812517Y-108755475D01*
X158812517Y-108744525D01*
X158793528Y-108527481D01*
X158791625Y-108516688D01*
X158735236Y-108306239D01*
X158731490Y-108295947D01*
X158639414Y-108098489D01*
X158633931Y-108088994D01*
X158597491Y-108036952D01*
X158587012Y-108028576D01*
X158573566Y-108035644D01*
X157872022Y-108737188D01*
X157864408Y-108751132D01*
X157139658Y-108751132D01*
X158215077Y-107675713D01*
X158221507Y-107663938D01*
X158212211Y-107651923D01*
X158161006Y-107616069D01*
X158151511Y-107610586D01*
X157954053Y-107518510D01*
X157943761Y-107514764D01*
X157733304Y-107458373D01*
X157720230Y-107456067D01*
X157656618Y-107424539D01*
X157620150Y-107363625D01*
X157622404Y-107292664D01*
X157653017Y-107242887D01*
X158225499Y-106670405D01*
X158287811Y-106636379D01*
X158314594Y-106633500D01*
X161065500Y-106633500D01*
X161133621Y-106653502D01*
X161180114Y-106707158D01*
X161191500Y-106759500D01*
X161191500Y-107248134D01*
X161198255Y-107310316D01*
X161249385Y-107446705D01*
X161336739Y-107563261D01*
X161453295Y-107650615D01*
X161589684Y-107701745D01*
X161651866Y-107708500D01*
X163348134Y-107708500D01*
X163410316Y-107701745D01*
X163546705Y-107650615D01*
X163663261Y-107563261D01*
X163750615Y-107446705D01*
X163801745Y-107310316D01*
X163802917Y-107299526D01*
X163803803Y-107297394D01*
X163804425Y-107294778D01*
X163804848Y-107294879D01*
X163830155Y-107233965D01*
X163888517Y-107193537D01*
X163959471Y-107191078D01*
X164020490Y-107227371D01*
X164027489Y-107236031D01*
X164030643Y-107239789D01*
X164033802Y-107244300D01*
X164195700Y-107406198D01*
X164200208Y-107409355D01*
X164200211Y-107409357D01*
X164241542Y-107438297D01*
X164383251Y-107537523D01*
X164388233Y-107539846D01*
X164388238Y-107539849D01*
X164584765Y-107631490D01*
X164590757Y-107634284D01*
X164596065Y-107635706D01*
X164596067Y-107635707D01*
X164806598Y-107692119D01*
X164806600Y-107692119D01*
X164811913Y-107693543D01*
X165040000Y-107713498D01*
X165268087Y-107693543D01*
X165273400Y-107692119D01*
X165273402Y-107692119D01*
X165483933Y-107635707D01*
X165483935Y-107635706D01*
X165489243Y-107634284D01*
X165495235Y-107631490D01*
X165691762Y-107539849D01*
X165691767Y-107539846D01*
X165696749Y-107537523D01*
X165838458Y-107438297D01*
X165879789Y-107409357D01*
X165879792Y-107409355D01*
X165884300Y-107406198D01*
X166046198Y-107244300D01*
X166177523Y-107056749D01*
X166179846Y-107051767D01*
X166179849Y-107051762D01*
X166196081Y-107016951D01*
X166242998Y-106963666D01*
X166311275Y-106944205D01*
X166379235Y-106964747D01*
X166424471Y-107016951D01*
X166440586Y-107051511D01*
X166446069Y-107061007D01*
X166571028Y-107239467D01*
X166578084Y-107247875D01*
X166732125Y-107401916D01*
X166740533Y-107408972D01*
X166918993Y-107533931D01*
X166928489Y-107539414D01*
X167125947Y-107631490D01*
X167136239Y-107635236D01*
X167308503Y-107681394D01*
X167322599Y-107681058D01*
X167326000Y-107673116D01*
X167326000Y-107667967D01*
X167834000Y-107667967D01*
X167837973Y-107681498D01*
X167846522Y-107682727D01*
X168023761Y-107635236D01*
X168034053Y-107631490D01*
X168231511Y-107539414D01*
X168241007Y-107533931D01*
X168419467Y-107408972D01*
X168427875Y-107401916D01*
X168581916Y-107247875D01*
X168588972Y-107239467D01*
X168713931Y-107061007D01*
X168719414Y-107051511D01*
X168735529Y-107016951D01*
X168782446Y-106963666D01*
X168850723Y-106944205D01*
X168918683Y-106964747D01*
X168963919Y-107016951D01*
X168980151Y-107051762D01*
X168980154Y-107051767D01*
X168982477Y-107056749D01*
X169113802Y-107244300D01*
X169275700Y-107406198D01*
X169280208Y-107409355D01*
X169280211Y-107409357D01*
X169321542Y-107438297D01*
X169463251Y-107537523D01*
X169468233Y-107539846D01*
X169468238Y-107539849D01*
X169664765Y-107631490D01*
X169670757Y-107634284D01*
X169676065Y-107635706D01*
X169676067Y-107635707D01*
X169886598Y-107692119D01*
X169886600Y-107692119D01*
X169891913Y-107693543D01*
X170120000Y-107713498D01*
X170348087Y-107693543D01*
X170353400Y-107692119D01*
X170353402Y-107692119D01*
X170528396Y-107645229D01*
X170569243Y-107634284D01*
X170574228Y-107631959D01*
X170574232Y-107631958D01*
X170686472Y-107579620D01*
X170756663Y-107568959D01*
X170821476Y-107597939D01*
X170828816Y-107604720D01*
X172366343Y-109142247D01*
X172373887Y-109150537D01*
X172378000Y-109157018D01*
X172383777Y-109162443D01*
X172427667Y-109203658D01*
X172430509Y-109206413D01*
X172450230Y-109226134D01*
X172453425Y-109228612D01*
X172462447Y-109236318D01*
X172494679Y-109266586D01*
X172501628Y-109270406D01*
X172512432Y-109276346D01*
X172528956Y-109287199D01*
X172544959Y-109299613D01*
X172585543Y-109317176D01*
X172596173Y-109322383D01*
X172634940Y-109343695D01*
X172642617Y-109345666D01*
X172642622Y-109345668D01*
X172654558Y-109348732D01*
X172673266Y-109355137D01*
X172691855Y-109363181D01*
X172699683Y-109364421D01*
X172699690Y-109364423D01*
X172735524Y-109370099D01*
X172747144Y-109372505D01*
X172782289Y-109381528D01*
X172789970Y-109383500D01*
X172810224Y-109383500D01*
X172829934Y-109385051D01*
X172849943Y-109388220D01*
X172857835Y-109387474D01*
X172893961Y-109384059D01*
X172905819Y-109383500D01*
X173280606Y-109383500D01*
X173348727Y-109403502D01*
X173383819Y-109437229D01*
X173490643Y-109589789D01*
X173493802Y-109594300D01*
X173655700Y-109756198D01*
X173660208Y-109759355D01*
X173660211Y-109759357D01*
X173751911Y-109823566D01*
X173843251Y-109887523D01*
X173848235Y-109889847D01*
X173850528Y-109891171D01*
X173899521Y-109942553D01*
X173912957Y-110012267D01*
X173886571Y-110078178D01*
X173850528Y-110109409D01*
X173838998Y-110116066D01*
X173786952Y-110152509D01*
X173778576Y-110162988D01*
X173785644Y-110176434D01*
X174487188Y-110877978D01*
X174501132Y-110885592D01*
X174502965Y-110885461D01*
X174509580Y-110881210D01*
X175215077Y-110175713D01*
X175221507Y-110163938D01*
X175212211Y-110151923D01*
X175161002Y-110116066D01*
X175149472Y-110109409D01*
X175100479Y-110058027D01*
X175087042Y-109988313D01*
X175113429Y-109922402D01*
X175149472Y-109891171D01*
X175151765Y-109889847D01*
X175156749Y-109887523D01*
X175248089Y-109823566D01*
X175339789Y-109759357D01*
X175339792Y-109759355D01*
X175344300Y-109756198D01*
X175506198Y-109594300D01*
X175637523Y-109406749D01*
X175639846Y-109401767D01*
X175639849Y-109401762D01*
X175731961Y-109204225D01*
X175731961Y-109204224D01*
X175734284Y-109199243D01*
X175751810Y-109133838D01*
X175792119Y-108983402D01*
X175792119Y-108983400D01*
X175793543Y-108978087D01*
X175813498Y-108750000D01*
X175793543Y-108521913D01*
X175734284Y-108300757D01*
X175731961Y-108295775D01*
X175639849Y-108098238D01*
X175639846Y-108098233D01*
X175637523Y-108093251D01*
X175564098Y-107988389D01*
X175509357Y-107910211D01*
X175509355Y-107910208D01*
X175506198Y-107905700D01*
X175344300Y-107743802D01*
X175339792Y-107740645D01*
X175339789Y-107740643D01*
X175255172Y-107681394D01*
X175156749Y-107612477D01*
X175151767Y-107610154D01*
X175151762Y-107610151D01*
X174954225Y-107518039D01*
X174954224Y-107518039D01*
X174949243Y-107515716D01*
X174943935Y-107514294D01*
X174943933Y-107514293D01*
X174733402Y-107457881D01*
X174733400Y-107457881D01*
X174728087Y-107456457D01*
X174500000Y-107436502D01*
X174271913Y-107456457D01*
X174266600Y-107457881D01*
X174266598Y-107457881D01*
X174056067Y-107514293D01*
X174056065Y-107514294D01*
X174050757Y-107515716D01*
X174045776Y-107518039D01*
X174045775Y-107518039D01*
X173848238Y-107610151D01*
X173848233Y-107610154D01*
X173843251Y-107612477D01*
X173744828Y-107681394D01*
X173660211Y-107740643D01*
X173660208Y-107740645D01*
X173655700Y-107743802D01*
X173493802Y-107905700D01*
X173490645Y-107910208D01*
X173490643Y-107910211D01*
X173383819Y-108062771D01*
X173328362Y-108107099D01*
X173280606Y-108116500D01*
X173184595Y-108116500D01*
X173116474Y-108096498D01*
X173095500Y-108079595D01*
X171465405Y-106449500D01*
X171431379Y-106387188D01*
X171428500Y-106360405D01*
X171428500Y-105542873D01*
X171413543Y-105371913D01*
X171406733Y-105346498D01*
X171355707Y-105156067D01*
X171355706Y-105156065D01*
X171354284Y-105150757D01*
X171276081Y-104983049D01*
X171259849Y-104948238D01*
X171259846Y-104948233D01*
X171257523Y-104943251D01*
X171126198Y-104755700D01*
X170964300Y-104593802D01*
X170959792Y-104590645D01*
X170959789Y-104590643D01*
X170848877Y-104512982D01*
X170776749Y-104462477D01*
X170771767Y-104460154D01*
X170771762Y-104460151D01*
X170574225Y-104368039D01*
X170574224Y-104368039D01*
X170569243Y-104365716D01*
X170563935Y-104364294D01*
X170563933Y-104364293D01*
X170353402Y-104307881D01*
X170353400Y-104307881D01*
X170348087Y-104306457D01*
X170120000Y-104286502D01*
X169891913Y-104306457D01*
X169886600Y-104307881D01*
X169886598Y-104307881D01*
X169676067Y-104364293D01*
X169676065Y-104364294D01*
X169670757Y-104365716D01*
X169665776Y-104368039D01*
X169665775Y-104368039D01*
X169468238Y-104460151D01*
X169468233Y-104460154D01*
X169463251Y-104462477D01*
X169391123Y-104512982D01*
X169280211Y-104590643D01*
X169280208Y-104590645D01*
X169275700Y-104593802D01*
X169113802Y-104755700D01*
X168982477Y-104943251D01*
X168980154Y-104948233D01*
X168980151Y-104948238D01*
X168963919Y-104983049D01*
X168917002Y-105036334D01*
X168848725Y-105055795D01*
X168780765Y-105035253D01*
X168735529Y-104983049D01*
X168719414Y-104948489D01*
X168713931Y-104938993D01*
X168588972Y-104760533D01*
X168581916Y-104752125D01*
X168427875Y-104598084D01*
X168419467Y-104591028D01*
X168241007Y-104466069D01*
X168231511Y-104460586D01*
X168034053Y-104368510D01*
X168023761Y-104364764D01*
X167851497Y-104318606D01*
X167837401Y-104318942D01*
X167834000Y-104326884D01*
X167834000Y-107667967D01*
X167326000Y-107667967D01*
X167326000Y-104332033D01*
X167322027Y-104318502D01*
X167313478Y-104317273D01*
X167136239Y-104364764D01*
X167125947Y-104368510D01*
X166928489Y-104460586D01*
X166918993Y-104466069D01*
X166740533Y-104591028D01*
X166732125Y-104598084D01*
X166578084Y-104752125D01*
X166571028Y-104760533D01*
X166446069Y-104938993D01*
X166440586Y-104948489D01*
X166424471Y-104983049D01*
X166377554Y-105036334D01*
X166309277Y-105055795D01*
X166241317Y-105035253D01*
X166196081Y-104983049D01*
X166179849Y-104948238D01*
X166179846Y-104948233D01*
X166177523Y-104943251D01*
X166046198Y-104755700D01*
X165884300Y-104593802D01*
X165879792Y-104590645D01*
X165879789Y-104590643D01*
X165768877Y-104512982D01*
X165696749Y-104462477D01*
X165691767Y-104460154D01*
X165691762Y-104460151D01*
X165494225Y-104368039D01*
X165494224Y-104368039D01*
X165489243Y-104365716D01*
X165483935Y-104364294D01*
X165483933Y-104364293D01*
X165273402Y-104307881D01*
X165273400Y-104307881D01*
X165268087Y-104306457D01*
X165040000Y-104286502D01*
X164811913Y-104306457D01*
X164806600Y-104307881D01*
X164806598Y-104307881D01*
X164596067Y-104364293D01*
X164596065Y-104364294D01*
X164590757Y-104365716D01*
X164585776Y-104368039D01*
X164585775Y-104368039D01*
X164580742Y-104370386D01*
X164473528Y-104420380D01*
X164403338Y-104431041D01*
X164338526Y-104402061D01*
X164331185Y-104395280D01*
X163543652Y-103607747D01*
X163536112Y-103599461D01*
X163532000Y-103592982D01*
X163482348Y-103546356D01*
X163479507Y-103543602D01*
X163459770Y-103523865D01*
X163456573Y-103521385D01*
X163447551Y-103513680D01*
X163431958Y-103499037D01*
X163415321Y-103483414D01*
X163408375Y-103479595D01*
X163408372Y-103479593D01*
X163397566Y-103473652D01*
X163381047Y-103462801D01*
X163380583Y-103462441D01*
X163365041Y-103450386D01*
X163357772Y-103447241D01*
X163357768Y-103447238D01*
X163324463Y-103432826D01*
X163313813Y-103427609D01*
X163275060Y-103406305D01*
X163255437Y-103401267D01*
X163236734Y-103394863D01*
X163225420Y-103389967D01*
X163225419Y-103389967D01*
X163218145Y-103386819D01*
X163210320Y-103385579D01*
X163210311Y-103385577D01*
X163200026Y-103383948D01*
X163135873Y-103353535D01*
X163098347Y-103293267D01*
X163099362Y-103222277D01*
X163138595Y-103163106D01*
X163203591Y-103134539D01*
X163219738Y-103133500D01*
X189277462Y-103133500D01*
X189345583Y-103153502D01*
X189392076Y-103207158D01*
X189402180Y-103277432D01*
X189372686Y-103342012D01*
X189312960Y-103380396D01*
X189304626Y-103382537D01*
X189209223Y-103403600D01*
X189209219Y-103403601D01*
X189204763Y-103404585D01*
X189092182Y-103447238D01*
X188955460Y-103499037D01*
X188955457Y-103499038D01*
X188951190Y-103500655D01*
X188798669Y-103585373D01*
X188724704Y-103626457D01*
X188714141Y-103632324D01*
X188644181Y-103685716D01*
X188520442Y-103780151D01*
X188498583Y-103796833D01*
X188309030Y-103990736D01*
X188306343Y-103994428D01*
X188306341Y-103994430D01*
X188243903Y-104080211D01*
X188149453Y-104209972D01*
X188023196Y-104449947D01*
X188021677Y-104454248D01*
X188021675Y-104454253D01*
X188007931Y-104493173D01*
X187932904Y-104705634D01*
X187913585Y-104803653D01*
X187885038Y-104948489D01*
X187880467Y-104971678D01*
X187880240Y-104976232D01*
X187880240Y-104976234D01*
X187867977Y-105222568D01*
X187866984Y-105242505D01*
X187892738Y-105512441D01*
X187893822Y-105516870D01*
X187893823Y-105516877D01*
X187908474Y-105576749D01*
X187957190Y-105775832D01*
X187958905Y-105780067D01*
X187958906Y-105780069D01*
X188029396Y-105954101D01*
X188058988Y-106027160D01*
X188196001Y-106261161D01*
X188230302Y-106304052D01*
X188360102Y-106466358D01*
X188365359Y-106472932D01*
X188368700Y-106476053D01*
X188512693Y-106610564D01*
X188563512Y-106658037D01*
X188786312Y-106812598D01*
X188790388Y-106814626D01*
X188790390Y-106814627D01*
X189025003Y-106931346D01*
X189025006Y-106931347D01*
X189029090Y-106933379D01*
X189286760Y-107017847D01*
X189291251Y-107018627D01*
X189291252Y-107018627D01*
X189550144Y-107063579D01*
X189550152Y-107063580D01*
X189553925Y-107064235D01*
X189557762Y-107064426D01*
X189638029Y-107068422D01*
X189638037Y-107068422D01*
X189639600Y-107068500D01*
X190328884Y-107068500D01*
X190331152Y-107068335D01*
X190331164Y-107068335D01*
X190462978Y-107058771D01*
X190530451Y-107053875D01*
X190534906Y-107052891D01*
X190534909Y-107052891D01*
X190790777Y-106996400D01*
X190790781Y-106996399D01*
X190795237Y-106995415D01*
X190964345Y-106931346D01*
X191044540Y-106900963D01*
X191044543Y-106900962D01*
X191048810Y-106899345D01*
X191285859Y-106767676D01*
X191433603Y-106654921D01*
X191497785Y-106605939D01*
X191497786Y-106605938D01*
X191501417Y-106603167D01*
X191690970Y-106409264D01*
X191726534Y-106360405D01*
X191847859Y-106193721D01*
X191850547Y-106190028D01*
X191976804Y-105950053D01*
X191984113Y-105929357D01*
X192036831Y-105780069D01*
X192067096Y-105694366D01*
X192119533Y-105428322D01*
X192119760Y-105423766D01*
X192132789Y-105162064D01*
X192132789Y-105162058D01*
X192133016Y-105157495D01*
X192107262Y-104887559D01*
X192042810Y-104624168D01*
X191978655Y-104465775D01*
X191942725Y-104377069D01*
X191942725Y-104377068D01*
X191941012Y-104372840D01*
X191803999Y-104138839D01*
X191634641Y-103927068D01*
X191495226Y-103796833D01*
X191439824Y-103745079D01*
X191439821Y-103745077D01*
X191436488Y-103741963D01*
X191213688Y-103587402D01*
X191131185Y-103546357D01*
X190974997Y-103468654D01*
X190974994Y-103468653D01*
X190970910Y-103466621D01*
X190882162Y-103437528D01*
X190717573Y-103383573D01*
X190717568Y-103383572D01*
X190713240Y-103382153D01*
X190710005Y-103381591D01*
X190649030Y-103345869D01*
X190616899Y-103282559D01*
X190624097Y-103211928D01*
X190668338Y-103156401D01*
X190740771Y-103133500D01*
X192185406Y-103133500D01*
X192253527Y-103153502D01*
X192274501Y-103170405D01*
X196109153Y-107005058D01*
X196143179Y-107067370D01*
X196141476Y-107127823D01*
X196129025Y-107172722D01*
X196113870Y-107227371D01*
X196111707Y-107235169D01*
X196111159Y-107240301D01*
X196111158Y-107240304D01*
X196105337Y-107294778D01*
X196087095Y-107465469D01*
X196087392Y-107470622D01*
X196087392Y-107470625D01*
X196100129Y-107691529D01*
X196100427Y-107696697D01*
X196151346Y-107922642D01*
X196153288Y-107927424D01*
X196153289Y-107927428D01*
X196236540Y-108132450D01*
X196238484Y-108137237D01*
X196241183Y-108141641D01*
X196335742Y-108295947D01*
X196359501Y-108334719D01*
X196511147Y-108509784D01*
X196675556Y-108646279D01*
X196686462Y-108655333D01*
X196726097Y-108714235D01*
X196727595Y-108785216D01*
X196690481Y-108845739D01*
X196681630Y-108853037D01*
X196653636Y-108874056D01*
X196561655Y-108943117D01*
X196401639Y-109110564D01*
X196398725Y-109114836D01*
X196398724Y-109114837D01*
X196337865Y-109204053D01*
X196271119Y-109301899D01*
X196173602Y-109511981D01*
X196111707Y-109735169D01*
X196087095Y-109965469D01*
X196087392Y-109970622D01*
X196087392Y-109970625D01*
X196094731Y-110097902D01*
X196100427Y-110196697D01*
X196101564Y-110201743D01*
X196101565Y-110201749D01*
X196133741Y-110344523D01*
X196151346Y-110422642D01*
X196153288Y-110427424D01*
X196153289Y-110427428D01*
X196230864Y-110618472D01*
X196238484Y-110637237D01*
X196284790Y-110712801D01*
X196335742Y-110795947D01*
X196359501Y-110834719D01*
X196381594Y-110860224D01*
X196445498Y-110933997D01*
X196474980Y-110998582D01*
X196464865Y-111068855D01*
X196418364Y-111122503D01*
X196394489Y-111134476D01*
X196361948Y-111146675D01*
X196346351Y-111155214D01*
X196244276Y-111231715D01*
X196231715Y-111244276D01*
X196155214Y-111346351D01*
X196146676Y-111361946D01*
X196101522Y-111482394D01*
X196097895Y-111497649D01*
X196092369Y-111548514D01*
X196092000Y-111555328D01*
X196092000Y-112227885D01*
X196096475Y-112243124D01*
X196097865Y-112244329D01*
X196105548Y-112246000D01*
X198889884Y-112246000D01*
X198905123Y-112241525D01*
X198906328Y-112240135D01*
X198907999Y-112232452D01*
X198907999Y-111555331D01*
X198907629Y-111548510D01*
X198902105Y-111497648D01*
X198898479Y-111482396D01*
X198853324Y-111361946D01*
X198844786Y-111346351D01*
X198768285Y-111244276D01*
X198755724Y-111231715D01*
X198653649Y-111155214D01*
X198638054Y-111146676D01*
X198608581Y-111135627D01*
X198551817Y-111092985D01*
X198527117Y-111026424D01*
X198542324Y-110957075D01*
X198563870Y-110928395D01*
X198572641Y-110919654D01*
X198576303Y-110916005D01*
X198711458Y-110727917D01*
X198726621Y-110697238D01*
X198811784Y-110524922D01*
X198811785Y-110524920D01*
X198814078Y-110520280D01*
X198881408Y-110298671D01*
X198911640Y-110069041D01*
X198911722Y-110065691D01*
X198913245Y-110003365D01*
X198913245Y-110003361D01*
X198913327Y-110000000D01*
X198900837Y-109848077D01*
X198894773Y-109774318D01*
X198894772Y-109774312D01*
X198894349Y-109769167D01*
X198858026Y-109624560D01*
X198839184Y-109549544D01*
X198839183Y-109549540D01*
X198837925Y-109544533D01*
X198835866Y-109539797D01*
X198747630Y-109336868D01*
X198747628Y-109336865D01*
X198745570Y-109332131D01*
X198619764Y-109137665D01*
X198463887Y-108966358D01*
X198459836Y-108963159D01*
X198459832Y-108963155D01*
X198313690Y-108847740D01*
X198272627Y-108789823D01*
X198269395Y-108718900D01*
X198305020Y-108657489D01*
X198318613Y-108646279D01*
X198412243Y-108579494D01*
X198576303Y-108416005D01*
X198711458Y-108227917D01*
X198758641Y-108132450D01*
X198811784Y-108024922D01*
X198811785Y-108024920D01*
X198814078Y-108020280D01*
X198881408Y-107798671D01*
X198911640Y-107569041D01*
X198913327Y-107500000D01*
X198902115Y-107363625D01*
X198894773Y-107274318D01*
X198894772Y-107274312D01*
X198894349Y-107269167D01*
X198859437Y-107130175D01*
X198839184Y-107049544D01*
X198839183Y-107049540D01*
X198837925Y-107044533D01*
X198816568Y-106995415D01*
X198747630Y-106836868D01*
X198747628Y-106836865D01*
X198745570Y-106832131D01*
X198619764Y-106637665D01*
X198463887Y-106466358D01*
X198459836Y-106463159D01*
X198459832Y-106463155D01*
X198286177Y-106326011D01*
X198286172Y-106326008D01*
X198282123Y-106322810D01*
X198277607Y-106320317D01*
X198277604Y-106320315D01*
X198083879Y-106213373D01*
X198083875Y-106213371D01*
X198079355Y-106210876D01*
X198074486Y-106209152D01*
X198074482Y-106209150D01*
X197865903Y-106135288D01*
X197865899Y-106135287D01*
X197861028Y-106133562D01*
X197855935Y-106132655D01*
X197855932Y-106132654D01*
X197638095Y-106093851D01*
X197638089Y-106093850D01*
X197633006Y-106092945D01*
X197560096Y-106092054D01*
X197406581Y-106090179D01*
X197406579Y-106090179D01*
X197401411Y-106090116D01*
X197247589Y-106113654D01*
X197177573Y-106124368D01*
X197177571Y-106124369D01*
X197172464Y-106125150D01*
X197167549Y-106126757D01*
X197167547Y-106126757D01*
X197131889Y-106138412D01*
X197060925Y-106140565D01*
X197003647Y-106107743D01*
X193003652Y-102107747D01*
X192996112Y-102099461D01*
X192992000Y-102092982D01*
X192942348Y-102046356D01*
X192939507Y-102043602D01*
X192919770Y-102023865D01*
X192916573Y-102021385D01*
X192907551Y-102013680D01*
X192894122Y-102001069D01*
X192875321Y-101983414D01*
X192868375Y-101979595D01*
X192868372Y-101979593D01*
X192857566Y-101973652D01*
X192841047Y-101962801D01*
X192840583Y-101962441D01*
X192825041Y-101950386D01*
X192817772Y-101947241D01*
X192817768Y-101947238D01*
X192784463Y-101932826D01*
X192773813Y-101927609D01*
X192735060Y-101906305D01*
X192715437Y-101901267D01*
X192696734Y-101894863D01*
X192685420Y-101889967D01*
X192685419Y-101889967D01*
X192678145Y-101886819D01*
X192670322Y-101885580D01*
X192670312Y-101885577D01*
X192634476Y-101879901D01*
X192622856Y-101877495D01*
X192587711Y-101868472D01*
X192587710Y-101868472D01*
X192580030Y-101866500D01*
X192559776Y-101866500D01*
X192540065Y-101864949D01*
X192527886Y-101863020D01*
X192520057Y-101861780D01*
X192490786Y-101864547D01*
X192476039Y-101865941D01*
X192464181Y-101866500D01*
X99736496Y-101866500D01*
X99725313Y-101865973D01*
X99717820Y-101864298D01*
X99709894Y-101864547D01*
X99709893Y-101864547D01*
X99649743Y-101866438D01*
X99645784Y-101866500D01*
X99617873Y-101866500D01*
X99613939Y-101866997D01*
X99613938Y-101866997D01*
X99613873Y-101867005D01*
X99602036Y-101867938D01*
X99569778Y-101868952D01*
X99565759Y-101869078D01*
X99557840Y-101869327D01*
X99538386Y-101874979D01*
X99519029Y-101878987D01*
X99506799Y-101880532D01*
X99506798Y-101880532D01*
X99498932Y-101881526D01*
X99491561Y-101884445D01*
X99491559Y-101884445D01*
X99457817Y-101897804D01*
X99446587Y-101901649D01*
X99411746Y-101911771D01*
X99411745Y-101911771D01*
X99404136Y-101913982D01*
X99397317Y-101918015D01*
X99397312Y-101918017D01*
X99386701Y-101924293D01*
X99368953Y-101932988D01*
X99350112Y-101940448D01*
X99343696Y-101945110D01*
X99343695Y-101945110D01*
X99314342Y-101966436D01*
X99304422Y-101972952D01*
X99273194Y-101991420D01*
X99273191Y-101991422D01*
X99266367Y-101995458D01*
X99252046Y-102009779D01*
X99237013Y-102022619D01*
X99220622Y-102034528D01*
X99211946Y-102045016D01*
X99192431Y-102068605D01*
X99184441Y-102077384D01*
X83217747Y-118044077D01*
X83209461Y-118051617D01*
X83202982Y-118055729D01*
X83197557Y-118061506D01*
X83156357Y-118105380D01*
X83153602Y-118108222D01*
X83133865Y-118127959D01*
X83131385Y-118131156D01*
X83123682Y-118140176D01*
X83093414Y-118172408D01*
X83089595Y-118179354D01*
X83089593Y-118179357D01*
X83083652Y-118190163D01*
X83072801Y-118206682D01*
X83060386Y-118222688D01*
X83057241Y-118229957D01*
X83057238Y-118229961D01*
X83042826Y-118263266D01*
X83037609Y-118273916D01*
X83016305Y-118312669D01*
X83014334Y-118320344D01*
X83014334Y-118320345D01*
X83011267Y-118332291D01*
X83004863Y-118350995D01*
X82996819Y-118369584D01*
X82995580Y-118377407D01*
X82995577Y-118377417D01*
X82989901Y-118413253D01*
X82987495Y-118424873D01*
X82976500Y-118467699D01*
X82976500Y-118487953D01*
X82974949Y-118507663D01*
X82971780Y-118527672D01*
X82972526Y-118535564D01*
X82975941Y-118571690D01*
X82976500Y-118583548D01*
X82976500Y-121273644D01*
X82956498Y-121341765D01*
X82902842Y-121388258D01*
X82863504Y-121398971D01*
X82853834Y-121399974D01*
X82847298Y-121402155D01*
X82847296Y-121402155D01*
X82784631Y-121423062D01*
X82686054Y-121455950D01*
X82535652Y-121549022D01*
X82530479Y-121554204D01*
X82474762Y-121610018D01*
X82410695Y-121674197D01*
X82406855Y-121680427D01*
X82406854Y-121680428D01*
X82322466Y-121817331D01*
X82317885Y-121824762D01*
X82262203Y-121992639D01*
X82251500Y-122097100D01*
X82251500Y-123397900D01*
X82251837Y-123401146D01*
X82251837Y-123401150D01*
X82261024Y-123489688D01*
X82262474Y-123503666D01*
X82264655Y-123510202D01*
X82264655Y-123510204D01*
X82306323Y-123635096D01*
X82318450Y-123671446D01*
X82411522Y-123821848D01*
X82536697Y-123946805D01*
X82542927Y-123950645D01*
X82542928Y-123950646D01*
X82669104Y-124028422D01*
X82687262Y-124039615D01*
X82694209Y-124041919D01*
X82696276Y-124042883D01*
X82749561Y-124089799D01*
X82769023Y-124158076D01*
X82748482Y-124226036D01*
X82718681Y-124257837D01*
X82704965Y-124268135D01*
X82701393Y-124271873D01*
X82633547Y-124342870D01*
X82550629Y-124429638D01*
X82547720Y-124433903D01*
X82547714Y-124433911D01*
X82518957Y-124476067D01*
X82424743Y-124614180D01*
X82330688Y-124816805D01*
X82270989Y-125032070D01*
X82247251Y-125254195D01*
X82247548Y-125259348D01*
X82247548Y-125259351D01*
X82253011Y-125354090D01*
X82260110Y-125477215D01*
X82261247Y-125482261D01*
X82261248Y-125482267D01*
X82293453Y-125625168D01*
X82288917Y-125696020D01*
X82259631Y-125741964D01*
X81607747Y-126393848D01*
X81599461Y-126401388D01*
X81592982Y-126405500D01*
X81587557Y-126411277D01*
X81546357Y-126455151D01*
X81543602Y-126457993D01*
X81523865Y-126477730D01*
X81521385Y-126480927D01*
X81513682Y-126489947D01*
X81483414Y-126522179D01*
X81479595Y-126529125D01*
X81479593Y-126529128D01*
X81473652Y-126539934D01*
X81462801Y-126556453D01*
X81450386Y-126572459D01*
X81447241Y-126579728D01*
X81447238Y-126579732D01*
X81432826Y-126613037D01*
X81427609Y-126623687D01*
X81406305Y-126662440D01*
X81404334Y-126670115D01*
X81404334Y-126670116D01*
X81401267Y-126682062D01*
X81394863Y-126700766D01*
X81386819Y-126719355D01*
X81385580Y-126727178D01*
X81385577Y-126727188D01*
X81379901Y-126763024D01*
X81377495Y-126774644D01*
X81370595Y-126801520D01*
X81366500Y-126817470D01*
X81366500Y-126837724D01*
X81364949Y-126857434D01*
X81361780Y-126877443D01*
X75008500Y-126877443D01*
X75008500Y-105242505D01*
X87866984Y-105242505D01*
X87892738Y-105512441D01*
X87893822Y-105516870D01*
X87893823Y-105516877D01*
X87908474Y-105576749D01*
X87957190Y-105775832D01*
X87958905Y-105780067D01*
X87958906Y-105780069D01*
X88029396Y-105954101D01*
X88058988Y-106027160D01*
X88196001Y-106261161D01*
X88230302Y-106304052D01*
X88360102Y-106466358D01*
X88365359Y-106472932D01*
X88368700Y-106476053D01*
X88512693Y-106610564D01*
X88563512Y-106658037D01*
X88786312Y-106812598D01*
X88790388Y-106814626D01*
X88790390Y-106814627D01*
X89025003Y-106931346D01*
X89025006Y-106931347D01*
X89029090Y-106933379D01*
X89286760Y-107017847D01*
X89291251Y-107018627D01*
X89291252Y-107018627D01*
X89550144Y-107063579D01*
X89550152Y-107063580D01*
X89553925Y-107064235D01*
X89557762Y-107064426D01*
X89638029Y-107068422D01*
X89638037Y-107068422D01*
X89639600Y-107068500D01*
X90328884Y-107068500D01*
X90331152Y-107068335D01*
X90331164Y-107068335D01*
X90462978Y-107058771D01*
X90530451Y-107053875D01*
X90534906Y-107052891D01*
X90534909Y-107052891D01*
X90790777Y-106996400D01*
X90790781Y-106996399D01*
X90795237Y-106995415D01*
X90964345Y-106931346D01*
X91044540Y-106900963D01*
X91044543Y-106900962D01*
X91048810Y-106899345D01*
X91285859Y-106767676D01*
X91433603Y-106654921D01*
X91497785Y-106605939D01*
X91497786Y-106605938D01*
X91501417Y-106603167D01*
X91690970Y-106409264D01*
X91726534Y-106360405D01*
X91847859Y-106193721D01*
X91850547Y-106190028D01*
X91976804Y-105950053D01*
X91984113Y-105929357D01*
X92036831Y-105780069D01*
X92067096Y-105694366D01*
X92119533Y-105428322D01*
X92119760Y-105423766D01*
X92132789Y-105162064D01*
X92132789Y-105162058D01*
X92133016Y-105157495D01*
X92107262Y-104887559D01*
X92042810Y-104624168D01*
X91978655Y-104465775D01*
X91942725Y-104377069D01*
X91942725Y-104377068D01*
X91941012Y-104372840D01*
X91803999Y-104138839D01*
X91634641Y-103927068D01*
X91495226Y-103796833D01*
X91439824Y-103745079D01*
X91439821Y-103745077D01*
X91436488Y-103741963D01*
X91213688Y-103587402D01*
X91131185Y-103546357D01*
X90974997Y-103468654D01*
X90974994Y-103468653D01*
X90970910Y-103466621D01*
X90713240Y-103382153D01*
X90703121Y-103380396D01*
X90449856Y-103336421D01*
X90449848Y-103336420D01*
X90446075Y-103335765D01*
X90438429Y-103335384D01*
X90361971Y-103331578D01*
X90361963Y-103331578D01*
X90360400Y-103331500D01*
X89671116Y-103331500D01*
X89668848Y-103331665D01*
X89668836Y-103331665D01*
X89537022Y-103341229D01*
X89469549Y-103346125D01*
X89465094Y-103347109D01*
X89465091Y-103347109D01*
X89209223Y-103403600D01*
X89209219Y-103403601D01*
X89204763Y-103404585D01*
X89092182Y-103447238D01*
X88955460Y-103499037D01*
X88955457Y-103499038D01*
X88951190Y-103500655D01*
X88798669Y-103585373D01*
X88724704Y-103626457D01*
X88714141Y-103632324D01*
X88644181Y-103685716D01*
X88520442Y-103780151D01*
X88498583Y-103796833D01*
X88309030Y-103990736D01*
X88306343Y-103994428D01*
X88306341Y-103994430D01*
X88243903Y-104080211D01*
X88149453Y-104209972D01*
X88023196Y-104449947D01*
X88021677Y-104454248D01*
X88021675Y-104454253D01*
X88007931Y-104493173D01*
X87932904Y-104705634D01*
X87913585Y-104803653D01*
X87885038Y-104948489D01*
X87880467Y-104971678D01*
X87880240Y-104976232D01*
X87880240Y-104976234D01*
X87867977Y-105222568D01*
X87866984Y-105242505D01*
X75008500Y-105242505D01*
X75008500Y-98634500D01*
X75028502Y-98566379D01*
X75082158Y-98519886D01*
X75134500Y-98508500D01*
X200365500Y-98508500D01*
X200433621Y-98528502D01*
G37*
G04 #@! TD.AperFunction*
M02*
