M48
INCH,TZ
T1C0.0315
T2C0.0394
T3C0.0433
T4C0.0472
%
G90
G05
T1
X42126Y-41307
X42126Y-45307
X43701Y-41307
X43701Y-45307
X45276Y-41307
X45276Y-45307
X53150Y-49181
X53150Y-53181
X54724Y-49181
X54724Y-53181
X56299Y-49181
X56299Y-53181
X57874Y-49181
X57874Y-53181
X59449Y-49181
X59449Y-53181
X61024Y-49181
X61024Y-53181
X62008Y-42815
X62008Y-43799
X63976Y-41732
X63976Y-44732
X64976Y-41732
X64976Y-44732
X65976Y-41732
X65976Y-44732
X66976Y-41732
X66976Y-44732
X68701Y-42815
X68701Y-43799
T2
X32917Y-48326
X32917Y-49326
X32917Y-52853
X32917Y-53853
X33917Y-48326
X33917Y-49326
X33917Y-52853
X33917Y-53853
X34917Y-48326
X34917Y-49326
X34917Y-52853
X34917Y-53853
X35917Y-48326
X35917Y-49326
X35917Y-52853
X35917Y-53853
X36917Y-48326
X36917Y-49326
X36917Y-52853
X36917Y-53853
X37917Y-48326
X37917Y-49326
X37917Y-52853
X37917Y-53853
X38386Y-42323
X38386Y-43307
X38386Y-44291
X38917Y-48326
X38917Y-49326
X38917Y-52853
X38917Y-53853
X39917Y-48326
X39917Y-49326
X39917Y-52853
X39917Y-53853
X48228Y-50197
X48228Y-51181
X48228Y-52165
X58071Y-42323
X58071Y-43307
X58071Y-44291
X67913Y-50197
X67913Y-51181
X67913Y-52165
X77756Y-42323
X77756Y-43307
X77756Y-44291
T4
X76181Y-51772
X76181Y-52772
T3
G00X35571Y-41417
M15
G01X35295Y-41417
M16
G05
G00X35571Y-45197
M15
G01X35295Y-45197
M16
G05
G00X45413Y-49291
M15
G01X45138Y-49291
M16
G05
G00X45413Y-53071
M15
G01X45138Y-53071
M16
G05
G00X55256Y-41417
M15
G01X54980Y-41417
M16
G05
G00X55256Y-45197
M15
G01X54980Y-45197
M16
G05
G00X65098Y-49291
M15
G01X64823Y-49291
M16
G05
G00X65098Y-53071
M15
G01X64823Y-53071
M16
G05
G00X74941Y-41417
M15
G01X74665Y-41417
M16
G05
G00X74941Y-45197
M15
G01X74665Y-45197
M16
G05
T0
M30
