G04 #@! TF.GenerationSoftware,KiCad,Pcbnew,(6.0.5)*
G04 #@! TF.CreationDate,2022-06-09T22:04:56-05:00*
G04 #@! TF.ProjectId,KosmoVoltsMain,4b6f736d-6f56-46f6-9c74-734d61696e2e,rev?*
G04 #@! TF.SameCoordinates,Original*
G04 #@! TF.FileFunction,Soldermask,Top*
G04 #@! TF.FilePolarity,Negative*
%FSLAX46Y46*%
G04 Gerber Fmt 4.6, Leading zero omitted, Abs format (unit mm)*
G04 Created by KiCad (PCBNEW (6.0.5)) date 2022-06-09 22:04:56*
%MOMM*%
%LPD*%
G01*
G04 APERTURE LIST*
G04 Aperture macros list*
%AMRoundRect*
0 Rectangle with rounded corners*
0 $1 Rounding radius*
0 $2 $3 $4 $5 $6 $7 $8 $9 X,Y pos of 4 corners*
0 Add a 4 corners polygon primitive as box body*
4,1,4,$2,$3,$4,$5,$6,$7,$8,$9,$2,$3,0*
0 Add four circle primitives for the rounded corners*
1,1,$1+$1,$2,$3*
1,1,$1+$1,$4,$5*
1,1,$1+$1,$6,$7*
1,1,$1+$1,$8,$9*
0 Add four rect primitives between the rounded corners*
20,1,$1+$1,$2,$3,$4,$5,0*
20,1,$1+$1,$4,$5,$6,$7,0*
20,1,$1+$1,$6,$7,$8,$9,0*
20,1,$1+$1,$8,$9,$2,$3,0*%
G04 Aperture macros list end*
%ADD10O,3.240000X2.720000*%
%ADD11R,1.800000X1.800000*%
%ADD12C,1.800000*%
%ADD13RoundRect,0.250000X-0.600000X0.600000X-0.600000X-0.600000X0.600000X-0.600000X0.600000X0.600000X0*%
%ADD14C,1.700000*%
%ADD15R,1.600000X2.400000*%
%ADD16O,1.600000X2.400000*%
%ADD17C,1.600000*%
%ADD18O,1.600000X1.600000*%
%ADD19RoundRect,0.250000X-0.850000X0.620000X-0.850000X-0.620000X0.850000X-0.620000X0.850000X0.620000X0*%
%ADD20O,2.200000X1.740000*%
G04 APERTURE END LIST*
D10*
X165000000Y-134800000D03*
X165000000Y-125200000D03*
D11*
X172500000Y-132500000D03*
D12*
X172500000Y-130000000D03*
X172500000Y-127500000D03*
D10*
X115000000Y-134800000D03*
X115000000Y-125200000D03*
D11*
X122500000Y-132500000D03*
D12*
X122500000Y-130000000D03*
X122500000Y-127500000D03*
D10*
X90000000Y-105200000D03*
X90000000Y-114800000D03*
D11*
X97500000Y-112500000D03*
D12*
X97500000Y-110000000D03*
X97500000Y-107500000D03*
D10*
X190000000Y-114800000D03*
X190000000Y-105200000D03*
D11*
X197500000Y-112500000D03*
D12*
X197500000Y-110000000D03*
X197500000Y-107500000D03*
D10*
X140000000Y-114800000D03*
X140000000Y-105200000D03*
D11*
X147500000Y-112500000D03*
D12*
X147500000Y-110000000D03*
X147500000Y-107500000D03*
D13*
X83610000Y-122747500D03*
D14*
X83610000Y-125287500D03*
X86150000Y-122747500D03*
X86150000Y-125287500D03*
X88690000Y-122747500D03*
X88690000Y-125287500D03*
X91230000Y-122747500D03*
X91230000Y-125287500D03*
X93770000Y-122747500D03*
X93770000Y-125287500D03*
X96310000Y-122747500D03*
X96310000Y-125287500D03*
X98850000Y-122747500D03*
X98850000Y-125287500D03*
X101390000Y-122747500D03*
X101390000Y-125287500D03*
D15*
X162500000Y-106000000D03*
D16*
X165040000Y-106000000D03*
X167580000Y-106000000D03*
X170120000Y-106000000D03*
X170120000Y-113620000D03*
X167580000Y-113620000D03*
X165040000Y-113620000D03*
X162500000Y-113620000D03*
D17*
X157500000Y-108750000D03*
X157500000Y-111250000D03*
X111000000Y-104920000D03*
D18*
X111000000Y-115080000D03*
D17*
X115000000Y-104920000D03*
D18*
X115000000Y-115080000D03*
D17*
X151000000Y-124920000D03*
D18*
X151000000Y-135080000D03*
D13*
X83610000Y-134247500D03*
D14*
X83610000Y-136787500D03*
X86150000Y-134247500D03*
X86150000Y-136787500D03*
X88690000Y-134247500D03*
X88690000Y-136787500D03*
X91230000Y-134247500D03*
X91230000Y-136787500D03*
X93770000Y-134247500D03*
X93770000Y-136787500D03*
X96310000Y-134247500D03*
X96310000Y-136787500D03*
X98850000Y-134247500D03*
X98850000Y-136787500D03*
X101390000Y-134247500D03*
X101390000Y-136787500D03*
D19*
X193500000Y-131500000D03*
D20*
X193500000Y-134040000D03*
D17*
X139000000Y-124920000D03*
D18*
X139000000Y-135080000D03*
D17*
X147000000Y-124920000D03*
D18*
X147000000Y-135080000D03*
D17*
X174500000Y-108750000D03*
X174500000Y-111250000D03*
X143000000Y-124920000D03*
D18*
X143000000Y-135080000D03*
D17*
X155000000Y-124920000D03*
D18*
X155000000Y-135080000D03*
D17*
X135000000Y-124920000D03*
D18*
X135000000Y-135080000D03*
D17*
X107000000Y-104920000D03*
D18*
X107000000Y-115080000D03*
M02*
